<svg width="212" height="48" viewBox="0 0 212 48" fill="none" xmlns="http://www.w3.org/2000/svg">
<path d="M199.826 43H12.1882L12.0226 42.4831C11.4688 40.8797 10.5969 39.408 9.4603 38.1586C8.32375 36.9092 6.94669 35.9086 5.4139 35.2184L5 35.0507V12.9213L5.4139 12.7537C6.94624 12.0627 8.32293 11.0619 9.45939 9.81262C10.5959 8.56335 11.4681 7.09201 12.0226 5.48897L12.1606 5H199.826L199.977 5.48897C200.533 7.09162 201.405 8.56259 202.542 9.81178C203.678 11.061 205.054 12.062 206.586 12.7537L207 12.9213V35.0787L206.586 35.2463C205.052 35.9352 203.675 36.9353 202.538 38.1848C201.401 39.4344 200.53 40.9068 199.977 42.511L199.826 43ZM13.1126 41.6029H198.874C200.118 38.3284 202.551 35.6594 205.676 34.1426V13.8294C202.551 12.3127 200.118 9.64368 198.874 6.36912H13.1539C11.9078 9.64693 9.46873 12.3167 6.3383 13.8294V34.1706C9.46873 35.6833 11.9078 38.3531 13.1539 41.6309L13.1126 41.6029Z" fill="white" fill-opacity="0.38"/>
<path d="M203.682 48H8.33133L8.1379 46.8934C8.1379 46.6167 6.75626 40.2259 0.96716 38.4692L0 38.1925V9.80749L0.96716 9.517C6.86679 7.76023 8.12409 1.21729 8.12409 1.12046L8.33133 0H203.682L203.876 1.12046C203.876 1.38328 205.188 7.76023 211.047 9.517L212 9.80749V38.151L211.047 38.4277C205.147 40.1983 203.89 46.7274 203.876 46.838L203.682 48ZM10.5143 45.2334H201.499C202.038 43.2319 203.02 41.3773 204.371 39.8066C205.722 38.2359 207.409 36.9894 209.306 36.1591V11.7856C207.409 10.9553 205.722 9.70875 204.371 8.13807C203.02 6.56738 202.038 4.71274 201.499 2.71124H10.5143C9.97543 4.71274 8.9941 6.56738 7.6429 8.13807C6.2917 9.70875 4.60519 10.9553 2.70803 11.7856V36.2144C4.60519 37.0447 6.2917 38.2913 7.6429 39.8619C8.9941 41.4326 9.97543 43.2873 10.5143 45.2888V45.2334Z" fill="white" fill-opacity="0.38"/>
</svg>
