<svg width="237" height="51" viewBox="0 0 237 51" fill="none" xmlns="http://www.w3.org/2000/svg">
<path d="M13.089 36.9045V12.4735H19.7552C21.8493 12.4735 23.6177 12.8225 25.0603 13.5205C26.5145 14.2186 27.6837 15.1551 28.5679 16.3301C29.452 17.4935 30.0919 18.8023 30.4874 20.2565C30.8946 21.6991 31.0982 23.1766 31.0982 24.689C31.0982 26.0967 30.9121 27.516 30.5398 28.947C30.1675 30.378 29.5451 31.6984 28.6726 32.9083C27.8117 34.1066 26.6425 35.0722 25.165 35.8051C23.6875 36.5381 21.8377 36.9045 19.6156 36.9045H13.089ZM16.1255 34.0775H19.9995C21.5236 34.0775 22.7917 33.8041 23.8038 33.2573C24.8276 32.6989 25.642 31.966 26.2469 31.0585C26.8635 30.1395 27.2998 29.1273 27.5557 28.0221C27.8233 26.9053 27.9571 25.7942 27.9571 24.689C27.9571 23.5024 27.8117 22.3506 27.5208 21.2338C27.2416 20.1053 26.7937 19.0931 26.1771 18.1973C25.5721 17.3015 24.7927 16.5919 23.8387 16.0683C22.8847 15.5332 21.733 15.2656 20.3835 15.2656H16.1255V34.0775ZM36.7089 36.9045V12.4735H51.2279V15.3354H39.7453V22.8392H47.319V25.7012H39.7453V34.0077H51.9958V36.9045H36.7089ZM65.6199 37.3234C63.7701 37.3234 62.1995 36.9627 60.9082 36.2414C59.6168 35.5201 58.5756 34.5545 57.7845 33.3446C56.9934 32.123 56.4117 30.7619 56.0394 29.2611C55.6788 27.7603 55.4985 26.2363 55.4985 24.689C55.4985 23.1534 55.6846 21.641 56.0569 20.1518C56.4408 18.6511 57.0341 17.2899 57.8369 16.0683C58.6396 14.8468 59.6808 13.8754 60.9605 13.1541C62.2519 12.4211 63.805 12.0547 65.6199 12.0547C67.1207 12.0547 68.3887 12.2699 69.4242 12.7004C70.4712 13.1308 71.3205 13.6834 71.972 14.3582C72.6351 15.0213 73.147 15.7193 73.5076 16.4523L70.7853 17.8483C70.4014 17.2783 69.9826 16.7722 69.5289 16.3301C69.0751 15.8764 68.5342 15.5216 67.9059 15.2656C67.2777 15.0097 66.5157 14.8817 65.6199 14.8817C64.3169 14.8817 63.2175 15.1784 62.3217 15.7717C61.4259 16.365 60.7046 17.1445 60.1578 18.1101C59.6226 19.0757 59.2329 20.1344 58.9886 21.2861C58.7559 22.4379 58.6396 23.5722 58.6396 24.689C58.6396 25.8989 58.7734 27.0856 59.041 28.249C59.3085 29.4124 59.7274 30.4652 60.2974 31.4076C60.8675 32.3383 61.5888 33.0828 62.4613 33.6413C63.3455 34.188 64.3983 34.4614 65.6199 34.4614C66.9694 34.4614 68.0514 34.1764 68.8657 33.6063C69.6801 33.0247 70.3665 32.2743 70.9249 31.3552L73.717 32.4022C73.2982 33.3097 72.7282 34.1357 72.0069 34.8803C71.2856 35.6248 70.3956 36.2181 69.3369 36.6602C68.2899 37.1023 67.0508 37.3234 65.6199 37.3234ZM78.8361 36.9045V12.4735H81.8725V24.4447L91.4006 12.4735H94.821L88.085 20.9197L96.8104 36.9045H93.2853L86.0258 23.4675L81.8725 28.5631V36.9045H78.8361Z" fill="white"/>
<path d="M111.139 37.8477V13.4166H127.385V17.7095H115.658V23.0843H123.162V27.3772H115.658V37.8477H111.139ZM140.9 38.2665C138.945 38.2665 137.287 37.9 135.926 37.1671C134.565 36.4225 133.466 35.4395 132.628 34.2179C131.802 32.9847 131.197 31.6236 130.813 30.1344C130.429 28.6453 130.237 27.1445 130.237 25.6321C130.237 24.1197 130.429 22.619 130.813 21.1298C131.197 19.6407 131.802 18.2854 132.628 17.0638C133.466 15.8306 134.565 14.8476 135.926 14.1146C137.287 13.3701 138.945 12.9978 140.9 12.9978C142.854 12.9978 144.506 13.3701 145.856 14.1146C147.217 14.8476 148.31 15.8306 149.136 17.0638C149.974 18.2854 150.579 19.6407 150.951 21.1298C151.335 22.619 151.527 24.1197 151.527 25.6321C151.527 27.1445 151.335 28.6453 150.951 30.1344C150.579 31.6236 149.974 32.9847 149.136 34.2179C148.31 35.4395 147.217 36.4225 145.856 37.1671C144.506 37.9 142.854 38.2665 140.9 38.2665ZM140.9 33.9212C141.993 33.9212 142.918 33.6653 143.674 33.1534C144.442 32.6415 145.059 31.9726 145.524 31.1466C145.989 30.3206 146.327 29.4248 146.536 28.4592C146.746 27.4819 146.85 26.5396 146.85 25.6321C146.85 24.6549 146.746 23.6776 146.536 22.7004C146.338 21.7115 146.007 20.8157 145.542 20.013C145.088 19.1986 144.477 18.5471 143.709 18.0585C142.953 17.5583 142.017 17.3081 140.9 17.3081C139.771 17.3081 138.823 17.5641 138.055 18.076C137.299 18.5878 136.688 19.2626 136.223 20.1002C135.769 20.9262 135.438 21.8279 135.228 22.8051C135.03 23.7707 134.932 24.7131 134.932 25.6321C134.932 26.5977 135.03 27.5692 135.228 28.5464C135.438 29.5236 135.775 30.4195 136.24 31.2338C136.717 32.0482 137.334 32.6997 138.09 33.1883C138.858 33.6769 139.794 33.9212 140.9 33.9212ZM156.231 37.8477V13.4166H167.347C169.383 13.4166 170.988 13.7714 172.164 14.4811C173.35 15.1791 174.194 16.104 174.694 17.2558C175.206 18.4075 175.462 19.6465 175.462 20.9728C175.462 21.8919 175.281 22.8226 174.921 23.7649C174.572 24.7072 174.037 25.5565 173.315 26.3127C172.594 27.0689 171.687 27.6273 170.593 27.988L175.409 37.8477H170.331L165.707 28.5988H160.751V37.8477H156.231ZM160.751 24.3408H167.417C168.266 24.3408 168.935 24.1837 169.424 23.8696C169.924 23.5439 170.279 23.125 170.488 22.6132C170.698 22.1013 170.802 21.5603 170.802 20.9902C170.802 20.4783 170.703 19.9665 170.506 19.4546C170.308 18.9427 169.965 18.518 169.476 18.1807C168.987 17.8433 168.301 17.6746 167.417 17.6746H160.751V24.3408ZM189.485 38.2665C187.612 38.2665 186.001 37.9175 184.651 37.2194C183.302 36.5098 182.203 35.5558 181.353 34.3575C180.504 33.1476 179.87 31.7922 179.451 30.2915C179.044 28.7791 178.84 27.226 178.84 25.6321C178.84 24.1081 179.05 22.6015 179.469 21.1124C179.899 19.6233 180.545 18.2679 181.406 17.0464C182.278 15.8248 183.383 14.8476 184.721 14.1146C186.059 13.3701 187.647 12.9978 189.485 12.9978C191.044 12.9978 192.359 13.2421 193.429 13.7307C194.511 14.2193 195.419 14.8592 196.151 15.6503C196.896 16.4298 197.542 17.2558 198.089 18.1283L194.11 20.3969C193.575 19.5709 192.941 18.8496 192.208 18.233C191.486 17.6164 190.579 17.3081 189.485 17.3081C188.345 17.3081 187.391 17.5641 186.623 18.076C185.867 18.5878 185.262 19.2568 184.808 20.0828C184.355 20.9088 184.029 21.8104 183.831 22.7877C183.633 23.7533 183.535 24.7014 183.535 25.6321C183.535 26.6908 183.645 27.7146 183.866 28.7035C184.087 29.6923 184.436 30.5823 184.913 31.3734C185.39 32.1645 186.007 32.7928 186.763 33.2581C187.519 33.7118 188.427 33.9387 189.485 33.9387C190.288 33.9387 191.015 33.7584 191.667 33.3977C192.33 33.0371 192.853 32.5543 193.237 31.9493C193.621 31.3327 193.813 30.6405 193.813 29.8727V29.4189H189.66V25.1435H198.472V28.6686C198.472 30.7394 198.071 32.4903 197.268 33.9212C196.477 35.3406 195.401 36.4225 194.04 37.1671C192.69 37.9 191.172 38.2665 189.485 38.2665ZM203.573 37.8477V13.4166H220.081V17.7095H208.093V23.0843H215.195V27.3772H208.093V33.5199H220.814V37.8477H203.573Z" fill="white"/>
<rect x="0.707463" y="0.707463" width="102.11" height="49.5224" stroke="white" stroke-width="1.41493"/>
</svg>
