<svg width="337" height="90" viewBox="0 0 337 90" fill="none" xmlns="http://www.w3.org/2000/svg">
<path d="M89.8994 62.1816C89.113 60.7816 89.0007 59.4816 88.2144 58.2816C87.8774 57.7816 87.428 57.2816 86.9787 56.7816C85.743 56.2816 84.395 55.6816 82.9347 55.0816C82.8224 48.1816 82.9347 41.2816 82.9347 34.3816C84.6197 33.5816 86.5294 33.4816 87.5404 31.9816C88.5514 30.5816 89.0007 29.0816 89.5624 27.6816C90.3487 27.3816 91.135 27.4816 91.9214 27.4816C123.375 27.4816 154.716 27.4816 186.169 27.4816C200.435 27.4816 214.814 27.5816 229.08 27.4816C234.697 27.3816 240.314 27.2816 245.93 27.2816C246.604 27.2816 247.278 27.2816 248.177 27.2816C248.851 29.2816 249.413 31.1816 251.322 32.9816C252.221 33.3816 253.457 33.9816 254.58 34.4816C254.917 35.0816 254.917 35.4816 254.917 35.9816C254.917 38.1816 254.917 40.3816 254.917 42.5816C254.917 44.8816 254.805 47.1816 255.142 49.5816C255.479 51.3816 255.254 53.2816 254.692 55.2816C253.232 56.0816 251.322 56.3816 250.199 57.8816C249.188 59.1816 248.739 60.7816 248.177 62.2816C195.493 62.1816 142.808 62.1816 89.8994 62.1816ZM91.6967 59.2816C92.483 59.8816 93.3817 59.8816 94.168 59.6816C95.2914 59.4816 96.3024 59.4816 97.4257 59.4816C126.183 59.6816 154.828 59.0816 183.585 59.7816C185.944 59.8816 188.416 59.6816 190.775 59.7816C192.572 59.7816 194.482 59.4816 196.279 59.4816C212.23 59.4816 228.294 59.4816 244.245 59.4816C245.032 59.4816 245.818 59.5816 246.717 59.1816C247.615 56.5816 249.75 54.6816 252.67 53.4816C252.67 47.5816 252.67 41.7816 252.67 35.8816C249.862 34.4816 247.503 32.7816 246.717 29.7816C195.043 29.7816 143.482 29.7816 91.809 29.7816C90.9104 32.5816 88.8884 34.4816 86.08 35.6816C85.8554 37.4816 85.8554 52.1816 86.08 53.4816C89.6747 55.9816 89.6747 55.9816 91.6967 59.2816Z" fill="#747474"/>
<path d="M8.00814 40.9817C13.1755 38.0817 18.5675 35.7816 24.1841 33.8816C26.7678 32.9816 29.3515 31.8816 32.1598 31.3816C33.8448 31.0816 35.4175 31.0816 37.1025 31.1816C37.8888 31.1816 38.7875 31.4816 39.0121 32.2816C39.0121 33.0816 38.1135 33.1816 37.7765 33.5816C36.6531 35.4816 36.4285 37.5816 36.3161 39.6816C36.3161 40.4816 36.3161 41.2816 36.3161 42.0816C36.0915 47.5816 37.6641 52.7817 39.2368 57.9817C39.3491 58.3817 39.5738 58.8817 39.6861 59.2817C38.7875 60.2817 37.6641 60.8816 36.3161 60.8816C35.4175 60.8816 34.6311 60.9816 34.0695 61.5816C32.9461 61.1817 31.9351 61.0817 31.1488 61.4817C30.1378 61.2817 29.2391 60.5816 28.3405 61.2817C27.8911 61.0816 27.3295 60.7817 26.9925 60.5816C26.4308 60.3816 25.9815 60.6817 25.5321 60.7817C24.1841 59.9817 22.6115 60.1817 21.1511 59.9817C20.3648 59.5817 20.0278 58.7817 19.0168 58.4817C17.6688 59.4817 18.5675 60.4816 18.9045 61.5816C17.8935 62.5816 16.4331 62.8816 15.1975 63.3816C13.7371 64.0816 12.1645 64.0816 10.8165 64.9817C9.35614 66.8817 9.35614 68.8817 10.7041 70.9817C11.2658 71.8817 11.9398 72.8817 11.4905 73.8817C10.9288 74.3817 10.1425 73.9816 9.35614 74.7816C8.79447 76.4816 10.9288 77.5816 11.4905 79.1816C10.3671 80.1816 9.80547 80.2817 8.68214 79.5816C6.43547 78.3816 4.8628 76.6817 3.96414 74.3817C3.1778 72.3817 2.61614 70.3816 2.39147 68.2817C2.1668 65.8816 2.72847 63.6816 3.73947 61.5816C3.62714 61.0816 3.5148 60.6817 3.06547 60.5816C2.27914 60.4816 2.05447 61.0817 1.4928 61.4817C0.931137 60.3817 1.04347 59.3816 1.60514 58.3816C2.1668 57.3816 2.61614 56.2817 3.1778 55.2817C3.96414 53.7817 4.1888 52.2817 3.40247 50.5816C4.97514 47.3816 5.98614 43.9817 8.00814 40.9817ZM12.8385 47.1816C11.0411 46.3816 9.9178 46.4816 9.2438 47.3816C7.8958 49.1816 6.8848 51.1817 6.8848 53.4817C7.67114 53.2817 7.44647 52.3816 8.12047 52.0816C9.13147 51.1817 10.9288 51.5816 12.0521 50.3816C11.9398 49.3816 12.6138 48.3816 12.8385 47.1816Z" fill="#747474"/>
<path d="M300.524 33.7817C300.075 33.1817 299.289 33.0817 299.176 32.3817C299.401 31.3817 300.412 31.2817 301.423 31.1817C304.231 30.9817 306.927 31.3817 309.511 32.2817C314.229 34.0817 319.172 35.4817 323.777 37.6817C325.912 38.6817 328.046 39.7817 330.068 40.7817C332.202 43.8817 333.101 47.2817 334.561 50.4817C333.213 53.1817 334.898 55.4816 336.022 57.6816C336.583 58.8816 337.033 59.9817 336.583 61.2817C335.797 61.3817 335.797 60.2817 335.123 60.4817C334.449 60.5817 334.449 61.0816 334.112 61.3816C335.123 63.1816 335.572 65.0817 335.572 66.9817C335.572 70.4817 334.561 73.7817 332.539 76.8817C331.641 78.1817 330.18 78.9816 328.72 79.6816C327.934 80.0816 327.147 79.8816 326.473 79.1816C326.81 77.5816 329.057 76.4816 328.608 74.6816C328.046 73.8816 327.147 74.2816 326.473 73.7816C326.024 72.6816 326.698 71.6816 327.26 70.7816C328.608 68.7816 328.72 66.8817 327.147 64.7817C324.788 63.5817 321.531 63.4817 319.284 61.5816C319.509 60.5816 320.52 59.4816 319.172 58.3816C318.161 58.6817 317.824 59.4816 317.037 59.8816C315.577 59.9816 314.004 59.8817 312.769 60.5816C312.207 60.6817 311.758 60.2816 311.308 60.3816C310.859 60.5816 310.297 60.8816 309.848 61.0816C308.949 60.3816 308.051 61.0816 307.04 61.2817C306.141 60.8817 305.242 60.9816 304.231 61.3816C303.445 60.9816 302.771 60.6816 301.872 60.6816C300.412 60.6816 299.289 60.0816 298.39 59.0816C299.963 55.0816 300.749 50.9817 301.535 46.8817C301.76 45.9817 301.76 45.1817 301.76 44.3817C301.76 41.7817 301.872 39.1817 301.423 36.5817C301.311 35.5817 300.749 34.6817 300.524 33.7817ZM331.191 53.4817C330.967 50.7817 330.405 49.4817 329.057 47.5816C328.158 46.3817 326.81 46.2817 325.35 47.2817C325.687 48.3817 326.024 49.5816 326.361 50.6816C327.484 51.5816 329.282 51.2816 330.18 52.1816C330.63 52.5816 330.517 53.1817 331.191 53.4817Z" fill="#747474"/>
<path d="M169.207 76.5817C168.308 74.7817 166.623 74.4817 164.826 74.1817C160.445 73.4817 156.176 72.1817 152.02 70.7817C149.099 69.8817 146.178 68.7817 143.146 68.0817C140.225 67.3817 137.192 67.4817 134.159 67.7817C131.575 68.0817 128.879 68.3817 125.958 68.9817C127.531 66.7817 128.991 64.9817 130.564 63.1817C131.238 63.1817 132.024 63.1817 132.698 63.1817C141.236 63.1817 149.885 63.2817 158.423 63.1817C161.568 63.1817 164.152 64.0817 166.511 65.8817C167.522 66.6817 168.533 67.3817 169.768 68.2817C170.442 67.6817 171.229 67.0817 171.903 66.3817C172.801 65.4817 173.812 64.8817 174.823 64.1817C175.722 63.5817 176.733 63.2817 177.856 63.2817C187.854 63.2817 197.964 63.2817 207.962 63.2817C208.186 63.2817 208.411 63.2817 208.748 63.3817C210.433 64.9817 211.669 66.8817 213.129 68.5817C212.905 69.0817 212.567 68.8817 212.343 68.8817C208.299 68.2817 204.255 67.5817 199.986 67.6817C197.178 67.7817 194.594 68.5817 192.01 69.3817C187.854 70.6817 183.698 72.0817 179.541 73.1817C177.969 73.5817 176.509 73.8817 174.936 74.1817C173.139 74.4817 171.341 74.8817 170.105 76.2817C169.769 76.3817 169.656 76.3817 169.207 76.5817ZM181.676 70.1817C182.687 69.5817 182.799 69.0817 183.136 68.5817C183.473 67.9817 183.024 67.2817 183.585 66.7817C185.72 66.1817 187.405 68.1817 189.539 67.5817C189.876 67.1817 190.213 66.8817 189.876 66.1817C187.742 65.2817 185.495 64.5817 183.024 65.2817C182.237 65.4817 181.563 65.6817 181.451 66.6817C182.574 67.4817 182.013 68.6817 181.676 70.1817ZM204.255 65.2817C203.581 65.2817 202.907 65.3817 202.233 65.2817C200.323 64.8817 198.413 65.0817 196.504 65.0817C195.381 65.0817 194.257 65.2817 193.246 65.7817C193.134 65.8817 193.021 66.0817 192.909 66.0817C193.021 66.3817 193.134 66.4817 193.583 66.6817C195.493 66.0817 197.515 65.9817 199.537 66.0817C201.783 66.1817 204.143 66.2817 206.389 66.6817C207.063 66.7817 207.737 66.9817 208.411 66.5817C207.512 65.3817 205.715 64.3817 205.041 64.5817C204.367 64.6817 204.592 65.0817 204.255 65.2817ZM146.178 65.9817C145.954 65.4817 145.392 65.4817 144.943 65.3817C142.471 64.8817 140 64.9817 137.529 65.1817C136.63 65.2817 135.619 65.3817 134.72 65.2817C134.608 65.0817 134.608 64.8817 134.608 64.7817C134.608 64.6817 134.383 64.6817 134.271 64.4817C132.923 64.7817 131.575 65.2817 130.789 66.4817C131.575 66.8817 132.249 66.7817 132.923 66.5817C134.945 66.1817 136.967 66.2817 138.989 66.0817C141.236 65.8817 143.595 65.8817 145.504 66.5817C146.066 66.3817 146.178 66.2817 146.178 65.9817ZM157.299 70.2817C158.086 70.3817 159.097 70.6817 159.995 70.6817C161.568 70.6817 163.029 70.8817 163.703 72.4817C164.601 71.5817 164.601 71.5817 163.478 70.1817C163.59 69.6817 164.377 69.4817 164.264 68.7817C163.253 68.0817 162.13 67.6817 160.669 67.3817C160.22 67.6817 159.546 67.5817 159.321 68.2817C160.332 68.4817 161.231 68.3817 162.018 69.1817C160.445 69.5817 158.872 69.2817 157.524 69.2817C157.187 69.5817 157.075 69.8817 157.299 70.2817ZM155.165 68.8817C155.502 68.2817 155.951 67.7817 156.064 67.4817C157.749 66.0817 159.546 65.6817 161.343 64.9817C158.535 65.0817 156.176 66.1817 154.379 67.9817C152.918 67.5817 153.143 66.1817 152.357 65.4817C150.335 65.3817 148.874 66.2817 148.987 67.6817C150.11 67.8817 150.222 66.1817 151.57 66.5817C152.244 66.8817 151.908 67.7817 152.469 68.1817C153.256 68.7817 154.042 69.1817 155.165 68.8817ZM171.903 71.9817C174.823 72.3817 177.407 71.7817 179.541 70.0817C179.991 69.7817 180.215 69.2817 180.44 68.7817C180.552 68.1817 180.44 67.6817 179.541 67.4817C178.53 67.9817 177.07 68.0817 176.396 69.1817C177.407 69.8817 178.306 68.7817 179.429 69.1817C177.407 71.1817 174.262 70.7817 171.903 71.9817ZM165.724 70.6817C166.061 71.4817 166.848 71.6817 167.522 71.9817C168.083 71.6817 168.308 71.4817 168.083 70.9817C167.634 70.5817 167.185 70.1817 166.623 70.0817C166.174 70.0817 165.949 70.2817 165.724 70.6817ZM173.475 68.0817C174.262 67.4817 175.834 67.7817 176.284 66.4817C174.711 66.3817 174.037 67.0817 173.475 68.0817Z" fill="#747474"/>
<path d="M49.7964 57.9816C49.1224 59.9816 48.1114 61.6816 47.1004 63.3816C45.4154 63.3816 44.4044 62.3816 43.6181 60.1816C43.3934 59.7816 42.8318 60.0816 42.4948 59.8816C41.7084 58.9816 41.3714 57.7816 41.2591 56.5816C41.1468 55.4816 41.2591 54.2816 41.2591 53.2816C40.8098 53.0816 40.5851 53.4816 40.1358 53.2816C39.6864 51.8816 39.0124 50.4816 39.5741 48.8816C39.7988 48.3816 39.5741 47.8816 39.5741 47.0816C39.2371 46.8816 38.7878 46.6816 38.5631 46.5816C38.3384 44.7816 38.3384 43.2816 38.7878 42.4816C38.7878 36.4816 39.6864 31.3816 43.6181 27.0816C44.2921 26.8816 44.7414 26.8816 45.3031 27.0816C47.1004 28.8816 48.1114 31.0816 48.7854 33.4816C47.6621 35.8816 47.6621 35.8816 48.1114 37.0816C49.0101 37.0816 48.8978 35.8816 50.0211 35.8816C50.1334 35.8816 50.3581 35.9816 50.5828 36.0816C51.4814 36.9816 52.7171 37.1816 54.0651 37.1816C54.9638 37.1816 55.8624 37.0816 56.7611 37.5816C57.9968 38.7816 58.3338 40.4816 58.5584 42.0816C58.6708 43.6816 58.6708 45.2816 58.4461 46.8816C58.1091 48.9816 58.1091 51.0816 59.1201 53.0816C59.3448 53.4816 59.4571 53.7816 59.3448 54.2816C57.4351 54.8816 55.4131 54.3816 53.3911 54.6816C52.8294 55.0816 52.1554 55.4816 51.7061 55.8816C51.0321 55.9816 50.6951 55.3816 50.1334 55.3816C48.7854 56.3816 49.4594 57.1816 49.7964 57.9816Z" fill="#747474"/>
<path d="M289.178 33.6816C289.852 31.1816 290.863 29.0816 292.661 27.1816C293.11 26.9816 293.672 26.9816 294.233 27.1816C295.918 28.7816 297.042 30.6816 297.716 32.8816C297.828 33.3816 298.165 33.9816 298.39 34.4816C298.727 35.2816 298.951 36.0816 298.839 37.0816C298.727 38.1816 299.064 39.3816 299.288 40.3816C299.401 40.9816 299.176 41.3816 298.951 41.8816C299.625 43.2816 299.625 44.7816 299.401 46.6816C299.176 46.7816 298.727 46.9816 298.39 47.1816C298.502 49.3816 299.176 51.4816 297.828 53.3816C297.603 53.4816 297.379 53.0816 296.929 53.2816C297.042 55.4816 297.154 57.7816 295.694 59.8816C295.469 60.1816 295.02 59.7816 294.57 60.0816C294.233 60.6816 294.121 61.5816 293.335 62.1816C292.661 62.7816 292.324 63.6816 290.976 63.3816C289.965 61.5816 288.954 59.8816 288.28 57.8816C288.617 57.0816 289.178 56.2816 288.392 55.4816C287.606 55.0816 287.381 55.9816 286.482 55.6816C286.033 55.3816 285.471 54.9816 284.91 54.5816C283 54.3816 280.978 54.7816 278.956 54.2816C278.731 53.8816 278.844 53.4816 279.068 53.1816C280.192 50.9816 280.079 48.7816 279.742 46.4816C279.293 43.3816 279.293 40.3816 281.203 37.7816C282.101 37.0816 283 37.1816 283.899 37.1816C285.359 37.2816 286.707 37.0816 287.718 35.9816C287.83 35.8816 288.055 35.8816 288.167 35.8816C289.178 35.8816 289.066 36.9816 290.077 37.0816C290.863 35.8816 289.74 34.8816 289.178 33.6816Z" fill="#747474"/>
<path d="M246.829 25.6816C245.144 26.7816 243.908 25.2816 242.448 24.8816C242.336 24.8816 242.111 24.8816 241.999 24.9816C241.662 25.0816 241.437 25.2816 241.212 25.2816C240.875 25.6816 241.662 25.8816 241.212 26.3816C239.078 26.3816 236.944 26.3816 234.585 26.3816C233.911 26.1816 233.237 25.3816 232.226 25.5816C231.776 25.6816 231.776 26.0816 231.664 26.3816C231.439 26.3816 231.327 26.4816 231.102 26.4816C227.732 26.4816 224.362 26.4816 220.88 26.4816C219.757 26.4816 218.746 26.2816 217.735 25.8816C213.803 24.4816 209.759 23.4816 205.603 22.7816C204.142 22.5816 202.57 22.4816 200.997 22.2816C200.323 22.1816 199.537 22.2816 199.087 21.6816C200.997 19.7816 203.581 19.3816 206.277 19.4816C206.277 18.6816 205.49 18.7816 205.266 18.2816C206.164 17.0816 207.512 16.3816 208.86 15.8816C211.781 16.2816 211.781 16.2816 212.567 15.4816C212.23 14.9816 211.444 15.2816 211.107 14.6816C212.455 13.9816 213.803 13.4816 215.263 13.1816C221.554 13.9816 227.508 15.1816 233.349 17.1816C236.494 18.2816 239.64 19.3816 242.56 20.9816C244.133 21.8816 245.256 23.0816 246.38 24.2816C246.717 24.4816 246.941 24.9816 246.829 25.6816Z" fill="#747474"/>
<path d="M123.15 13.1816C124.723 13.4816 126.071 14.0816 127.419 14.5816C127.082 15.3816 126.296 15.0816 125.959 15.3816C126.633 16.3816 126.633 16.3816 129.441 15.7816C130.901 16.2816 132.137 17.0816 133.148 18.1816C133.036 18.7816 132.249 18.5816 132.137 19.2816C133.373 19.9816 134.721 19.2816 135.956 19.7816C137.192 20.1816 138.315 20.9816 139.439 21.5816C139.102 22.1816 138.54 22.2816 137.978 22.2816C131.912 22.5816 126.183 23.8816 120.567 25.8816C119.78 26.1816 118.994 26.2816 118.095 26.2816C114.388 26.2816 110.681 26.2816 107.087 26.2816C106.637 26.0816 106.862 25.5816 106.413 25.3816C105.289 25.0816 104.728 25.9816 103.829 26.1816C101.695 26.1816 99.5604 26.1816 97.4261 26.1816C96.7521 25.7816 97.5384 25.5816 97.4261 25.2816C97.0891 24.8816 96.6397 24.7816 96.1904 24.6816C92.8204 26.0816 92.8204 26.0816 91.6971 25.3816C91.5847 24.5816 92.1464 24.0816 92.7081 23.4816C94.1684 21.7816 96.0781 20.5816 98.2124 19.6816C103.717 17.2816 109.446 15.5816 115.399 14.3816C117.758 13.9816 120.342 13.5816 123.15 13.1816Z" fill="#747474"/>
<path d="M257.95 18.2817C258.175 21.0817 256.939 22.5817 254.018 23.3817C253.457 23.3817 253.569 22.7817 253.12 22.4817C251.435 22.7817 250.761 24.4817 248.739 24.6817C248.514 24.6817 248.402 24.3817 248.289 24.1817C246.829 21.9817 244.582 20.6817 242.111 19.4817C237.281 17.0817 232.113 15.6817 226.946 14.2817C224.475 13.5817 222.003 12.6817 219.42 12.3817C219.307 12.3817 219.307 12.1817 219.083 12.0817C221.554 11.1817 223.913 10.4817 226.609 11.0817C227.957 11.3817 229.417 11.4817 230.878 10.9817C230.653 10.3817 229.979 10.7817 229.867 10.2817C229.867 10.0817 230.091 9.98166 230.204 9.98166C232.563 9.78166 234.809 9.98166 237.056 10.3817C239.752 10.7817 242.448 11.1817 245.032 11.9817C248.514 12.9817 251.996 14.2817 255.254 15.8817C256.49 16.2817 257.388 17.0817 257.95 18.2817Z" fill="#747474"/>
<path d="M89.7872 24.5816C87.8775 24.4816 86.9788 22.7816 85.5185 22.3816C84.8445 22.4816 85.0691 23.1816 84.5075 23.1816C81.6992 22.7816 80.2388 20.9816 80.4635 18.1816C81.1375 16.6816 82.5978 15.7816 84.0581 15.0816C89.1131 12.7816 94.3928 10.9816 100.122 10.2816C102.481 9.98164 104.84 9.48164 107.311 9.58164C107.76 9.58164 108.21 9.48164 108.547 9.88164C108.547 10.4816 107.76 10.1816 107.536 10.5816C108.771 11.2816 110.119 11.1816 111.355 10.8816C114.163 10.1816 116.747 10.8816 119.331 11.7816C119.218 12.2816 118.881 12.2816 118.432 12.3816C112.029 13.7816 105.738 15.4816 99.7848 17.7816C95.7408 19.3816 91.9215 21.0816 89.7872 24.5816Z" fill="#747474"/>
<path d="M38.226 20.6817C39.574 20.7817 41.1467 20.1817 42.4947 21.2817C43.5057 21.2817 44.1797 20.5817 45.303 20.3817C47.1004 20.7817 49.1224 21.1817 50.8074 22.2817C50.4704 23.1817 49.7964 23.3817 48.8977 23.3817C43.7304 23.6817 38.9 24.7817 33.9574 25.9817C33.171 26.0817 32.497 26.2817 32.16 27.0817C32.2724 27.9817 31.3737 29.0817 32.497 30.3817C28.3407 31.4817 24.2967 32.4817 20.4774 33.9817C16.658 35.3817 13.0634 37.1817 9.4687 38.9817C9.01936 38.3817 9.1317 37.8817 9.24403 37.3817C9.8057 36.9817 10.3674 36.4817 10.8167 36.1817C11.8277 33.6817 12.5017 31.2817 14.5237 29.8817C15.647 29.3817 16.321 29.9817 16.995 29.8817C17.669 28.9817 16.5457 28.7817 16.321 28.1817C17.2197 27.2817 17.332 27.1817 18.9047 26.3817C19.5787 26.1817 19.9157 26.9817 20.4774 26.7817C21.4884 26.2817 20.5897 25.7817 20.5897 25.2817C22.724 23.8817 23.061 23.8817 24.8584 24.6817C25.757 24.3817 25.42 23.6817 25.5324 22.9817C26.768 22.5817 28.0037 21.9817 29.127 22.0817C29.9134 22.1817 30.0257 22.6817 30.475 22.8817C31.149 22.6817 30.812 21.9817 31.2614 21.5817C32.6094 21.2817 34.0697 20.8817 35.53 21.0817C36.0917 21.1817 35.867 21.7817 36.4287 21.9817C36.9904 21.7817 37.3274 21.0817 38.226 20.6817Z" fill="#747474"/>
<path d="M327.484 36.1816C327.821 36.4816 328.383 36.8816 328.945 37.2816C329.169 37.7816 329.169 38.2816 328.945 38.6816C328.72 38.8816 328.608 38.8816 328.383 38.7816C326.136 37.7816 324.002 36.6816 321.755 35.6816C317.15 33.5816 312.319 32.0816 307.264 30.8816C306.815 30.7816 306.253 30.7816 305.804 30.2816C306.478 29.2816 306.029 28.1816 305.916 27.0816C305.579 26.2816 304.905 26.0816 304.119 25.8816C299.176 24.6816 294.234 23.5816 289.179 23.2816C288.392 23.2816 287.718 23.0816 287.269 22.1816C288.842 20.9816 290.864 20.5816 292.886 20.1816C293.672 20.4816 294.571 20.8816 295.357 21.0816C296.031 21.0816 296.143 20.5816 296.593 20.4816C297.716 20.4816 298.839 20.4816 299.963 20.4816C300.524 20.8816 301.086 21.2816 301.535 21.6816C302.322 21.7816 302.097 21.0816 302.659 20.8816C304.007 20.4816 305.467 21.0816 306.815 21.2816C307.377 21.5816 307.04 22.2816 307.601 22.6816C308.163 22.7816 308.051 22.0816 308.612 21.9816C310.073 21.8816 310.073 21.8816 312.656 22.7816C312.993 23.2816 312.432 24.0816 313.443 24.4816C315.015 23.2816 316.363 24.0816 317.711 25.0816C317.711 25.5816 316.925 25.9816 317.711 26.5816C318.273 26.8816 318.61 26.0816 319.284 26.1816C320.295 26.4816 321.081 27.1816 321.98 27.6816C321.98 28.4816 320.632 28.6816 321.194 29.5816C321.531 29.8816 321.868 29.6816 322.317 29.5816C322.654 29.4816 322.991 29.4816 323.328 29.4816C325.687 31.0816 326.361 33.4816 327.484 36.1816Z" fill="#747474"/>
<path d="M71.8137 15.6817C71.8137 15.9817 71.926 16.3817 71.926 16.6817C71.926 19.0817 73.274 20.8817 75.296 22.2817C76.4193 23.0817 77.5427 23.7817 78.7783 24.3817C79.34 24.6817 79.7893 25.0817 80.2387 25.4817C80.9127 27.2817 79.34 27.7817 78.1043 28.3817C77.4303 29.1817 76.8687 29.9817 76.981 31.0817C76.981 32.1817 76.1947 32.7817 75.5207 33.5817C73.611 32.9817 72.1507 31.4817 70.0163 31.5817C68.7807 32.4817 68.1067 33.6817 66.9833 34.6817C64.3997 35.7817 62.9393 33.8817 61.142 32.9817C60.6927 31.0817 61.0297 29.2817 61.9283 27.6817C62.6023 26.3817 63.164 25.0817 62.6023 23.5817C62.3777 23.0817 62.6023 22.5817 62.6023 21.9817C63.7257 20.4817 64.849 18.9817 66.197 17.4817C67.208 16.2817 68.7807 15.6817 70.3533 15.1817C70.6903 14.8817 71.252 15.0817 71.8137 15.6817Z" fill="#747474"/>
<path d="M277.496 32.8816C275.587 33.7816 274.126 35.6817 271.43 34.6817C270.532 33.7817 269.521 32.6817 268.622 31.6817C266.375 31.3817 264.915 33.0816 263.005 33.5816C262.219 32.6817 261.433 31.8817 261.545 30.6817C261.545 29.8816 260.983 29.1816 260.646 28.4816C259.523 27.6816 257.726 27.3816 258.287 25.5816C258.737 24.9816 259.411 24.5816 260.085 24.1817C261.545 23.3816 263.005 22.5816 264.241 21.4816C265.701 20.1817 266.712 18.5817 266.6 16.6817C266.6 16.3817 266.712 15.9816 266.712 15.7816C267.274 14.9816 268.06 14.9816 268.847 15.2816C270.532 15.8816 272.104 16.5816 273.115 17.9816C274.126 19.2816 275.137 20.5816 276.148 21.7817C276.373 22.5817 276.373 23.1816 276.148 23.8816C275.699 25.0816 276.036 26.0816 276.598 27.1817C277.496 28.8816 277.833 30.7816 277.496 32.8816Z" fill="#747474"/>
<path d="M59.1199 37.0816C58.6706 36.6816 58.2213 36.3816 57.8843 35.9816C58.3336 34.6816 58.8953 34.3816 60.1309 34.7816C60.9173 35.0816 61.5913 35.3816 62.2653 35.9816C62.7146 36.3816 63.2763 36.8816 63.8379 37.2816C64.6243 37.2816 65.4106 37.2816 66.0846 37.2816C67.0956 37.6816 67.6573 38.3816 67.9943 39.0816C70.3533 43.1816 71.8136 47.4816 72.7123 51.9816C72.8246 52.7816 72.9369 53.6816 72.5999 54.5816C70.9149 54.9816 69.3423 54.5816 67.6573 54.7816C66.6463 55.1816 66.1969 56.2816 64.9613 56.7816C64.2873 56.5816 63.5009 56.4816 62.7146 56.2816C61.0296 54.3816 60.2433 52.1816 60.0186 49.7816C59.9063 47.2816 60.1309 44.6816 60.0186 42.0816C59.9063 40.3816 59.7939 38.6816 59.1199 37.0816Z" fill="#747474"/>
<path d="M275.362 56.2816C274.463 56.4816 273.789 56.6816 273.115 56.7816C272.104 56.3816 271.543 55.4816 270.532 54.8816C268.959 54.5816 267.162 54.9816 265.589 54.6816C264.69 51.0816 268.622 39.9816 271.655 37.5816C272.441 37.2816 273.452 37.5816 274.351 37.3816C275.474 36.5816 276.261 35.4816 277.721 34.9816C279.069 34.4816 279.406 34.5816 280.305 35.9816C277.833 37.3816 278.283 39.7816 278.058 41.9816C277.833 44.5816 278.058 47.1816 277.946 49.7816C277.946 52.0816 277.047 54.2816 275.362 56.2816Z" fill="#747474"/>
<path d="M70.5783 33.1816C72.7126 34.2816 74.1729 35.7816 75.9703 37.0816C77.0936 36.2816 77.4306 34.7816 79.0033 34.3816C79.9019 34.1816 80.8006 34.1816 81.5869 34.2816C82.0363 35.5816 82.2609 50.2816 81.8116 54.6816C81.4746 55.4816 80.4636 55.7816 79.7896 56.1816C79.4526 57.0816 78.6663 57.7816 77.7676 58.3816C76.5319 57.6816 75.7456 56.6816 74.8469 55.8816C73.8359 49.9816 72.2633 44.3816 70.0166 38.8816C69.9043 38.6816 69.7919 38.4816 69.6796 38.2816C68.1069 36.3816 69.3426 34.8816 70.5783 33.1816ZM79.1156 46.2816C77.8799 46.8816 77.8799 46.8816 77.4306 47.9816C77.6553 48.9816 78.4416 49.4816 79.5649 49.5816C80.4636 49.2816 80.9129 48.6816 81.0253 47.9816C80.8006 46.9816 80.2389 46.4816 79.1156 46.2816ZM79.2279 41.9816C80.3513 41.7816 80.9129 41.1816 81.0253 40.2816C80.8006 39.3816 80.1266 38.8816 79.2279 38.7816C78.2169 38.9816 77.5429 39.5816 77.4306 40.4816C77.6553 41.2816 78.2169 41.7816 79.2279 41.9816Z" fill="#747474"/>
<path d="M256.152 34.3816C257.5 34.1816 258.624 34.0816 259.747 34.6816C260.758 35.2816 260.983 36.3816 261.994 37.0816C263.791 35.7816 265.251 34.2816 267.161 33.2816C269.071 34.6816 269.408 36.1816 268.509 37.9816C266.712 41.7816 265.476 45.6816 264.577 49.6816C264.128 51.6816 263.566 53.6816 263.342 55.7816C262.555 56.7816 261.544 57.4816 260.533 58.4816C259.41 57.8816 258.624 57.1816 258.287 56.1816C257.613 55.7816 256.714 55.4816 256.265 54.6816C256.152 48.0816 256.152 41.2816 256.152 34.3816ZM258.511 49.5816C259.747 49.4816 260.421 48.9816 260.646 47.8816C260.421 46.9816 259.859 46.3816 258.736 46.2816C257.725 46.4816 257.163 46.9816 257.051 47.8816C257.163 48.6816 257.613 49.1816 258.511 49.5816ZM258.736 38.7816C257.5 39.3816 257.5 39.3816 256.939 40.4816C257.163 41.3816 257.725 41.9816 258.848 42.0816C259.859 41.8816 260.421 41.3816 260.533 40.4816C260.421 39.4816 259.859 38.9816 258.736 38.7816Z" fill="#747474"/>
<path d="M33.2832 65.9817C33.5079 65.5817 33.7325 65.2816 34.0695 65.1816C35.3052 64.6816 41.0342 63.3816 42.3822 63.3816C44.9659 64.7816 44.9659 64.7816 47.4372 64.5816C49.6839 63.3816 50.8072 61.2816 51.9305 59.2816C52.4922 58.2816 53.1662 57.3816 54.0649 56.4816C55.6375 56.4816 56.9855 57.0816 58.3335 57.3816C59.6815 57.6816 61.0295 57.8816 62.4899 58.0816C64.0625 58.2816 65.6352 58.0816 67.2079 57.4816C68.1065 57.0816 69.0052 56.8816 69.9039 56.5816C70.4655 56.3816 71.1395 56.1816 71.7012 56.5816C72.0382 57.0816 71.9259 57.5816 71.7012 58.0816C69.7915 59.4816 67.7695 60.7816 65.5229 61.6816C64.9612 61.8816 64.5119 62.0816 63.9502 62.1816C62.3775 62.5816 60.9172 63.0816 59.6815 64.2817C58.3335 65.4817 56.3115 66.2816 54.2895 66.2816C51.5935 66.2816 49.0099 66.8817 46.4262 67.4817C42.9439 68.3817 39.3492 68.1816 35.8669 67.5816C34.7435 67.3816 33.5079 67.2817 33.2832 65.9817Z" fill="#747474"/>
<path d="M290.751 64.4817C293.11 64.9817 294.571 64.2817 296.031 63.2817C298.839 63.5817 301.535 64.4817 304.344 65.1817C304.681 65.2817 305.018 65.5817 305.13 65.8817C305.13 66.6817 304.568 67.0817 303.782 67.2817C302.546 67.6817 301.311 67.8817 300.075 67.9817C296.705 68.1817 293.447 68.0817 290.302 67.0817C288.617 66.4817 286.82 66.3817 285.022 66.2817C282.439 66.1817 280.08 65.4817 278.17 63.6817C277.496 63.0817 276.71 62.7817 275.811 62.5817C272.216 61.8817 269.408 60.0817 266.712 58.1817C266.375 57.6817 266.263 57.1817 266.712 56.6817C266.824 56.6817 267.049 56.5817 267.161 56.4817C268.285 56.3817 269.296 56.7817 270.307 57.2817C273.452 58.7817 276.597 58.2817 279.855 57.4817C281.315 57.1817 282.663 56.7817 284.011 56.3817C285.247 57.0817 285.809 58.1817 286.483 59.2817C287.606 61.2817 288.617 63.3817 290.751 64.4817Z" fill="#747474"/>
<path d="M98.3245 9.38165C97.7628 9.78165 97.0888 9.88165 96.4148 10.0816C91.9215 10.9816 87.5405 12.1817 83.4965 14.1817C81.4745 15.1817 79.5648 16.3816 78.5538 18.2816C78.3291 19.4816 78.4415 20.7816 79.1155 21.9816C77.4305 21.8816 76.6441 20.9816 75.8578 20.0816C74.8468 18.6817 74.3975 17.1817 74.6221 15.5816C74.7345 14.1816 75.8578 13.3816 77.0935 12.7816C80.1265 11.1816 83.4965 10.2816 86.9788 9.68165C90.2365 9.08165 93.4941 9.08165 96.8641 9.08165C97.3135 8.98165 97.8751 8.88165 98.3245 9.38165Z" fill="#747474"/>
<path d="M259.298 22.0817C260.084 20.6817 260.196 19.4817 259.859 18.1817C258.736 16.3817 256.939 15.1817 254.917 14.1817C250.873 12.2817 246.604 11.0817 242.223 10.1817C241.549 10.0817 240.875 9.98165 240.313 9.58165C240.313 9.08165 240.875 9.18165 241.212 9.08165C246.716 8.78165 251.996 9.38165 257.163 10.9817C258.736 11.4817 260.309 12.1817 261.769 12.9817C263.229 13.7817 264.016 14.9817 263.903 16.6817C263.566 19.2817 262.218 21.1817 259.298 22.0817Z" fill="#747474"/>
<path d="M214.814 26.2816C207.063 26.2816 199.537 26.2816 191.673 26.2816C192.572 25.2816 193.808 24.8816 194.706 24.1816C196.054 23.1816 197.627 22.7816 199.537 22.8816C204.367 23.2816 209.085 24.0816 213.691 25.3816C214.14 25.6816 214.589 25.6816 214.814 26.2816Z" fill="#747474"/>
<path d="M123.599 26.2816C123.824 25.6816 124.385 25.5816 124.835 25.4816C129.665 24.1816 134.608 23.1816 139.663 22.9816C140.898 22.8816 142.022 23.0816 143.033 23.8816C144.156 24.6816 145.504 25.1816 146.74 26.2816C138.876 26.2816 131.238 26.2816 123.599 26.2816Z" fill="#747474"/>
<path d="M173.925 63.4817C172.465 64.5817 171.117 65.6817 169.656 66.7817C168.084 65.6817 166.511 64.5817 164.938 63.4817C166.736 63.1817 172.015 63.1817 173.925 63.4817Z" fill="#747474"/>
<path d="M245.593 58.4816H92.8198L92.7075 58.1816C91.8088 55.8816 89.7868 53.9816 87.3155 52.9816L86.9785 52.8816V36.9816L87.3155 36.8816C89.7868 35.8816 91.8088 33.9816 92.7075 31.6816L92.8198 31.2816H245.593L245.706 31.6816C246.604 33.9816 248.626 35.8816 251.098 36.8816L251.435 36.9816V52.8816L251.098 52.9816C248.626 53.9816 246.604 55.8816 245.706 58.1816L245.593 58.4816ZM93.6062 57.4816H244.807C245.818 55.1816 247.84 53.1816 250.311 52.1816V37.5816C247.728 36.4816 245.818 34.5816 244.807 32.2816H93.6062C92.5952 34.5816 90.5732 36.5816 88.1018 37.5816V52.1816C90.5732 53.2816 92.5952 55.1816 93.6062 57.4816Z" fill="#747474"/>
</svg>
