<svg width="338" height="90" viewBox="0 0 338 90" fill="none" xmlns="http://www.w3.org/2000/svg">
<g clip-path="url(#clip0_446_4122)">
<path d="M257.672 62.8659H81.0788L80.8914 62.0447C80.8914 61.8292 79.6423 57.0973 74.4212 55.7938L73.5469 55.5782V34.5262L74.4212 34.3107C79.7423 32.9968 80.8789 28.1521 80.8914 28.07L81.0788 27.2488H257.672L257.86 28.07C257.86 28.2753 259.046 33.0071 264.33 34.3107L265.204 34.5262V55.5782L264.33 55.7938C259.009 57.1076 257.872 61.9524 257.86 62.0345L257.672 62.8659ZM83.0398 60.813H255.711C256.197 59.3289 257.082 57.9533 258.302 56.7879C259.521 55.6225 261.043 54.697 262.756 54.0797V35.9837C261.043 35.3664 259.521 34.4409 258.302 33.2755C257.082 32.1101 256.197 30.7345 255.711 29.2504H83.0398C82.5539 30.7345 81.6687 32.1101 80.4494 33.2755C79.2301 34.4409 77.7078 35.3664 75.9951 35.9837V54.1207C77.7078 54.738 79.2301 55.6636 80.4494 56.829C81.6687 57.9944 82.5539 59.3699 83.0398 60.8541V60.813Z" fill="#747474"/>
<path d="M254.312 59.0168H84.4385L84.3136 58.6575C83.8064 57.482 83.0149 56.4031 81.9866 55.4858C80.9583 54.5685 79.7146 53.8318 78.3306 53.3201L77.9434 53.1867V36.9178L78.3306 36.7946C79.7146 36.2829 80.9583 35.5462 81.9866 34.6289C83.0149 33.7116 83.8064 32.6327 84.3136 31.4572L84.4385 31.0979H254.312L254.437 31.4572C254.944 32.6327 255.736 33.7116 256.764 34.6289C257.792 35.5462 259.036 36.2829 260.42 36.7946L260.807 36.9178V53.1867L260.42 53.3201C259.033 53.8282 257.787 54.5637 256.758 55.4815C255.73 56.3993 254.94 57.48 254.437 58.6575L254.312 59.0168ZM85.2754 57.9903H253.45C254.568 55.58 256.773 53.6167 259.608 52.5092V37.585C256.772 36.4742 254.566 34.5072 253.45 32.0936H85.3004C84.1846 34.5072 81.9788 36.4742 79.1425 37.585V52.5297C81.9772 53.6372 84.183 55.6005 85.3004 58.0109L85.2754 57.9903Z" fill="#747474"/>
<path d="M223.086 64.4876H200.602C200.602 64.4876 192.259 69.6198 181.054 64.4876H171.199C171.199 64.4876 174.946 71.0157 176.283 73.1917C176.283 73.1917 177.007 72.3809 177.37 72.4219C177.732 72.463 181.117 76.5995 181.879 76.8561C181.879 76.8561 182.766 75.7475 182.915 76.0452C182.915 76.0452 188.574 81.0336 191.109 81.67C191.109 81.67 191.109 80.8591 191.634 80.6436C191.634 80.6436 197.03 82.4809 198.941 81.9677C198.941 81.9677 195.194 78.6831 197.854 75.8091C200.515 72.9351 204.749 71.1594 208.959 72.1858C213.168 73.2123 214.455 74.5671 214.917 76.6611C214.917 76.6611 218.864 74.6082 221.299 76.1478C223.735 77.6875 221.974 82.1524 216.528 83.9897C216.528 83.9897 227.832 83.9076 231.255 75.7783C231.192 75.7886 224.397 70.2459 223.086 64.4876ZM217.902 70.9746C215.878 71.3134 212.906 69.2195 211.469 68.1622C211.469 68.1622 193.22 74.639 187.3 71.4365C191.721 71.6051 196.141 71.0862 200.328 69.9072C206.573 67.9877 211.732 66.4481 211.732 66.4481C211.732 66.4481 216.191 69.9893 217.752 69.9893C219.313 69.9893 221.499 68.1622 221.499 68.1622C221.499 68.1622 219.938 70.6257 217.914 70.9746H217.902Z" fill="#747474"/>
<path d="M227.195 64.4876C227.195 64.4876 229.481 76.5071 241.46 76.8047C253.438 77.1024 253.801 64.4876 253.801 64.4876H227.195Z" fill="#747474"/>
<path d="M268.589 40.4179C268.589 40.4179 277.096 46.5765 283.104 44.9547C289.112 43.333 289.849 32.3194 282.179 26.8588C282.179 26.8588 285.177 30.2665 283.428 31.9909C282.791 32.4809 282.266 33.0617 281.879 33.7051C280.703 33.1107 279.36 32.7749 277.98 32.7299C276.599 32.685 275.228 32.9324 273.998 33.4485C273.998 33.4485 272.437 32.5041 273.885 32.1654C273.885 32.1654 271.712 28.9219 262.644 29.8662C262.644 29.8662 261.395 28.8398 265.142 28.9219C265.142 28.9219 265.142 28.07 261.919 26.8691C261.919 26.8691 259.646 32.3297 268.452 33.2637L268.589 40.4179Z" fill="#747474"/>
<path d="M286.788 46.3814C286.788 46.3814 297.468 46.8947 299.966 40.2229C302.464 33.5511 298.405 24.8778 285.852 19.1709C273.298 13.4639 252.252 11.1545 238.387 14.6546C238.387 14.6546 236.626 16.7074 239.424 15.9273C242.222 15.1473 255.924 15.332 262.357 17.2104C268.789 19.0887 281.018 21.9627 287.763 29.6815H289.012L288.649 31.0158L290.048 34.0438C290.048 34.0438 291.447 33.4485 291.597 33.0174C291.532 34.2241 291.171 35.4076 290.536 36.497C290.536 36.497 292.509 36.1069 292.821 35.7271C292.325 36.5318 291.675 37.2663 290.898 37.9032C290.876 39.5069 290.667 41.1052 290.273 42.676C289.799 43.9078 286.788 46.3814 286.788 46.3814Z" fill="#747474"/>
<path d="M337.251 22.4554C337.251 22.4554 330.406 38.0366 310.695 44.616C290.985 51.1954 285.939 49.1117 280.555 48.8243C280.555 48.8243 277.295 53.3714 272.461 55.0753L267.615 56.7792C267.615 56.7792 261.532 57.4874 260.708 64.4876H256.348C256.348 64.4876 255.936 71.6726 252.451 74.4234C252.451 74.4234 268.539 79.5556 277.97 74.4234C277.97 74.4234 271.025 75.0188 268.277 73.0994C265.529 71.1799 265.991 69.0963 268.277 67.5156C270.563 65.9349 278.02 68.7986 278.02 68.7986C278.02 68.7986 278.494 63.0814 286.526 60.9157C294.557 58.7499 302.189 60.7001 300.79 65.2164L310.383 59.5916C310.383 59.5916 312.881 58.1443 311.894 61.9421C311.894 61.9421 315.055 60.618 319.002 56.2249C322.949 51.8318 322.936 54.48 322.936 54.48C323.104 55.2126 323.104 55.9644 322.936 56.697C322.936 56.697 341.96 45.7553 337.251 22.4554ZM285.801 56.5123C285.801 56.5123 280.305 62.1371 277.408 63.2457C274.51 64.3542 264.442 59.5916 264.442 59.5916C267.865 59.335 273.361 62.3219 276.159 61.6444C278.956 60.967 284.565 54.3978 284.565 54.3978C317.44 51.5752 331.755 37.2565 331.755 37.2565C318.889 52.6837 285.801 56.5123 285.801 56.5123Z" fill="#747474"/>
<path d="M235.239 25.8426C235.239 25.8426 247.73 20.5976 253.338 24.1798C253.338 24.1798 249.241 25.1549 248.829 25.8426H235.239Z" fill="#747474"/>
<path d="M241.31 22.4554C238.3 22.8047 235.532 24.002 233.478 25.8426H226.683C226.683 25.8426 230.768 22.1578 234.715 21.5727C239.074 20.9363 241.31 22.4554 241.31 22.4554Z" fill="#747474"/>
<path d="M225.484 25.8426C225.484 25.8426 227.308 22.7633 228.494 22.4554C228.494 22.4554 224.56 22.0038 220.875 25.8426H225.484Z" fill="#747474"/>
<path d="M221.837 23.1945C221.837 23.1945 219.863 24.9907 219.813 25.8426H215.766C215.766 25.8426 219.576 22.5581 221.837 23.1945Z" fill="#747474"/>
<path d="M214.542 25.8426L215.429 24.3851C215.429 24.3851 212.831 24.3851 212.369 25.8426H214.542Z" fill="#747474"/>
<path d="M108.046 75.7886C111.469 83.8871 122.773 84 122.773 84C117.327 82.1627 115.566 77.6464 118.001 76.1581C120.437 74.6698 124.384 76.6713 124.384 76.6713C124.846 74.6185 126.145 73.2225 130.342 72.1961C134.539 71.1697 138.798 72.9659 141.447 75.8194C144.095 78.6729 140.347 81.9779 140.347 81.9779C142.271 82.4912 147.667 80.6539 147.667 80.6539C148.179 80.9105 148.179 81.6803 148.179 81.6803C150.677 81.0439 156.373 76.0555 156.373 76.0555C156.535 75.7578 157.41 76.8663 157.41 76.8663C158.247 76.6097 161.569 72.4732 161.931 72.4322C162.293 72.3911 163.018 73.202 163.018 73.202C164.379 71.0157 168.127 64.4876 168.127 64.4876H158.272C147.03 69.6198 138.711 64.4876 138.711 64.4876H116.128C114.841 70.2459 108.046 75.7886 108.046 75.7886ZM117.689 68.1622C117.689 68.1622 119.913 69.9893 121.436 69.9893C122.96 69.9893 127.457 66.4481 127.457 66.4481C127.457 66.4481 132.641 67.9877 138.861 69.9072C143.047 71.0876 147.468 71.6065 151.889 71.4365C145.981 74.639 127.719 68.1622 127.719 68.1622C126.32 69.1887 123.31 71.3134 121.299 70.9746C119.288 70.6359 117.689 68.1622 117.689 68.1622Z" fill="#747474"/>
<path d="M112.031 64.4876C112.031 64.4876 109.758 76.5071 97.7666 76.8047C85.7755 77.1024 85.4258 64.4876 85.4258 64.4876H112.031Z" fill="#747474"/>
<path d="M70.6991 40.4179C70.6991 40.4179 62.193 46.5765 56.1725 44.9547C50.1519 43.333 49.44 32.3194 57.1093 26.8588C57.1093 26.8588 54.099 30.2665 55.8602 31.9909C56.4984 32.483 57.0269 33.0632 57.4215 33.7051C58.5983 33.1107 59.9413 32.7749 61.3215 32.7299C62.7017 32.685 64.0729 32.9324 65.3032 33.4485C65.3032 33.4485 66.8645 32.5041 65.4031 32.1654C65.4031 32.1654 67.589 28.9219 76.6447 29.8662C76.6447 29.8662 77.8938 28.8398 74.1466 28.9219C74.1466 28.9219 74.1466 28.07 77.3567 26.8691C77.3567 26.8691 79.6425 32.3297 70.8241 33.2637L70.6991 40.4179Z" fill="#747474"/>
<path d="M52.5 46.3814C52.5 46.3814 41.808 46.8947 39.3224 40.2229C36.8367 33.5511 40.8837 24.8983 53.4244 19.1914C65.965 13.4844 87.0368 11.175 100.889 14.6751C100.889 14.6751 102.663 16.728 99.8523 15.9479C97.0419 15.1678 83.3646 15.3525 76.9319 17.2309C70.4991 19.1093 58.2083 21.9833 51.4633 29.702H50.2142L50.5765 31.0364L49.1775 34.0643C49.1775 34.0643 47.7786 33.469 47.6162 33.0379C47.6926 34.2522 48.062 35.442 48.7029 36.538C48.7029 36.538 46.7418 36.148 46.4296 35.7682C46.9207 36.5729 47.5659 37.3076 48.3406 37.9442C48.3684 39.5476 48.5775 41.1455 48.9652 42.7171C49.4648 43.9078 52.5 46.3814 52.5 46.3814Z" fill="#747474"/>
<path d="M16.302 56.7381C16.1345 56.0055 16.1345 55.2536 16.302 54.521C16.302 54.521 16.302 51.8728 20.2366 56.2659C24.1712 60.6591 27.3438 61.9832 27.3438 61.9832C26.407 58.1854 28.8427 59.6326 28.8427 59.6326L38.498 65.2164C37.099 60.7001 44.7433 58.7396 52.7499 60.9157C60.7564 63.0917 61.256 68.8294 61.256 68.8294C61.256 68.8294 68.7505 65.976 71.0113 67.5464C73.2721 69.1168 73.7093 71.2107 71.0113 73.1302C68.3133 75.0496 61.306 74.4542 61.306 74.4542C70.749 79.5864 86.8245 74.4542 86.8245 74.4542C83.3521 71.6829 82.9399 64.5184 82.9399 64.5184H78.5307C77.7063 57.5182 71.6108 56.81 71.6108 56.81L66.7769 55.0753C61.9305 53.3714 58.683 48.8243 58.683 48.8243C53.287 49.1117 48.2407 51.2057 28.5304 44.616C8.82008 38.0263 2.00016 22.4554 2.00016 22.4554C-2.72133 45.7553 16.302 56.7381 16.302 56.7381ZM7.48357 37.236C7.48357 37.236 21.7979 51.606 54.6734 54.3671C54.6734 54.3671 60.2818 60.9362 63.0797 61.6136C65.8776 62.2911 71.3735 59.3144 74.796 59.5608C74.796 59.5608 64.8034 64.3337 61.8306 63.2251C58.8578 62.1166 53.4244 56.5123 53.4244 56.5123C53.4244 56.5123 20.3365 52.6837 7.48357 37.2565V37.236Z" fill="#747474"/>
<path d="M103.999 25.8426C103.999 25.8426 91.4962 20.5873 85.9004 24.1798C85.9004 24.1798 89.9973 25.1549 90.4095 25.8426H103.999Z" fill="#747474"/>
<path d="M97.9287 22.4554C100.938 22.8047 103.706 24.002 105.76 25.8426H112.555C112.555 25.8426 108.471 22.1578 104.511 21.5727C100.152 20.9363 97.9287 22.4554 97.9287 22.4554Z" fill="#747474"/>
<path d="M113.742 25.8426C113.742 25.8426 111.931 22.7633 110.745 22.4554C110.745 22.4554 114.679 22.0038 118.364 25.8426H113.742Z" fill="#747474"/>
<path d="M117.427 23.1945C117.427 23.1945 119.413 24.9907 119.413 25.8426H123.46C123.46 25.8426 119.663 22.5581 117.427 23.1945Z" fill="#747474"/>
<path d="M124.684 25.8426L123.81 24.3851C123.81 24.3851 126.395 24.3851 126.87 25.8426H124.684Z" fill="#747474"/>
</g>
<defs>
<clipPath id="clip0_446_4122">
<rect width="336.753" height="71" fill="white" transform="translate(1.24707 13)"/>
</clipPath>
</defs>
</svg>
