<svg width="280" height="90" viewBox="0 0 280 90" fill="none" xmlns="http://www.w3.org/2000/svg">
<path d="M61.491 52.16V39.38C60.9454 38.4322 60.1588 37.6456 59.211 37.1C57.901 36.53 53.591 30.34 53.911 28.3C54.231 26.26 54.571 26.1 54.911 25.86C55.251 25.62 55.611 23.86 53.911 24.31C52.211 24.76 49.611 29.69 50.421 32.86C45.3111 30.6905 39.6951 29.9975 34.211 30.86C25.581 32.4 16.791 34.44 15.211 34.52C13.631 34.6 8.77103 34.77 9.43103 31.91C10.091 29.05 13.911 24.18 15.621 22.79C18.114 21.1364 20.7017 19.6305 23.371 18.28C23.371 18.28 25.081 16.66 22.881 16.82C20.681 16.98 10.671 20.16 7.33103 24.56C3.99103 28.96 1.33103 33.56 2.85103 37.5C4.37103 41.44 8.85103 42.15 10.261 41.98C11.671 41.81 12.621 41.85 11.481 43.18C10.341 44.51 9.20103 45.81 10.101 46.06C11.001 46.31 13.761 44.54 15.231 43.18C16.701 41.82 19.871 39.18 23.781 38.97C27.691 38.76 32.331 38.4 33.781 38.24C35.231 38.08 37.361 38.97 38.991 38.89C40.621 38.81 42.901 40.03 43.991 40.03C45.081 40.03 53.521 42.64 54.411 44.51C55.301 46.38 54.661 46.87 56.201 46.71C57.741 46.55 58.201 48.58 58.201 48.58C58.201 48.58 58.521 49.64 59.341 49.88C60.161 50.12 60.101 52.73 61.491 52.16Z" fill="#747474"/>
<path d="M36.7308 28.55C36.7308 28.55 44.7908 30.01 47.3208 30.91C49.8508 31.81 45.6908 29.91 44.3908 28.55C43.0908 27.19 38.7708 21.46 39.0108 18.85C39.2508 16.24 40.3908 13.32 41.0108 12.91C41.6308 12.5 43.0108 11.28 42.0108 10.91C41.0108 10.54 39.5708 11.16 38.9208 10.91C38.2708 10.66 35.5008 13.98 35.0108 16.85C34.5208 19.72 33.9508 16.37 33.4608 16.29C32.9708 16.21 31.3408 20.29 33.4608 24.43C35.5808 28.57 35.9108 28.39 36.7308 28.55Z" fill="#747474"/>
<path d="M36.4007 29.36C36.4007 29.36 25.4907 26.59 23.8607 26.1C22.2307 25.61 17.5107 23.99 17.0207 23.41C16.5307 22.83 12.7007 27.57 12.6207 28.3C12.5407 29.03 20.2807 32.53 22.8007 32.3C24.5107 32.13 31.8607 29.35 36.4007 29.36Z" fill="#747474"/>
<path d="M12.1309 19.34C12.1309 19.34 6.68093 23.28 5.86093 24.96C5.04093 26.64 -0.0790725 19.83 0.000927447 17.63C0.0809274 15.43 0.160928 12.63 1.46093 13.56C1.83153 14.6822 2.29999 15.7698 2.86093 16.81C3.43093 17.63 4.57093 19.59 6.08093 19.67C6.08093 19.67 5.14093 10.06 12.6309 9C12.6309 9 14.9909 9 12.6309 10.74C10.2709 12.48 10.7509 17.96 12.1309 19.34Z" fill="#747474"/>
<path d="M218.231 52.16V39.38C218.777 38.4322 219.563 37.6456 220.511 37.1C221.821 36.53 226.131 30.34 225.811 28.3C225.491 26.26 225.151 26.1 224.811 25.86C224.471 25.62 224.111 23.86 225.811 24.31C227.511 24.76 230.111 29.69 229.301 32.86C234.411 30.6905 240.027 29.9975 245.511 30.86C254.141 32.4 262.931 34.44 264.511 34.52C266.091 34.6 270.951 34.77 270.291 31.91C269.631 29.05 265.811 24.18 264.101 22.79C261.608 21.1364 259.02 19.6305 256.351 18.28C256.351 18.28 254.641 16.66 256.841 16.82C259.041 16.98 269.051 20.16 272.391 24.56C275.731 28.96 278.391 33.56 276.871 37.5C275.351 41.44 270.871 42.15 269.461 41.98C268.051 41.81 267.101 41.85 268.241 43.18C269.381 44.51 270.521 45.81 269.621 46.06C268.721 46.31 265.961 44.54 264.491 43.18C263.021 41.82 259.851 39.18 255.941 38.97C252.031 38.76 247.391 38.4 245.941 38.24C244.491 38.08 242.361 38.97 240.731 38.89C239.101 38.81 236.821 40.03 235.731 40.03C234.641 40.03 226.201 42.64 225.311 44.51C224.421 46.38 225.061 46.87 223.521 46.71C221.981 46.55 221.521 48.58 221.521 48.58C221.521 48.58 221.201 49.64 220.381 49.88C219.561 50.12 219.621 52.73 218.231 52.16Z" fill="#747474"/>
<path d="M242.991 28.55C242.991 28.55 234.931 30.01 232.401 30.91C229.871 31.81 234.031 29.91 235.331 28.55C236.631 27.19 240.951 21.46 240.711 18.85C240.471 16.24 239.331 13.32 238.711 12.91C238.091 12.5 236.761 11.28 237.711 10.91C238.661 10.54 240.151 11.16 240.801 10.91C241.451 10.66 244.221 13.98 244.711 16.85C245.201 19.72 245.771 16.37 246.261 16.29C246.751 16.21 248.381 20.29 246.261 24.43C244.141 28.57 243.861 28.39 242.991 28.55Z" fill="#747474"/>
<path d="M243.321 29.36C243.321 29.36 254.231 26.59 255.861 26.1C257.491 25.61 262.211 23.99 262.701 23.41C263.191 22.83 267.021 27.57 267.101 28.3C267.181 29.03 259.441 32.53 256.921 32.3C255.211 32.13 247.861 29.35 243.321 29.36Z" fill="#747474"/>
<path d="M267.591 19.34C267.591 19.34 273.041 23.28 273.861 24.96C274.681 26.64 279.801 19.83 279.721 17.63C279.641 15.43 279.561 12.63 278.261 13.56C277.89 14.6822 277.422 15.7698 276.861 16.81C276.291 17.63 275.151 19.59 273.641 19.67C273.641 19.67 274.581 10.06 267.091 9C267.091 9 264.731 9 267.091 10.74C269.451 12.48 268.971 17.96 267.591 19.34Z" fill="#747474"/>
<path d="M78.1506 25.28C78.1506 25.28 77.7906 18.62 75.3406 17.89C75.3406 17.89 74.8506 16.44 78.1506 16.89C81.4506 17.34 82.6706 18.53 82.6706 18.53C82.6706 18.53 81.5706 21.53 82.6706 21.02C83.7706 20.51 85.1206 19.87 85.4806 18.77C86.2147 19.5057 87.0885 20.0871 88.0506 20.48C89.2706 20.85 91.4706 23.29 91.8406 24.02H95.0106C95.0106 24.02 92.6906 19.5 94.0106 18.89C95.05 19.4138 96.1184 19.8779 97.2106 20.28C97.2106 20.28 97.5806 11.33 101.121 10.74C101.121 10.74 104.911 16.54 109.431 17.98C109.431 17.98 111.751 15.98 111.631 14.66C111.511 13.34 108.691 12.46 110.891 12.46C113.091 12.46 116.891 14.68 116.761 16.81C116.659 18.1997 116.455 19.5801 116.151 20.94C116.151 20.94 117.861 19.42 118.471 18.69C119.081 17.96 118.961 21.38 120.421 22.19C121.881 23 124.331 24.96 127.831 22.84C131.331 20.72 130.681 19.75 130.681 19.02C130.681 18.29 132.681 19.91 132.681 19.91C132.681 19.91 135.201 22.82 133.571 25.23L78.1506 25.28Z" fill="#747474"/>
<path d="M201.571 25.28C201.571 25.28 201.931 18.62 204.381 17.89C204.381 17.89 204.871 16.44 201.571 16.89C198.271 17.34 197.051 18.53 197.051 18.53C197.051 18.53 198.151 21.53 197.051 21.02C195.951 20.51 194.601 19.87 194.241 18.77C193.507 19.5057 192.633 20.0871 191.671 20.48C190.451 20.85 188.251 23.29 187.881 24.02H184.711C184.711 24.02 187.031 19.5 185.711 18.89C184.672 19.4138 183.603 19.8779 182.511 20.28C182.511 20.28 182.141 11.33 178.601 10.74C178.601 10.74 174.811 16.54 170.291 17.98C170.291 17.98 167.971 15.98 168.091 14.66C168.211 13.34 171.031 12.46 168.831 12.46C166.631 12.46 162.831 14.68 162.961 16.81C163.063 18.1997 163.267 19.5801 163.571 20.94C163.571 20.94 161.861 19.42 161.251 18.69C160.641 17.96 160.761 21.38 159.301 22.19C157.841 23 155.391 24.96 151.891 22.84C148.391 20.72 149.041 19.75 149.041 19.02C149.041 18.29 147.041 19.91 147.041 19.91C147.041 19.91 144.521 22.82 146.151 25.23L201.571 25.28Z" fill="#747474"/>
<path d="M201.441 69.28C199.001 68.71 192.651 62.84 192.651 62.84H87.4409C87.4409 62.84 81.0909 68.71 78.6409 69.28C76.1909 69.85 79.1309 71.56 79.1309 71.56C80.0522 70.5793 81.0559 69.6793 82.1309 68.87C83.1309 68.3 89.3009 63.98 91.7409 63.87C94.1809 63.76 95.9809 63.87 95.9809 63.87C95.9809 63.87 99.1609 65.18 97.6109 66.4C96.0609 67.62 96.4709 68.92 98.4209 68.4C100.371 67.88 105.181 63.92 105.181 63.92C105.75 64.7429 106.242 65.6166 106.651 66.53C106.811 67.18 107.221 68.81 108.031 68.89C108.325 68.8787 108.614 68.8083 108.88 68.6829C109.147 68.5574 109.385 68.3796 109.581 68.16C109.581 68.16 108.281 66.77 108.281 65.88C108.281 64.99 108.111 63.88 108.931 63.88H116.181C116.181 63.88 116.261 65.75 114.791 65.75C113.321 65.75 115.861 67.19 115.861 67.19C115.861 67.19 118.221 64.95 118.391 63.81H126.531C126.531 63.81 126.861 64.3 125.801 65.03C124.741 65.76 123.801 67.39 125.391 67.19C126.981 66.99 130.031 67.39 130.681 69.51C131.331 71.63 131.251 70.57 132.311 69.51C133.371 68.45 134.841 66.99 135.311 67.19C135.781 67.39 135.221 68.37 134.571 69.02C133.921 69.67 133.271 72.12 132.461 72.02C131.651 71.92 132.461 73.08 132.941 73.08C133.421 73.08 135.511 73.48 135.491 74.22C135.903 75.7743 136.775 77.1682 137.991 78.22C138.991 78.83 139.711 80.72 139.991 81.22C139.991 81.2667 139.991 81.2867 139.991 81.28C139.991 81.28 139.991 81.28 139.991 81.22C140.271 80.77 140.991 78.88 141.991 78.22C143.215 77.1733 144.091 75.7778 144.501 74.22C144.501 73.48 146.551 73.08 147.041 73.08C147.531 73.08 148.351 71.93 147.531 72.02C146.711 72.11 146.061 69.65 145.411 69.02C144.761 68.39 144.191 67.39 144.681 67.19C145.171 66.99 146.631 68.45 147.681 69.51C148.731 70.57 148.681 71.63 149.311 69.51C149.941 67.39 152.981 66.99 154.611 67.19C156.241 67.39 155.261 65.77 154.201 65.03C153.141 64.29 153.471 63.81 153.471 63.81H161.611C161.771 64.95 164.141 67.19 164.141 67.19C164.141 67.19 166.661 65.68 165.141 65.68C163.621 65.68 163.861 63.81 163.861 63.81H171.111C171.921 63.81 171.761 64.95 171.761 65.81C171.761 66.67 170.461 68.09 170.461 68.09C170.656 68.3084 170.893 68.4856 171.157 68.6109C171.422 68.7363 171.708 68.8074 172.001 68.82C172.821 68.74 173.231 67.11 173.391 66.46C173.802 65.5607 174.294 64.7005 174.861 63.89C174.861 63.89 179.671 67.8 181.621 68.37C183.571 68.94 183.991 67.64 182.441 66.37C180.891 65.1 184.071 63.84 184.071 63.84C184.071 63.84 185.861 63.76 188.301 63.84C190.741 63.92 196.941 68.24 197.911 68.84C198.987 69.6477 199.991 70.5478 200.911 71.53C200.911 71.53 203.861 69.84 201.441 69.28Z" fill="#747474"/>
<path d="M210.551 61.39H69.1706L69.0206 60.59C69.0206 60.39 68.0206 55.78 63.8406 54.51L63.1406 54.3V33.79L63.8406 33.58C68.1006 32.3 69.0106 27.58 69.0206 27.5L69.1706 26.7H210.551L210.701 27.5C210.701 27.7 211.651 32.31 215.881 33.58L216.581 33.79V54.28L215.881 54.49C211.621 55.77 210.711 60.49 210.701 60.57L210.551 61.39ZM70.7406 59.39H208.981C209.37 57.9441 210.078 56.604 211.055 55.4685C212.031 54.3331 213.249 53.4314 214.621 52.83V35.21C213.247 34.6123 212.026 33.7117 211.05 32.5758C210.073 31.4398 209.366 30.0978 208.981 28.65H70.7406C70.3556 30.0978 69.6484 31.4398 68.6717 32.5758C67.6951 33.7117 66.4743 34.6123 65.1006 35.21V52.88C66.4719 53.4814 67.6906 54.3831 68.6667 55.5185C69.6429 56.6539 70.3516 57.9941 70.7406 59.44V59.39Z" fill="#747474"/>
<path d="M207.861 57.65H71.8606L71.7606 57.3C71.3546 56.1548 70.7209 55.1037 69.8976 54.21C69.0744 53.3163 68.0787 52.5985 66.9706 52.1L66.6606 51.97V36.12L66.9706 36C68.0797 35.5004 69.076 34.7811 69.8993 33.8856C70.7225 32.9901 71.3558 31.9371 71.7606 30.79L71.8606 30.45H207.861L207.961 30.79C208.366 31.9371 208.999 32.9901 209.822 33.8856C210.645 34.7811 211.642 35.5004 212.751 36L213.061 36.12V51.97L212.751 52.1C211.64 52.5951 210.643 53.3116 209.819 54.2058C208.995 55.0999 208.363 56.1529 207.961 57.3L207.861 57.65ZM72.5306 56.65H207.171C208.062 54.2927 209.828 52.3695 212.101 51.28V36.77C209.83 35.6878 208.064 33.7715 207.171 31.42H72.5506C71.6573 33.7715 69.8914 35.6878 67.6206 36.77V51.28C69.8972 52.3742 71.6633 54.3052 72.5506 56.67L72.5306 56.65Z" fill="#747474"/>
</svg>
