<svg width="292" height="90" viewBox="0 0 292 90" fill="none" xmlns="http://www.w3.org/2000/svg">
<g filter="url(#filter0_d_446_4124)">
<path d="M216.195 61.68H74.8147L74.6647 60.88C74.6647 60.67 73.6647 56.06 69.4847 54.79L68.7847 54.58V34.07L69.4847 33.86C73.7447 32.58 74.6547 27.86 74.6647 27.78L74.8147 26.98H216.195L216.345 27.78C216.345 27.98 217.295 32.59 221.525 33.86L222.225 34.07V54.58L221.525 54.79C217.265 56.07 216.355 60.79 216.345 60.87L216.195 61.68ZM76.3847 59.68H214.625C215.014 58.2341 215.722 56.8939 216.699 55.7585C217.675 54.6231 218.893 53.7214 220.265 53.12V35.53C218.893 34.9286 217.675 34.0269 216.699 32.8915C215.722 31.7561 215.014 30.4159 214.625 28.97H76.3847C75.9957 30.4159 75.2869 31.7561 74.3108 32.8915C73.3346 34.0269 72.1159 34.9286 70.7447 35.53V53.16C72.1159 53.7614 73.3346 54.6631 74.3108 55.7985C75.2869 56.9339 75.9957 58.2741 76.3847 59.72V59.68Z" fill="#747474"/>
<path d="M213.505 57.93H77.5047L77.4047 57.58C76.9986 56.4348 76.3649 55.3837 75.5417 54.49C74.7184 53.5963 73.7228 52.8785 72.6147 52.38L72.3047 52.25V36.4L72.6147 36.28C73.7228 35.7815 74.7184 35.0637 75.5417 34.17C76.3649 33.2764 76.9986 32.2252 77.4047 31.08L77.5047 30.73H213.505L213.605 31.08C214.011 32.2252 214.644 33.2764 215.468 34.17C216.291 35.0637 217.287 35.7815 218.395 36.28L218.705 36.4V52.25L218.395 52.38C217.284 52.8751 216.287 53.5916 215.463 54.4858C214.64 55.3799 214.007 56.4329 213.605 57.58L213.505 57.93ZM78.1747 56.93H212.815C213.709 54.5817 215.475 52.669 217.745 51.59V37.05C215.472 35.9704 213.705 34.0532 212.815 31.7H78.1947C77.3041 34.0532 75.5373 35.9704 73.2647 37.05V51.61C75.5342 52.689 77.3001 54.6017 78.1947 56.95L78.1747 56.93Z" fill="#747474"/>
<path d="M68.5049 56.18C67.6449 56.18 67.3649 54.55 67.3649 54.55V33.99C67.4849 33.29 68.3649 32.72 69.6449 32.52C70.0227 32.4614 70.3808 32.3126 70.6889 32.0863C70.9969 31.8601 71.246 31.5629 71.4149 31.22C70.934 31.0201 70.4664 30.7897 70.0149 30.53C69.7022 30.3118 69.448 30.0198 69.2749 29.68C69.2749 29.68 68.2149 29.31 67.2049 31.06C66.1949 32.81 61.4149 55.06 61.1349 56.35C61.0783 56.5058 61.0612 56.6733 61.0854 56.8374C61.1095 57.0015 61.1741 57.157 61.2733 57.2899C61.3725 57.4228 61.5031 57.529 61.6536 57.5988C61.804 57.6686 61.9694 57.7 62.1349 57.69C63.1349 56.69 64.9449 57.25 66.4849 57.49C68.5547 58.0156 70.5943 58.6532 72.5949 59.4C72.2049 57.12 69.3149 56.22 68.5049 56.18Z" fill="#747474"/>
<path d="M67.175 28.77C67.755 26.87 65.295 26.98 64.255 26.89C63.215 26.8 63.065 26 62.255 25.55C62.0698 25.4525 61.8666 25.394 61.6579 25.3782C61.4493 25.3623 61.2396 25.3894 61.0418 25.4579C60.844 25.5263 60.6624 25.6345 60.5082 25.776C60.3539 25.9174 60.2303 26.0889 60.145 26.28C59.7366 27.6948 59.1871 29.065 58.505 30.37C58.085 30.8 58.115 30.77 57.835 30.37C57.7052 30.0846 57.4994 29.8403 57.2402 29.6639C56.9809 29.4876 56.6781 29.3859 56.365 29.37C55.455 29.28 55.365 29.59 54.755 29.37C54.145 29.15 54.505 28.58 53.955 28.03C53.405 27.48 52.335 27.91 51.955 27.97C51.575 28.03 50.055 27.66 50.305 26.69C50.555 25.72 54.575 24.12 54.575 24.12C54.575 24.12 56.745 23.39 55.765 22.68C54.785 21.97 45.505 20.53 43.335 20.41C41.165 20.29 32.555 20.81 31.825 21.64C31.095 22.47 35.915 26.86 37.295 28.48C38.675 30.1 48.135 35.87 48.925 36.08C49.715 36.29 49.695 35.44 49.595 34.89C49.495 34.34 49.015 32.75 48.985 32.33C48.936 31.7512 49.0764 31.1721 49.385 30.68C49.695 30.4 50.575 31.35 50.635 31.53C51.2535 32.1269 51.9227 32.6689 52.635 33.15C53.095 33.46 53.185 33.15 53.425 32.72C53.665 32.29 54.035 32.48 54.005 32.84C53.975 33.2 55.005 34.04 55.385 33.98C55.7578 33.8421 56.1484 33.7579 56.545 33.73C57.005 33.73 56.875 34.92 56.875 34.92C56.875 34.92 55.965 37.67 55.875 38.04C55.785 38.41 55.225 38.71 54.875 38.89C54.525 39.07 54.505 38.98 54.115 38.71C53.725 38.44 54.045 37.91 53.655 37.61C53.265 37.31 52.245 38.34 52.245 38.34C52.245 38.34 36.505 34.01 36.035 33.91C35.565 33.81 35.825 33.67 35.335 32.81C35.2426 32.6531 35.1178 32.5177 34.9689 32.4128C34.8199 32.308 34.6504 32.2362 34.4715 32.2021C34.2926 32.168 34.1085 32.1725 33.9315 32.2153C33.7545 32.258 33.5886 32.338 33.445 32.45C33.2582 32.6004 33.0392 32.7057 32.805 32.7578C32.5709 32.8098 32.3279 32.8071 32.095 32.75C31.645 32.66 32.005 32.26 31.945 31.81C31.885 31.36 31.035 31.2 30.295 31.2C29.555 31.2 29.805 31.71 29.135 31.65C28.465 31.59 29.045 31.47 28.555 30.65C28.065 29.83 26.605 30.65 26.055 31.01C25.505 31.37 25.445 31.1 25.415 30.95C25.385 30.8 24.955 30.95 24.005 30.22C23.055 29.49 26.355 27.22 27.275 26.61C28.195 26 27.825 25.67 27.825 25.67C20.825 23.44 3.66498 26.55 4.00498 28.05C4.34498 29.55 17.345 38.68 17.345 38.68C17.345 38.68 14.505 39.68 14.815 40.6C15.125 41.52 25.505 48.27 27.945 49.53C30.2674 50.4904 32.6989 51.1621 35.185 51.53C33.685 50 33.355 45.69 33.535 45.36C33.715 45.03 34.535 45.36 34.635 45.45C35.0267 45.5931 35.4383 45.6741 35.855 45.69C36.315 45.75 36.855 46.52 37.015 46.85C37.175 47.18 38.365 47.01 38.545 46.67C38.725 46.33 39.455 46.21 39.455 46.21C39.6909 46.6156 40.0379 46.9452 40.455 47.16C41.035 47.34 41.515 46.43 41.515 46.43L52.745 48.91C52.745 48.91 51.125 55.91 51.125 56.91C51.125 57.91 52.055 57.26 52.745 56.91C54.3003 56.5909 55.9175 56.7948 57.345 57.49C57.6712 57.7109 58.0447 57.8522 58.4355 57.9025C58.8263 57.9529 59.2234 57.9109 59.595 57.78C59.595 57.78 63.275 41.78 63.735 40.16C64.195 38.54 67.175 28.77 67.175 28.77ZM44.395 27.82C43.965 27.82 43.925 27.37 43.925 27.37C44.3087 26.56 44.7603 25.7839 45.275 25.05C45.3144 25.0019 45.364 24.9631 45.4202 24.9365C45.4764 24.9099 45.5378 24.896 45.6 24.896C45.6622 24.896 45.7236 24.9099 45.7798 24.9365C45.836 24.9631 45.8856 25.0019 45.925 25.05C46.355 25.52 45.805 26.45 45.635 26.7C45.465 26.95 44.825 27.78 44.395 27.82ZM49.145 26.27L47.875 28.27C47.5373 28.7634 47.1558 29.2253 46.735 29.65C46.475 29.8 46.225 29.6 46.085 29.2C45.945 28.8 46.455 28.2 46.455 28.2C46.455 28.2 47.915 25.65 48.555 25.68C49.505 25.66 49.145 26.27 49.145 26.27ZM19.505 30.22L18.125 32.09C18.0843 32.128 18.0307 32.1491 17.975 32.1491C17.9193 32.1491 17.8657 32.128 17.825 32.09L16.825 31.29C16.8037 31.2712 16.7867 31.2482 16.775 31.2223C16.7633 31.1964 16.7573 31.1684 16.7573 31.14C16.7573 31.1116 16.7633 31.0836 16.775 31.0577C16.7867 31.0319 16.8037 31.0088 16.825 30.99L18.345 29.18C18.3645 29.1601 18.3879 29.1442 18.4136 29.1334C18.4394 29.1226 18.467 29.117 18.495 29.117C18.5229 29.117 18.5506 29.1226 18.5763 29.1334C18.6021 29.1442 18.6254 29.1601 18.645 29.18L19.475 29.92C19.497 29.9375 19.5153 29.9592 19.5288 29.9839C19.5423 30.0086 19.5507 30.0357 19.5535 30.0637C19.5563 30.0916 19.5534 30.1199 19.5451 30.1468C19.5368 30.1736 19.5231 30.1985 19.505 30.22ZM21.505 33.53C21.4255 33.6937 21.2972 33.8287 21.1378 33.9164C20.9784 34.0042 20.7958 34.0404 20.615 34.02C20.5001 33.9792 20.3952 33.9143 20.3073 33.8299C20.2194 33.7454 20.1504 33.6432 20.105 33.53C20.105 33.53 20.475 29.94 20.615 29.53C20.6524 29.4097 20.7287 29.3052 20.8318 29.2329C20.9349 29.1605 21.0591 29.1243 21.185 29.13C21.985 29.13 22.035 29.51 22.035 29.51C22.035 29.51 21.575 33.29 21.505 33.53ZM28.035 36.28C28.035 36.28 23.235 36.76 22.455 36.97C21.675 37.18 22.055 34.12 22.455 33.97C22.855 33.82 23.315 34.06 23.595 34.67C23.875 35.28 24.595 35.93 25.265 35.81C25.935 35.69 26.535 34.99 26.895 35.11C27.255 35.23 28.675 35.86 28.065 36.27L28.035 36.28ZM29.725 43.61C29.505 43.87 29.055 43.61 29.055 43.61C28.8613 43.1046 28.7303 42.5773 28.665 42.04C28.665 41.45 28.775 41.21 28.855 41.18C29.545 40.92 29.725 41.83 29.725 41.83C29.725 41.83 29.985 43.33 29.755 43.6L29.725 43.61ZM31.195 45.61C31.055 45.88 30.925 46.04 30.565 45.98C30.205 45.92 30.095 45.47 30.095 45.47L31.645 40.7C32.555 40.38 32.575 41.08 32.575 41.08C32.575 41.08 31.365 45.39 31.225 45.65L31.195 45.61ZM54.325 43.84C54.1875 44.4557 53.9547 45.0462 53.635 45.59C53.245 46.02 52.835 45.59 52.405 45.49C51.975 45.39 42.405 43.41 41.745 43.15C41.085 42.89 41.335 42.27 40.375 41.82C39.415 41.37 40.115 42.11 39.565 42.82C39.015 43.53 39.015 42.82 38.275 42.52C37.535 42.22 37.585 41.68 36.715 40.95C35.845 40.22 36.085 41.15 35.595 41.85C35.105 42.55 34.915 42.27 34.595 42.13C34.275 41.99 34.045 41.21 34.045 41.21C34.045 41.21 36.135 38.53 36.275 38.53C36.635 38.53 36.495 39.3 36.555 39.4C36.615 39.5 36.805 39.58 37.105 39.3C37.4187 38.9975 37.7528 38.7168 38.105 38.46C38.535 38.16 38.635 38.32 38.715 38.32C38.795 38.32 40.615 38.79 40.615 38.79C40.615 38.79 47.715 40.79 48.935 41.03C49.6404 41.1267 50.32 41.3611 50.935 41.72C50.935 41.72 51.725 42.58 51.935 42.72C52.145 42.86 52.445 42.17 52.935 41.99C53.425 41.81 54.505 42.41 54.505 42.53C54.5112 42.9845 54.4608 43.438 54.355 43.88L54.325 43.84Z" fill="#747474"/>
<path d="M222.505 56.18C223.365 56.18 223.645 54.55 223.645 54.55V33.99C223.525 33.29 222.645 32.72 221.365 32.52C220.987 32.4614 220.629 32.3126 220.321 32.0864C220.013 31.8601 219.764 31.5629 219.595 31.22C220.064 31.0024 220.518 30.7552 220.955 30.48C221.268 30.2618 221.522 29.9698 221.695 29.63C221.695 29.63 222.755 29.26 223.765 31.01C224.775 32.76 229.555 55.01 229.835 56.3C229.892 56.4559 229.909 56.6234 229.885 56.7874C229.86 56.9515 229.796 57.107 229.697 57.2399C229.597 57.3728 229.467 57.479 229.316 57.5488C229.166 57.6186 229.001 57.65 228.835 57.64C227.835 56.64 226.025 57.2 224.485 57.44C222.415 57.9656 220.376 58.6032 218.375 59.35C218.805 57.12 221.695 56.22 222.505 56.18Z" fill="#747474"/>
<path d="M227.235 40.11C227.695 41.78 231.375 57.73 231.375 57.73C231.747 57.8609 232.144 57.9029 232.534 57.8525C232.925 57.8021 233.299 57.6608 233.625 57.44C235.052 56.7447 236.67 56.5408 238.225 56.86C238.915 57.21 239.845 57.86 239.845 56.86C239.845 55.86 238.225 48.86 238.225 48.86L249.505 46.38C249.505 46.38 249.985 47.29 250.565 47.11C250.982 46.8952 251.329 46.5655 251.565 46.16C251.565 46.16 252.295 46.28 252.475 46.62C252.655 46.96 253.825 47.14 254.005 46.8C254.185 46.46 254.705 45.7 255.165 45.64C255.582 45.6241 255.993 45.5431 256.385 45.4C256.505 45.28 257.305 44.97 257.485 45.31C257.665 45.65 257.335 49.95 255.835 51.48C258.321 51.1121 260.753 50.4404 263.075 49.48C265.515 48.23 275.905 41.48 276.205 40.56C276.505 39.64 273.675 38.64 273.675 38.64C273.675 38.64 286.675 29.51 287.015 28.01C287.355 26.51 270.195 23.4 263.195 25.63C263.195 25.63 262.835 25.99 263.745 26.57C264.655 27.15 267.965 29.41 267.015 30.18C266.065 30.95 265.635 30.76 265.605 30.91C265.575 31.06 265.515 31.34 264.965 30.97C264.415 30.6 262.965 29.78 262.465 30.61C261.965 31.44 262.555 31.55 261.885 31.61C261.215 31.67 261.455 31.16 260.725 31.16C259.995 31.16 259.135 31.31 259.075 31.77C259.015 32.23 259.375 32.62 258.925 32.71C258.692 32.7671 258.449 32.7698 258.215 32.7178C257.981 32.6657 257.762 32.5604 257.575 32.41C257.431 32.298 257.266 32.218 257.088 32.1752C256.911 32.1325 256.727 32.128 256.548 32.1621C256.37 32.1961 256.2 32.268 256.051 32.3728C255.902 32.4777 255.777 32.6131 255.685 32.77C255.195 33.63 255.405 33.77 254.985 33.87C254.565 33.97 238.705 38.3 238.705 38.3C238.705 38.3 237.705 37.3 237.295 37.57C236.885 37.84 237.235 38.39 236.835 38.67C236.435 38.95 236.385 39.04 236.075 38.85C235.765 38.66 235.225 38.36 235.125 38C235.025 37.64 234.125 34.88 234.125 34.88C234.125 34.88 233.995 33.72 234.455 33.69C234.852 33.7179 235.242 33.802 235.615 33.94C236.015 34 237.025 33.17 236.995 32.8C236.965 32.43 237.325 32.26 237.575 32.68C237.825 33.1 237.905 33.42 238.365 33.11C239.077 32.6289 239.746 32.0868 240.365 31.49C240.425 31.31 241.305 30.36 241.615 30.64C241.924 31.1321 242.064 31.7112 242.015 32.29C242.015 32.71 241.495 34.29 241.405 34.85C241.315 35.41 241.275 36.26 242.075 36.04C242.875 35.82 252.335 30.04 253.705 28.44C255.075 26.84 259.905 22.44 259.175 21.6C258.445 20.76 249.865 20.28 247.665 20.37C245.465 20.46 236.145 21.93 235.175 22.63C234.205 23.33 236.365 24.07 236.365 24.07C236.365 24.07 240.365 25.66 240.635 26.64C240.905 27.62 239.355 27.98 238.985 27.92C238.615 27.86 237.555 27.43 236.985 27.98C236.415 28.53 236.835 29.11 236.185 29.32C235.535 29.53 235.485 29.23 234.575 29.32C234.262 29.3359 233.959 29.4376 233.7 29.6139C233.441 29.7903 233.235 30.0345 233.105 30.32C232.825 30.75 232.855 30.78 232.435 30.32C231.78 29.0119 231.258 27.6418 230.875 26.23C230.79 26.0389 230.666 25.8673 230.512 25.7259C230.358 25.5845 230.176 25.4762 229.978 25.4078C229.78 25.3394 229.571 25.3123 229.362 25.3281C229.153 25.344 228.95 25.4025 228.765 25.5C227.915 25.95 227.765 26.75 226.765 26.84C225.765 26.93 223.265 26.84 223.845 28.72C223.835 28.77 226.775 38.44 227.235 40.11ZM245.375 26.7C245.205 26.45 244.655 25.52 245.085 25.05C245.124 25.0019 245.174 24.9631 245.23 24.9365C245.286 24.9098 245.348 24.896 245.41 24.896C245.472 24.896 245.534 24.9098 245.59 24.9365C245.646 24.9631 245.696 25.0019 245.735 25.05C246.25 25.7838 246.701 26.5599 247.085 27.37C247.085 27.37 247.085 27.86 246.615 27.82C246.145 27.78 245.505 26.94 245.375 26.7ZM242.505 25.62C243.145 25.62 244.605 28.14 244.605 28.14C244.605 28.14 245.125 28.75 244.975 29.14C244.825 29.53 244.585 29.74 244.325 29.59C243.904 29.1653 243.523 28.7034 243.185 28.21L241.915 26.21C241.915 26.21 241.505 25.66 242.505 25.62ZM271.625 29.94L272.455 29.2C272.475 29.18 272.498 29.1642 272.524 29.1534C272.549 29.1425 272.577 29.137 272.605 29.137C272.633 29.137 272.661 29.1425 272.686 29.1534C272.712 29.1642 272.735 29.18 272.755 29.2L274.275 31.01C274.296 31.0288 274.313 31.0518 274.325 31.0777C274.337 31.1036 274.343 31.1316 274.343 31.16C274.343 31.1884 274.337 31.2164 274.325 31.2423C274.313 31.2681 274.296 31.2912 274.275 31.31L273.275 32.11C273.234 32.1479 273.181 32.1691 273.125 32.1691C273.069 32.1691 273.016 32.1479 272.975 32.11L271.505 30.22C271.479 30.1732 271.471 30.1181 271.484 30.0661C271.497 30.014 271.53 29.9689 271.575 29.94H271.625ZM269.025 29.53C269.025 29.53 269.025 29.16 269.875 29.15C270.001 29.1443 270.125 29.1805 270.228 29.2528C270.331 29.3252 270.408 29.4297 270.445 29.55C270.585 29.97 270.955 33.55 270.955 33.55C270.902 33.6588 270.826 33.7551 270.733 33.8327C270.64 33.9102 270.532 33.9672 270.415 34C270.233 34.0264 270.048 33.9953 269.885 33.911C269.721 33.8267 269.589 33.6935 269.505 33.53C269.435 33.29 268.975 29.53 268.975 29.53H269.025ZM264.135 35.08C264.495 34.96 265.065 35.65 265.765 35.78C266.465 35.91 267.145 35.25 267.435 34.64C267.725 34.03 268.165 33.78 268.575 33.94C268.985 34.1 269.345 37.16 268.575 36.94C267.805 36.72 262.995 36.25 262.995 36.25C262.335 35.86 263.715 35.21 264.085 35.08H264.135ZM261.305 41.82C261.305 41.82 261.485 40.91 262.175 41.17C262.255 41.17 262.385 41.44 262.365 42.03C262.3 42.5673 262.169 43.0946 261.975 43.6C261.975 43.6 261.525 43.86 261.305 43.6C261.085 43.34 261.255 41.82 261.255 41.82H261.305ZM258.455 41.12C258.455 41.12 258.455 40.42 259.385 40.74L260.885 45.53C260.885 45.53 260.785 45.98 260.415 46.04C260.045 46.1 259.925 45.94 259.785 45.67C259.645 45.4 258.405 41.12 258.405 41.12H258.455ZM236.505 42.53C236.565 42.42 237.725 41.77 238.175 41.96C238.625 42.15 238.945 42.81 239.175 42.69C239.405 42.57 240.175 41.69 240.175 41.69C240.79 41.3311 241.47 41.0966 242.175 41C243.395 40.8 250.495 38.76 250.495 38.76C250.495 38.76 252.315 38.29 252.395 38.29C252.475 38.29 252.575 38.13 253.005 38.43C253.357 38.6868 253.691 38.9675 254.005 39.27C254.305 39.55 254.495 39.47 254.555 39.37C254.615 39.27 254.475 38.45 254.835 38.5C254.975 38.5 257.075 41.26 257.075 41.26C257.075 41.26 256.895 42.04 256.525 42.18C256.155 42.32 255.965 42.59 255.525 41.9C255.085 41.21 255.285 40.27 254.405 41C253.525 41.73 253.575 42.28 252.845 42.57C252.115 42.86 252.105 43.57 251.555 42.87C251.005 42.17 251.705 41.41 250.745 41.87C249.785 42.33 250.015 42.95 249.375 43.2C248.735 43.45 238.995 45.45 238.575 45.53C238.155 45.61 237.735 46.06 237.345 45.63C237.025 45.0861 236.793 44.4957 236.655 43.88C236.549 43.4379 236.499 42.9845 236.505 42.53Z" fill="#747474"/>
<path d="M90.0648 62.9C89.6548 62.9 134.065 62.9 134.065 62.9C134.065 62.9 131.215 68.9 130.395 70.63C129.575 72.36 128.115 73.4 127.055 72.75C126.798 72.5602 126.478 72.4753 126.16 72.5124C125.843 72.5495 125.551 72.706 125.345 72.95C124.639 72.8439 123.985 72.5185 123.475 72.02C122.905 71.29 111.345 67.62 109.795 67.3C108.245 66.98 106.915 67.38 106.125 66.89C104.155 65.67 91.8548 62.98 90.0648 62.9Z" fill="#747474"/>
<path d="M134.735 62.89C134.735 62.89 132.005 70.53 130.055 72.53C130.055 72.53 130.705 72.98 131.595 72.04C133.663 69.1459 135.477 66.0777 137.015 62.87L134.735 62.89Z" fill="#747474"/>
<path d="M200.945 62.9C201.355 62.9 156.945 62.9 156.945 62.9C156.945 62.9 159.795 68.9 160.615 70.63C161.435 72.36 162.895 73.4 163.955 72.75C164.212 72.5602 164.532 72.4753 164.849 72.5124C165.167 72.5495 165.458 72.706 165.665 72.95C166.37 72.8439 167.024 72.5185 167.535 72.02C168.105 71.29 179.665 67.62 181.215 67.3C182.765 66.98 184.095 67.38 184.885 66.89C186.855 65.67 199.155 62.98 200.945 62.9Z" fill="#747474"/>
<path d="M156.275 62.89C156.275 62.89 159.005 70.53 160.955 72.53C160.955 72.53 160.305 72.98 159.415 72.04C157.347 69.1459 155.533 66.0777 153.995 62.87L156.275 62.89Z" fill="#747474"/>
<path d="M143.285 19.02L142.555 18.3C142.492 18.2411 142.416 18.1964 142.334 18.1688C142.253 18.1412 142.166 18.1313 142.08 18.1398C141.994 18.1483 141.91 18.175 141.835 18.2182C141.76 18.2613 141.695 18.3199 141.645 18.39C140.575 19.8566 139.701 21.4569 139.045 23.15H94.7749V25.62H140.625C140.709 25.4453 140.769 25.2604 140.805 25.07C141.205 23.87 142.225 20.99 143.285 19.87C143.341 19.8143 143.385 19.748 143.416 19.6751C143.446 19.6022 143.461 19.524 143.461 19.445C143.461 19.366 143.446 19.2878 143.416 19.2149C143.385 19.142 143.341 19.0757 143.285 19.02Z" fill="#747474"/>
<path d="M98.6448 22.22H138.925C138.925 22.22 139.445 20.59 139.735 20.47H138.635C138.635 20.47 134.565 15.09 134.435 14.93C134.305 14.77 131.715 20.42 131.145 20.63H126.825C126.825 20.63 120.635 13.14 120.345 12.93L117.015 20.38H113.385C113.385 20.38 104.635 11.88 104.305 11C103.476 14.0223 102.808 17.0867 102.305 20.18L99.0948 20.26C98.76 20.7381 98.4846 21.2553 98.2748 21.8C98.2748 21.8 97.9148 22.18 98.6448 22.22Z" fill="#747474"/>
<path d="M147.725 19.02L148.455 18.3C148.518 18.2411 148.593 18.1964 148.675 18.1688C148.757 18.1412 148.844 18.1313 148.93 18.1398C149.016 18.1483 149.099 18.175 149.174 18.2182C149.249 18.2613 149.314 18.3199 149.365 18.39C150.435 19.8566 151.309 21.4569 151.965 23.15H196.235V25.62H150.385C150.301 25.4453 150.241 25.2604 150.205 25.07C149.805 23.87 148.785 20.99 147.725 19.87C147.669 19.8143 147.624 19.748 147.594 19.6751C147.564 19.6022 147.548 19.524 147.548 19.445C147.548 19.366 147.564 19.2878 147.594 19.2149C147.624 19.142 147.669 19.0757 147.725 19.02Z" fill="#747474"/>
<path d="M192.365 22.22H152.085C152.085 22.22 151.565 20.59 151.275 20.47H152.375C152.375 20.47 156.445 15.09 156.575 14.93C156.705 14.77 159.295 20.42 159.865 20.63H164.185C164.185 20.63 170.375 13.14 170.665 12.93L173.995 20.38H177.625C177.625 20.38 186.375 11.88 186.705 11C187.534 14.0223 188.202 17.0867 188.705 20.18L191.915 20.26C192.25 20.7381 192.525 21.2553 192.735 21.8C192.735 21.8 193.095 22.18 192.365 22.22Z" fill="#747474"/>
<path d="M147.045 21.09C147.045 21.09 146.045 20.09 145.455 20.09C144.865 20.09 141.885 22.86 141.575 25.66H143.505C143.505 25.66 145.635 21.94 147.045 21.09Z" fill="#747474"/>
<path d="M147.555 21.73C146.43 22.9385 145.41 24.2398 144.505 25.62H149.245C149.245 25.62 148.585 22.34 147.555 21.73Z" fill="#747474"/>
</g>
<defs>
<filter id="filter0_d_446_4124" x="0" y="11" width="291.02" height="69.95" filterUnits="userSpaceOnUse" color-interpolation-filters="sRGB">
<feFlood flood-opacity="0" result="BackgroundImageFix"/>
<feColorMatrix in="SourceAlpha" type="matrix" values="0 0 0 0 0 0 0 0 0 0 0 0 0 0 0 0 0 0 127 0" result="hardAlpha"/>
<feOffset dy="4"/>
<feGaussianBlur stdDeviation="2"/>
<feComposite in2="hardAlpha" operator="out"/>
<feColorMatrix type="matrix" values="0 0 0 0 0 0 0 0 0 0 0 0 0 0 0 0 0 0 0.25 0"/>
<feBlend mode="normal" in2="BackgroundImageFix" result="effect1_dropShadow_446_4124"/>
<feBlend mode="normal" in="SourceGraphic" in2="effect1_dropShadow_446_4124" result="shape"/>
</filter>
</defs>
</svg>
