<svg width="280" height="90" viewBox="0 0 280 90" fill="none" xmlns="http://www.w3.org/2000/svg">
<path d="M211.76 61.7501H70.3698L70.2298 60.9501C70.2298 60.7501 69.2298 56.1301 65.0398 54.8601L64.3398 54.6601V34.1401L65.0398 33.9301C69.3098 32.6601 70.2198 27.9301 70.2198 27.8601L70.3698 27.0501H211.76L211.9 27.8601C211.9 28.0501 212.85 32.6601 217.09 33.9301L217.78 34.1401V54.6301L217.09 54.8301C212.82 56.1101 211.91 60.8301 211.9 60.9101L211.76 61.7501ZM71.9498 59.7501H210.18C210.57 58.3032 211.28 56.9624 212.258 55.8269C213.236 54.6915 214.457 53.7903 215.83 53.1901V35.5701C214.457 34.9699 213.236 34.0687 212.258 32.9332C211.28 31.7977 210.57 30.457 210.18 29.0101H71.9498C71.5598 30.457 70.8495 31.7977 69.8716 32.9332C68.8936 34.0687 67.673 34.9699 66.2998 35.5701V53.2301C67.673 53.8303 68.8936 54.7315 69.8716 55.8669C70.8495 57.0024 71.5598 58.3432 71.9498 59.7901V59.7501Z" fill="#747474"/>
<path d="M209.06 58.0001H73.0601L72.9401 57.6301C72.5387 56.4824 71.9067 55.4289 71.0829 54.5347C70.2592 53.6404 69.2611 52.9241 68.1501 52.4301L67.8501 52.3101V36.4701L68.1501 36.3501C69.2607 35.8555 70.2586 35.1391 71.0823 34.2449C71.906 33.3507 72.5382 32.2975 72.9401 31.1501L73.0401 30.8001H209.06L209.17 31.1501C209.573 32.2972 210.205 33.3501 211.029 34.2443C211.852 35.1385 212.85 35.855 213.96 36.3501L214.26 36.4701V52.3301L213.96 52.4501C212.848 52.9431 211.85 53.659 211.026 54.5534C210.202 55.4479 209.57 56.5018 209.17 57.6501L209.06 58.0001ZM73.7301 57.0001H208.37C209.272 54.6562 211.036 52.7457 213.3 51.6601V37.1201C211.036 36.0344 209.272 34.124 208.37 31.7801H73.7601C72.8569 34.1263 71.089 36.0373 68.8201 37.1201V51.6801C71.089 52.7629 72.8569 54.6739 73.7601 57.0201L73.7301 57.0001Z" fill="#747474"/>
<path d="M55.6501 20.5201L49.7201 28.8201C49.7201 28.8201 48.8701 29.9801 49.7201 30.6601C50.5701 31.3401 62.2401 43.8501 62.2401 43.8501V31.6901C62.2401 31.6901 65.4801 31.5101 66.6401 29.6901C67.579 28.3376 68.129 26.7534 68.2301 25.1101H89.4301L86.0701 21.1101L72.0601 18.0101C71.001 17.9467 69.9391 17.9467 68.8801 18.0101C67.9201 18.1301 55.6501 20.5201 55.6501 20.5201Z" fill="#747474"/>
<path d="M62.0598 45.9501L41.4998 23.1401C41.4998 23.1401 40.0298 22.3301 37.5898 23.5501C35.1498 24.7701 30.8298 28.7401 32.6998 34.4101L37.5098 40.8201C37.5098 40.8201 37.5098 43.9901 40.4398 44.4001C40.4398 44.4001 38.4398 38.2901 42.3898 36.9101C42.3898 36.9101 42.7198 37.5601 42.3098 37.8001C41.8998 38.0401 40.1898 40.9001 41.5798 44.4001L46.1398 49.7701C46.1398 49.7701 46.2998 53.6801 49.2298 53.9301C49.2298 53.9301 48.2298 47.8201 51.7598 46.8401C51.8263 46.9357 51.8727 47.0438 51.8961 47.1578C51.9196 47.2719 51.9196 47.3895 51.8962 47.5036C51.8728 47.6177 51.8265 47.7258 51.7601 47.8215C51.6937 47.9171 51.6086 47.9983 51.5098 48.0601C50.7798 48.5501 49.8898 52.7901 50.2898 54.5801L55.4998 61.1801C55.4998 61.1801 55.4998 65.0001 58.3598 65.1801C58.3598 65.1801 57.4598 58.8301 60.1498 57.5201C60.1498 57.5201 61.5298 57.2001 60.6398 58.5801C59.4936 60.7281 58.9575 63.149 59.0898 65.5801L62.7498 69.8201C63.71 70.3075 64.773 70.5579 65.8498 70.5501C66.8337 70.5545 67.8086 70.3622 68.717 69.9843C69.6255 69.6065 70.4493 69.0509 71.1398 68.3501C72.1998 67.3501 72.1398 67.3501 72.9298 67.5401C73.7198 67.7301 87.1898 62.7301 87.1898 62.7301H80.6698L73.5798 65.5801C73.5798 65.5801 72.2798 64.8501 71.3898 65.3401C71.3898 65.3401 68.2098 67.7001 66.9098 67.7801C65.6098 67.8601 62.4298 68.7001 63.5698 63.1201C63.5698 63.1201 64.3098 58.8301 67.8498 59.4001C67.8498 59.4001 66.0098 56.2201 63.9698 55.9701L62.0598 55.5401V45.9501Z" fill="#747474"/>
<path d="M54.0599 20.0901L48.6799 28.3401C48.6799 28.3401 48.0699 28.4601 47.8899 28.3401C47.7099 28.2201 43.4299 23.6301 43.4299 23.6301C43.4299 23.6301 42.8799 22.2901 44.7699 21.8601C46.6599 21.4301 53.3299 20.0901 53.3299 20.0901C53.3299 20.0901 54.1999 19.8801 54.0599 20.0901Z" fill="#747474"/>
<path d="M73.21 17.1601L85.79 19.9901C85.79 19.9901 86.62 19.9901 86.37 19.6601C86.12 19.3301 82.43 16.0501 81.47 15.1901C81.3984 15.1272 81.3137 15.0811 81.222 15.0551C81.1303 15.0292 81.034 15.024 80.94 15.0401L72.94 16.3001C72.94 16.3001 71.74 16.6301 73.21 17.1601Z" fill="#747474"/>
<path d="M225.98 20.5201L231.9 28.8201C231.9 28.8201 232.76 29.9801 231.9 30.6601C231.04 31.3401 219.38 43.8501 219.38 43.8501V31.6901C219.38 31.6901 216.14 31.5101 214.98 29.6901C214.041 28.3376 213.491 26.7534 213.39 25.1101H192.2L195.56 21.1101L209.56 18.0501C210.619 17.9867 211.681 17.9867 212.74 18.0501C213.7 18.1301 225.98 20.5201 225.98 20.5201Z" fill="#747474"/>
<path d="M219.52 45.9501L240.13 23.1401C240.13 23.1401 241.59 22.3301 244.04 23.5501C246.49 24.7701 250.79 28.7401 248.92 34.4101L244.12 40.8201C244.12 40.8201 244.12 43.9901 241.18 44.4001C241.18 44.4001 243.18 38.2901 239.18 36.9101C239.18 36.9101 238.85 37.5601 239.26 37.8001C239.67 38.0401 241.38 40.9001 239.99 44.4001L235.43 49.7701C235.43 49.7701 235.27 53.6801 232.34 53.9301C232.34 53.9301 233.34 47.8201 229.81 46.8401C229.745 46.9361 229.7 47.0442 229.677 47.158C229.654 47.2719 229.655 47.389 229.678 47.5027C229.701 47.6164 229.747 47.7243 229.813 47.82C229.878 47.9157 229.963 47.9973 230.06 48.0601C230.79 48.5501 231.69 52.7901 231.28 54.5801L226.07 61.1801C226.07 61.1801 226.07 65.0001 223.22 65.1801C223.22 65.1801 224.11 58.8301 221.43 57.5201C221.43 57.5201 220.04 57.2001 220.94 58.5801C222.082 60.7292 222.615 63.1499 222.48 65.5801L218.82 69.8201C217.86 70.3075 216.797 70.5579 215.72 70.5501C214.736 70.5545 213.761 70.3622 212.853 69.9843C211.944 69.6065 211.121 69.0509 210.43 68.3501C209.37 67.3501 209.43 67.3501 208.64 67.5401C207.85 67.7301 194.39 62.7301 194.39 62.7301H200.9L208.06 65.5701C208.389 65.3763 208.755 65.2547 209.134 65.2133C209.514 65.172 209.897 65.2117 210.26 65.3301C210.26 65.3301 213.43 67.6901 214.74 67.7701C216.05 67.8501 219.21 68.6901 218.07 63.1101C218.07 63.1101 217.33 58.8201 213.79 59.3901C213.79 59.3901 215.63 56.2101 217.67 55.9601L219.54 55.5401L219.52 45.9501Z" fill="#747474"/>
<path d="M227.56 20.0901L232.94 28.3401C232.94 28.3401 233.55 28.4601 233.73 28.3401C233.91 28.2201 238.19 23.6301 238.19 23.6301C238.19 23.6301 238.74 22.2901 236.85 21.8601C234.96 21.4301 228.3 20.0901 228.3 20.0901C228.3 20.0901 227.42 19.8801 227.56 20.0901Z" fill="#747474"/>
<path d="M208.41 17.1601L195.83 19.9901C195.83 19.9901 195.01 19.9901 195.25 19.6601C195.49 19.3301 199.2 16.0501 200.16 15.1901C200.229 15.1267 200.312 15.0802 200.403 15.0542C200.493 15.0282 200.588 15.0234 200.68 15.0401L208.68 16.3001C208.68 16.3001 209.88 16.6301 208.41 17.1601Z" fill="#747474"/>
<path d="M245.883 40.6571L245.463 41.5424L267.333 51.9269L267.753 51.0417L245.883 40.6571Z" fill="#747474"/>
<path d="M273.06 60.3301C271.79 60.3301 270.549 59.9535 269.493 59.2481C268.438 58.5426 267.615 57.54 267.129 56.3669C266.643 55.1938 266.516 53.9029 266.764 52.6576C267.011 51.4122 267.623 50.2683 268.521 49.3704C269.418 48.4726 270.562 47.8611 271.808 47.6134C273.053 47.3657 274.344 47.4928 275.517 47.9787C276.69 48.4647 277.693 49.2875 278.398 50.3433C279.104 51.3991 279.48 52.6403 279.48 53.9101C279.477 55.6119 278.8 57.2433 277.597 58.4468C276.393 59.6502 274.762 60.3274 273.06 60.3301ZM273.06 48.4701C271.984 48.4701 270.932 48.7891 270.038 49.3869C269.143 49.9846 268.446 50.8342 268.034 51.8283C267.622 52.8223 267.515 53.9161 267.725 54.9713C267.935 56.0266 268.453 56.9959 269.213 57.7567C269.974 58.5175 270.944 59.0356 271.999 59.2455C273.054 59.4554 274.148 59.3477 275.142 58.936C276.136 58.5242 276.986 57.827 277.583 56.9324C278.181 56.0378 278.5 54.986 278.5 53.9101C278.497 52.4681 277.924 51.0859 276.904 50.0663C275.884 49.0467 274.502 48.4727 273.06 48.4701Z" fill="#747474"/>
<path d="M241.06 10.2001C233.777 10.2061 226.789 13.0802 221.61 18.2001L223.07 18.8301C226.621 15.5043 231.025 13.2273 235.791 12.2514C240.558 11.2756 245.502 11.6392 250.075 13.3018C254.647 14.9644 258.67 17.8611 261.697 21.6707C264.724 25.4802 266.636 30.0536 267.222 34.8838C267.808 39.714 267.045 44.612 265.017 49.0348C262.989 53.4576 259.776 57.2323 255.733 59.9402C251.691 62.648 246.977 64.1833 242.115 64.3757C237.254 64.5681 232.434 63.4101 228.19 61.0301L227.35 62.2401C231.053 64.3263 235.186 65.5358 239.43 65.7757C243.674 66.0156 247.916 65.2794 251.831 63.6237C255.746 61.968 259.23 59.4369 262.014 56.2249C264.798 53.0128 266.809 49.2053 267.891 45.0948C268.974 40.9844 269.101 36.6804 268.26 32.5135C267.42 28.3467 265.636 24.4278 263.045 21.0581C260.454 17.6884 257.125 14.9575 253.314 13.0752C249.503 11.1929 245.311 10.2094 241.06 10.2001Z" fill="#747474"/>
<path d="M241.15 20.9101C243.675 20.904 246.17 21.4537 248.458 22.5202C250.746 23.5868 252.771 25.1439 254.39 27.0811C256.009 29.0184 257.181 31.2882 257.824 33.7295C258.467 36.1708 258.565 38.7237 258.11 41.207C257.656 43.6903 256.66 46.043 255.194 48.0983C253.728 50.1535 251.828 51.8609 249.628 53.0991C247.428 54.3373 244.982 55.076 242.464 55.2629C239.947 55.4497 237.419 55.08 235.06 54.1801L231.41 56.8101C234.616 58.4834 238.199 59.3044 241.814 59.1944C245.429 59.0844 248.955 58.0471 252.054 56.1819C255.152 54.3167 257.72 51.6864 259.509 48.5434C261.298 45.4003 262.25 41.8501 262.272 38.2335C262.294 34.6169 261.386 31.0553 259.636 27.8905C257.885 24.7258 255.35 22.0642 252.275 20.1612C249.199 18.2582 245.686 17.1777 242.073 17.0234C238.459 16.8691 234.867 17.6462 231.64 19.2801L237.53 21.2801C238.72 21.0263 239.934 20.9023 241.15 20.9101Z" fill="#747474"/>
<path d="M40.53 10.2001C47.8129 10.2061 54.8005 13.0802 59.98 18.2001L58.52 18.8301C54.9685 15.5043 50.5652 13.2273 45.7985 12.2514C41.0318 11.2756 36.0879 11.6392 31.5152 13.3018C26.9425 14.9644 22.9197 17.8611 19.8929 21.6707C16.8661 25.4802 14.9537 30.0536 14.3676 34.8838C13.7816 39.714 14.5449 44.612 16.5729 49.0348C18.6009 53.4576 21.8143 57.2323 25.8567 59.9402C29.8992 62.648 34.6126 64.1833 39.4744 64.3757C44.3362 64.5681 49.1562 63.4101 53.4 61.0301L54.24 62.2401C50.537 64.3403 46.4013 65.5624 42.1515 65.8122C37.9017 66.0619 33.6513 65.3327 29.7277 63.6806C25.8042 62.0285 22.3124 59.4978 19.5213 56.2833C16.7301 53.0688 14.7142 49.2565 13.6289 45.14C12.5436 41.0235 12.4178 36.7128 13.2613 32.5401C14.1047 28.3674 15.8949 24.444 18.4939 21.0722C21.0928 17.7005 24.4312 14.9704 28.2517 13.0924C32.0722 11.2144 36.2729 10.2385 40.53 10.2401V10.2001Z" fill="#747474"/>
<path d="M40.4498 20.9101C37.9261 20.9069 35.4327 21.4592 33.1463 22.5277C30.8599 23.5961 28.8367 25.1547 27.2202 27.0927C25.6036 29.0307 24.4333 31.3007 23.7924 33.7416C23.1514 36.1826 23.0554 38.7347 23.5113 41.2169C23.9672 43.699 24.9636 46.0505 26.4301 48.1044C27.8965 50.1584 29.797 51.8644 31.9967 53.1016C34.1963 54.3387 36.6413 55.0767 39.1581 55.2631C41.6749 55.4495 44.2019 55.0797 46.5598 54.1801L50.2098 56.8101C47.0035 58.4834 43.4209 59.3044 39.8059 59.1944C36.1909 59.0844 32.6648 58.0471 29.5662 56.1819C26.4675 54.3167 23.9003 51.6864 22.111 48.5434C20.3216 45.4003 19.3702 41.8501 19.3481 38.2335C19.3259 34.6169 20.2337 31.0553 21.9844 27.8905C23.7351 24.7258 26.2699 22.0642 29.3454 20.1612C32.421 18.2582 35.9341 17.1777 39.5475 17.0234C43.1608 16.8691 46.7532 17.6462 49.9798 19.2801L44.0798 21.2801C42.887 21.0244 41.6697 20.9004 40.4498 20.9101Z" fill="#747474"/>
<path d="M15.5 56.0101C12.434 56.0101 9.43681 55.1008 6.88763 53.3972C4.33845 51.6936 2.35178 49.2722 1.17892 46.4394C0.00605285 43.6065 -0.300314 40.4895 0.298568 37.4825C0.897449 34.4755 2.37468 31.7137 4.54339 29.5464C6.7121 27.3791 9.47488 25.9036 12.4822 25.3067C15.4896 24.7097 18.6064 25.0181 21.4385 26.1928C24.2706 27.3675 26.6907 29.3557 28.3926 31.906C30.0946 34.4563 31.002 37.454 31 40.5201C30.9921 44.6276 29.3562 48.5644 26.4508 51.4679C23.5454 54.3714 19.6075 56.0048 15.5 56.0101ZM15.5 26.0101C12.6295 26.018 9.82576 26.8765 7.44302 28.4773C5.06027 30.078 3.20544 32.349 2.11288 35.0035C1.02032 37.6579 0.739061 40.5767 1.30464 43.3909C1.87022 46.2051 3.25725 48.7886 5.29049 50.8149C7.32373 52.8411 9.91194 54.2193 12.7281 54.7752C15.5443 55.331 18.462 55.0397 21.1127 53.9381C23.7634 52.8364 26.028 50.9737 27.6206 48.5855C29.2131 46.1973 30.062 43.3906 30.06 40.5201C30.0574 38.6107 29.6787 36.7205 28.9456 34.9574C28.2124 33.1943 27.1392 31.5929 25.7872 30.2446C24.4352 28.8963 22.8308 27.8275 21.0657 27.0992C19.3007 26.3709 17.4094 25.9975 15.5 26.0001V26.0101Z" fill="#747474"/>
<path d="M140.93 21.1901C135.703 21.1886 130.528 22.2324 125.71 24.2601H156.14C151.326 22.2314 146.154 21.1876 140.93 21.1901Z" fill="#747474"/>
<path d="M89.8301 23.6301L90.7701 25.0301H92.1401C106.656 15.5746 123.606 10.5407 140.93 10.5407C158.254 10.5407 175.204 15.5746 189.72 25.0301H190.72L191.86 23.5001C176.752 13.4315 158.996 8.06971 140.84 8.09285C122.684 8.11599 104.943 13.523 89.8601 23.6301H89.8301Z" fill="#747474"/>
<path d="M140.93 6.00006C122.314 5.97854 104.115 11.5111 88.6602 21.8901L89.2102 22.7001C104.489 12.4729 122.459 7.00742 140.845 6.99496C159.231 6.9825 177.207 12.4237 192.5 22.6301L193.08 21.8501C177.657 11.5048 159.502 5.98693 140.93 6.00006Z" fill="#747474"/>
<path d="M118.95 25.0201H123.55V24.2601H125.71C130.527 22.2339 135.7 21.1902 140.925 21.1902C146.151 21.1902 151.324 22.2339 156.14 24.2601H158.37V25.0201H162.9C156.303 20.9214 148.692 18.7494 140.925 18.7494C133.159 18.7494 125.547 20.9214 118.95 25.0201Z" fill="#747474"/>
<path d="M125.71 24.2601C125.14 24.5001 124.58 24.7501 124.02 25.0201H157.84C157.28 24.7501 156.71 24.5001 156.14 24.2601H125.71Z" fill="#747474"/>
<path d="M123.55 24.2601V25.0201H124.06C124.62 24.7501 125.18 24.5001 125.75 24.2601H123.55Z" fill="#747474"/>
<path d="M156.14 24.2601C156.71 24.5001 157.28 24.7501 157.84 25.0201H158.37V24.2601H156.14Z" fill="#747474"/>
<path d="M245.68 15.4701C245.076 14.6209 244.534 13.7285 244.06 12.8001C243.72 12.1301 242.71 12.7201 243.06 13.3901C243.41 14.0601 243.67 14.5101 244.01 15.0501L240.54 14.6301C240.794 14.1547 240.97 13.6415 241.06 13.1101C241.16 12.3701 240.06 12.0501 239.93 12.8001C239.825 13.5509 239.525 14.2612 239.06 14.8601C238.77 15.2601 239.18 15.7001 239.57 15.7401L245.17 16.3601C245.273 16.3575 245.374 16.3284 245.462 16.2756C245.551 16.2227 245.624 16.148 245.676 16.0586C245.727 15.9691 245.754 15.868 245.755 15.7649C245.756 15.6618 245.73 15.5603 245.68 15.4701Z" fill="#747474"/>
<path d="M246.36 13.2401C246.03 12.5601 245.02 13.1501 245.36 13.8301C245.717 14.5623 245.985 15.3344 246.16 16.1301C246.32 16.8701 247.45 16.5601 247.29 15.8201C247.087 14.9251 246.775 14.0586 246.36 13.2401Z" fill="#747474"/>
<path d="M254.93 20.6301C255.242 20.6127 255.548 20.5346 255.83 20.4001C256.238 20.2753 256.663 20.2146 257.09 20.2201C257.232 20.2015 257.362 20.1318 257.457 20.0242C257.551 19.9166 257.603 19.7783 257.603 19.6351C257.603 19.4919 257.551 19.3535 257.457 19.2459C257.362 19.1383 257.232 19.0687 257.09 19.0501C256.718 19.0489 256.346 19.0824 255.98 19.1501C255.72 19.1501 255.41 19.3701 255.13 19.4301C254.87 19.1801 254.63 18.8901 254.39 18.6201C253.95 18.1201 254.22 17.8201 254.7 17.4501C255.18 17.0801 254.7 15.9801 254.11 16.4501C253.11 17.2401 252.51 18.2501 253.47 19.3601C253.83 19.8001 254.33 20.6301 254.93 20.6301Z" fill="#747474"/>
<path d="M258.59 20.4601C258.156 20.4344 257.722 20.4984 257.314 20.6481C256.906 20.7978 256.534 21.03 256.22 21.3301C255.68 21.8601 256.51 22.6801 257.05 22.1601C257.255 21.9687 257.498 21.8225 257.763 21.7312C258.029 21.6399 258.31 21.6055 258.59 21.6301C259.35 21.6901 259.34 20.5101 258.59 20.4601Z" fill="#747474"/>
<path d="M261.15 27.7801C261.308 27.7112 261.478 27.6757 261.65 27.6757C261.822 27.6757 261.993 27.7112 262.15 27.7801C262.29 27.8601 262.36 27.8701 262.4 27.8601C262.345 27.9264 262.307 28.0055 262.29 28.0901C262.16 28.4901 261.89 28.8301 261.77 29.2501C261.733 29.3998 261.755 29.5581 261.831 29.6922C261.907 29.8263 262.032 29.9258 262.18 29.9701C262.5 30.0167 262.807 30.1297 263.081 30.302C263.355 30.4742 263.59 30.7018 263.77 30.9701C264.13 31.6301 265.15 31.0401 264.77 30.3701C264.392 29.7502 263.803 29.2883 263.11 29.0701C263.44 28.4701 263.91 27.8201 263.49 27.2301C263.316 27.0257 263.1 26.8611 262.857 26.7473C262.614 26.6334 262.349 26.573 262.08 26.5701C262.28 26.3301 262.5 26.1901 262.66 26.3901C263.12 26.9901 263.95 26.1501 263.49 25.5601C262.4 24.1601 260.91 25.9701 260.49 26.9701C260.3 27.3601 260.62 27.9501 261.15 27.7801Z" fill="#747474"/>
<path d="M266.47 39.2801C266.365 39.1072 266.241 38.9462 266.1 38.8001C266.217 38.4133 266.226 38.0018 266.125 37.6104C266.025 37.219 265.819 36.8626 265.53 36.5801C265.701 36.4291 265.882 36.2889 266.07 36.1601C266.7 35.7501 266.07 34.7301 265.48 35.1601C265.035 35.439 264.628 35.7752 264.27 36.1601C264.207 36.2232 264.159 36.2998 264.13 36.3841C264.101 36.4684 264.092 36.5582 264.102 36.6468C264.113 36.7353 264.143 36.8203 264.191 36.8953C264.24 36.9704 264.304 37.0336 264.38 37.0801C264.595 37.1994 264.77 37.3801 264.882 37.5992C264.995 37.8182 265.039 38.0657 265.01 38.3101C264.836 38.3236 264.662 38.3469 264.49 38.3801C263.65 38.5601 262.91 39.0601 263.08 40.0101C263.21 40.7501 264.34 40.4401 264.21 39.7001C264.21 39.6301 264.95 39.4901 264.98 39.4801H265.18C265.11 39.4801 265.12 39.4801 265.18 39.4801C265.292 39.5731 265.387 39.6848 265.46 39.8101C265.86 40.5101 266.88 39.9201 266.47 39.2801Z" fill="#747474"/>
<path d="M264.46 46.8101C264.009 46.4283 263.519 46.0933 263 45.8101C262.933 45.7705 262.859 45.7444 262.782 45.7336C262.705 45.7227 262.627 45.7271 262.552 45.7466C262.476 45.7662 262.406 45.8004 262.344 45.8473C262.282 45.8942 262.23 45.9529 262.19 46.0201C261.93 46.6301 261.62 47.2301 262.27 47.7101C262.336 47.7495 262.41 47.7753 262.486 47.786C262.562 47.7968 262.64 47.7923 262.714 47.7727C262.789 47.7532 262.859 47.719 262.92 47.6722C262.981 47.6254 263.032 47.5669 263.07 47.5001C263.124 47.4204 263.152 47.3261 263.15 47.2301C263.327 47.3396 263.494 47.4633 263.65 47.6001C263.557 47.7013 263.504 47.8327 263.5 47.9701V48.0901C263.508 48.2275 263.563 48.3578 263.657 48.4586C263.751 48.5595 263.877 48.6244 264.013 48.6422C264.149 48.66 264.288 48.6295 264.404 48.5561C264.521 48.4827 264.608 48.3709 264.65 48.2401C264.762 47.9888 264.836 47.7227 264.87 47.4501C264.858 47.3185 264.814 47.1917 264.743 47.0804C264.672 46.9691 264.575 46.8764 264.46 46.8101Z" fill="#747474"/>
<path d="M262.75 48.9001C262.411 49.2077 262.13 49.5735 261.92 49.9801L261.74 50.2701C261.657 50.0797 261.56 49.8959 261.45 49.7201C261.673 49.4562 261.88 49.179 262.07 48.8901C262.47 48.2501 261.46 47.6701 261.07 48.3001C260.845 48.6565 260.587 48.9912 260.3 49.3001C260.191 49.4105 260.129 49.5596 260.129 49.7151C260.129 49.8705 260.191 50.0196 260.3 50.1301C260.684 50.5741 260.909 51.1336 260.94 51.7201C260.946 51.8463 260.993 51.9673 261.072 52.0658C261.151 52.1642 261.259 52.2352 261.381 52.2684C261.503 52.3017 261.633 52.2956 261.751 52.251C261.869 52.2064 261.97 52.1256 262.04 52.0201L262.77 50.8601C262.931 50.5204 263.133 50.2014 263.37 49.9101C263.94 49.4601 263.36 48.4501 262.75 48.9001Z" fill="#747474"/>
<path d="M255.67 55.8001C255.56 56.1601 255.44 56.3101 255.05 56.1401L254.89 56.0701C254.28 55.8201 253.83 56.8701 254.44 57.1401L254.58 57.2001L254.77 57.2801C254.849 57.3147 254.934 57.3318 255.02 57.3301C255.096 57.3389 255.174 57.3389 255.25 57.3301L254.54 57.7901L254.22 57.9801C254.051 57.8487 253.844 57.7751 253.63 57.7701C253.4 57.7629 253.172 57.7293 252.95 57.6701L252.57 57.5301C251.95 57.3101 251.5 58.3301 252.12 58.6001L252.26 58.6501H252.38L252.55 58.7201L252.96 58.8701C252.85 59.0001 252.73 59.1101 252.62 59.2401H252.34L251.51 59.3501C251.357 59.3549 251.211 59.4173 251.102 59.5247C250.992 59.6322 250.927 59.7769 250.92 59.9301C250.922 60.0857 250.985 60.2343 251.096 60.3444C251.206 60.4545 251.354 60.5175 251.51 60.5201L252.42 60.4001C252.69 60.3956 252.957 60.3449 253.21 60.2501C253.484 60.0836 253.714 59.8538 253.88 59.5801C253.973 59.5557 254.059 59.5094 254.13 59.445C254.201 59.3806 254.256 59.3001 254.29 59.2101C254.29 59.2101 254.82 58.9101 254.92 58.8401L255.56 58.4401C256.029 58.1797 256.466 57.8641 256.86 57.5001C257.52 56.7901 257.22 56.0601 256.65 55.4101C256.568 55.3373 256.468 55.2887 256.36 55.2698C256.252 55.2508 256.141 55.2622 256.04 55.3026C255.938 55.3431 255.849 55.4111 255.784 55.4989C255.719 55.5867 255.679 55.691 255.67 55.8001Z" fill="#747474"/>
<path d="M246.9 60.8501C246.882 60.7081 246.812 60.5777 246.704 60.4833C246.597 60.3888 246.458 60.3367 246.315 60.3367C246.172 60.3367 246.034 60.3888 245.926 60.4833C245.818 60.5777 245.749 60.7081 245.73 60.8501C245.73 61.3101 244.63 61.9801 244.23 62.1001C243.949 62.1872 243.652 62.2111 243.36 62.1701C243.905 61.7392 244.371 61.2183 244.74 60.6301C245.13 59.9901 244.12 59.4001 243.74 60.0401C243.284 60.8054 242.618 61.4233 241.82 61.8201C241.736 61.8731 241.666 61.9469 241.617 62.0343C241.569 62.1218 241.543 62.2201 241.543 62.3201C241.543 62.42 241.569 62.5184 241.617 62.6058C241.666 62.6933 241.736 62.767 241.82 62.8201C242.258 63.1111 242.759 63.2914 243.282 63.3454C243.805 63.3994 244.333 63.3255 244.82 63.1301C245.65 62.7979 246.334 62.181 246.75 61.3901C246.801 61.3392 246.839 61.278 246.863 61.2106C246.888 61.1432 246.897 61.0714 246.89 61.0001L246.9 60.8501Z" fill="#747474"/>
<path d="M234.81 61.3301C234.552 61.1831 234.302 61.0229 234.06 60.8501C233.85 60.7101 233.63 60.5801 233.41 60.4601C233.772 60.2463 234.107 59.9912 234.41 59.7001C234.97 59.1801 234.14 58.3501 233.58 58.8701C233.061 59.364 232.418 59.7094 231.72 59.8701C231.11 60.0101 231.22 60.8101 231.72 61.0001C232.374 61.2582 232.996 61.5939 233.57 62.0001C233.914 62.3223 234.319 62.5737 234.76 62.7401C235.18 62.79 235.606 62.7231 235.991 62.5467C236.375 62.3703 236.704 62.0911 236.94 61.7401C237.73 60.5101 234.95 59.2001 234.81 61.3301Z" fill="#747474"/>
<path d="M231.95 16.9801C231.543 16.7575 231.161 16.4927 230.81 16.1901C232.07 15.9101 233.81 16.0201 234.61 16.7901C235.15 17.3201 235.98 16.4901 235.44 15.9601C234.06 14.6301 231.06 14.6301 229.43 15.4401C229.353 15.4857 229.288 15.5482 229.239 15.6228C229.19 15.6975 229.158 15.7823 229.147 15.8709C229.135 15.9595 229.144 16.0496 229.172 16.1343C229.2 16.219 229.248 16.2962 229.31 16.3601C229.88 17.0154 230.556 17.5699 231.31 18.0001C232.06 18.3601 232.61 17.3501 231.95 16.9801Z" fill="#747474"/>
<path d="M173.13 17.4501C171.562 17.6742 170.039 18.1468 168.62 18.8501C168.533 18.7866 168.428 18.7525 168.32 18.7525C168.212 18.7525 168.107 18.7866 168.02 18.8501C166.836 19.7387 165.47 20.3535 164.02 20.6501C163.3 20.6537 162.582 20.5732 161.88 20.4101C161.736 20.384 161.587 20.4125 161.463 20.4901C161.338 20.5678 161.247 20.6889 161.207 20.8299C161.167 20.9709 161.181 21.1218 161.247 21.253C161.312 21.3843 161.424 21.4866 161.56 21.5401C162.358 21.8206 163.21 21.9163 164.05 21.8201C164.16 21.8201 164.27 21.8201 164.38 21.8201C164.38 21.9201 164.29 22.0201 164.24 22.1201C163.98 22.6901 164.67 23.3501 165.16 22.8301C167.362 20.529 170.283 19.0475 173.44 18.6301C174.19 18.4701 173.87 17.3401 173.13 17.4501Z" fill="#747474"/>
<path d="M177.64 20.9101C177.774 20.8557 177.883 20.7541 177.947 20.6246C178.011 20.4951 178.025 20.3467 177.987 20.2074C177.949 20.0681 177.861 19.9477 177.74 19.8689C177.619 19.7902 177.473 19.7586 177.33 19.7801C176.724 19.918 176.097 19.9485 175.48 19.8701C175.348 19.8199 175.228 19.7422 175.128 19.6423C175.028 19.5423 174.95 19.4222 174.9 19.2901C174.854 19.1436 174.754 19.0201 174.62 18.9441C174.487 18.8681 174.33 18.8452 174.18 18.8801C172.05 19.2101 169.18 19.9301 167.88 21.8001C167.8 21.7616 167.71 21.7468 167.621 21.7574C167.533 21.7681 167.449 21.8037 167.38 21.8601C167.062 22.0603 166.786 22.3221 166.57 22.6301C166.49 22.7125 166.437 22.8163 166.415 22.9289C166.393 23.0415 166.405 23.158 166.448 23.264C166.492 23.3701 166.565 23.4612 166.66 23.5262C166.754 23.5912 166.866 23.6273 166.98 23.6301C169.26 23.6301 169.71 25.0301 171.7 23.9101C171.798 23.8506 171.876 23.7641 171.926 23.6611C171.975 23.558 171.993 23.4428 171.979 23.3295C171.964 23.2161 171.916 23.1096 171.842 23.0227C171.768 22.9358 171.67 22.8723 171.56 22.8401C170.918 22.7152 170.286 22.5414 169.67 22.3201C171.014 21.2264 172.722 20.6832 174.45 20.8001H174.68C175.136 21.0337 175.637 21.1646 176.148 21.1836C176.659 21.2026 177.169 21.1092 177.64 20.9101Z" fill="#747474"/>
<path d="M180.53 21.8601C180.328 21.852 180.126 21.887 179.938 21.9629C179.75 22.0388 179.58 22.1537 179.44 22.3001L177.24 24.2001C176.79 24.5901 177.24 25.3301 177.81 25.2001C178.536 25.0558 179.224 24.7594 179.827 24.3302C180.43 23.901 180.936 23.3488 181.31 22.7101C181.371 22.5984 181.395 22.4706 181.379 22.3445C181.364 22.2185 181.309 22.1004 181.223 22.0068C181.137 21.9132 181.025 21.8488 180.9 21.8225C180.776 21.7962 180.647 21.8093 180.53 21.8601Z" fill="#747474"/>
<path d="M158.46 17.7001C157.52 17.7433 156.578 17.7266 155.64 17.6501C155.441 17.5783 155.237 17.5214 155.03 17.4801C155.655 16.9846 156.336 16.565 157.06 16.2301C158.569 16.1445 160.082 16.2351 161.57 16.5001L161.5 16.5701C160.99 17.1201 161.82 17.9501 162.33 17.4001C162.833 16.9516 163.276 16.4408 163.65 15.8801C163.712 15.7673 163.736 15.638 163.72 15.5105C163.704 15.383 163.648 15.2638 163.56 15.1701C162.42 13.7201 160.26 14.0801 158.73 14.4601C158.11 14.6227 157.502 14.8264 156.91 15.0701H156.65C156.546 15.0739 156.444 15.1069 156.358 15.1652C156.271 15.2235 156.203 15.3048 156.16 15.4001C155.013 15.9707 153.966 16.7239 153.06 17.6301C152.59 18.0701 153.06 18.6901 153.63 18.6301C154.149 18.5378 154.684 18.5814 155.181 18.7566C155.679 18.9318 156.123 19.2327 156.47 19.6301C156.583 19.7348 156.731 19.793 156.885 19.793C157.039 19.793 157.187 19.7348 157.3 19.6301L158.58 18.8801C159.18 18.6301 159.19 17.6301 158.46 17.7001Z" fill="#747474"/>
<path d="M155.11 13.4501C155.69 13.0401 155.19 12.1001 154.61 12.3901C154.572 12.3346 154.523 12.2873 154.467 12.2511C154.41 12.2148 154.347 12.1904 154.28 12.1792C154.214 12.168 154.146 12.1702 154.081 12.1859C154.016 12.2015 153.954 12.2301 153.9 12.2701C151.95 13.6358 150.167 15.2268 148.59 17.0101C148.16 17.4901 148.71 18.2901 149.3 17.9301C149.611 17.7207 149.899 17.4794 150.16 17.2101C150.5 16.8901 150.45 16.8701 150.95 16.9101C151.302 16.971 151.64 17.0929 151.95 17.2701C152.087 17.3426 152.246 17.3612 152.396 17.3223C152.546 17.2835 152.676 17.1899 152.76 17.0601C153.32 15.9701 154.06 14.2001 155.11 13.4501Z" fill="#747474"/>
<path d="M144.2 13.1401C144.35 13.2501 144.28 13.1401 144.2 13.0501C144.302 12.9439 144.359 12.8023 144.359 12.6551C144.359 12.5078 144.302 12.3662 144.2 12.2601C144.015 12.0533 143.77 11.9102 143.499 11.8509C143.227 11.7917 142.945 11.8194 142.69 11.9301C142.12 12.1801 141.76 12.8601 141.39 13.3301C141.329 13.3947 141.284 13.4721 141.257 13.5565C141.229 13.641 141.221 13.7304 141.233 13.8184C141.244 13.9064 141.275 13.9908 141.323 14.0654C141.371 14.1401 141.435 14.2031 141.51 14.2501C141.911 14.5613 142.37 14.7891 142.86 14.9201C143.28 15.0401 143.86 15.1801 144.2 14.8201C144.308 14.721 144.382 14.5901 144.411 14.4462C144.44 14.3024 144.422 14.1531 144.36 14.0201C144.412 13.9534 144.449 13.8766 144.469 13.7946C144.49 13.7126 144.492 13.6273 144.477 13.5443C144.462 13.4612 144.429 13.3823 144.382 13.3126C144.334 13.243 144.272 13.1842 144.2 13.1401Z" fill="#747474"/>
<path d="M142.88 16.1901C142.62 16.0801 142.37 15.9701 142.13 15.8501C141.684 15.5102 141.299 15.0978 140.99 14.6301C140.58 13.6301 140.22 12.1601 139.35 11.4001C139.343 11.3134 139.318 11.2291 139.277 11.1525C139.235 11.0759 139.179 11.0087 139.11 10.9552C139.041 10.9016 138.962 10.8629 138.878 10.8413C138.794 10.8198 138.706 10.816 138.62 10.8301C138.1 10.9301 137.85 11.1401 137.78 11.4101C137.692 11.5097 137.643 11.6373 137.64 11.7701C137.659 12.1758 137.768 12.5722 137.96 12.9301C137.957 12.9767 137.957 13.0235 137.96 13.0701C138.11 13.4001 138.27 13.7201 138.44 14.0701C138.61 14.4201 138.82 14.8201 139.04 15.1801C139.104 15.2855 139.198 15.3692 139.31 15.4201C139.336 15.4827 139.377 15.5378 139.43 15.5801C139.468 15.6627 139.528 15.7328 139.605 15.7824C139.681 15.8319 139.769 15.8589 139.86 15.8601C140.409 16.302 141.018 16.6624 141.67 16.9301C141.928 17.0899 142.207 17.2112 142.5 17.2901C142.638 17.3132 142.779 17.2868 142.899 17.2156C143.019 17.1443 143.11 17.0328 143.156 16.9009C143.201 16.769 143.199 16.6252 143.148 16.495C143.098 16.3649 143.003 16.2568 142.88 16.1901Z" fill="#747474"/>
<path d="M137.25 13.2001C137.258 13.0807 137.231 12.9615 137.173 12.857C137.115 12.7525 137.028 12.6671 136.922 12.6111C136.816 12.555 136.696 12.5308 136.577 12.5413C136.458 12.5517 136.344 12.5965 136.25 12.6701C134.98 13.7901 136.16 14.9801 137.09 15.8301C136.485 15.77 135.877 15.7499 135.27 15.7701C134.97 15.7701 134.62 15.8501 134.27 15.8801C133.95 15.6301 133.61 15.4301 133.27 15.1601L132.97 14.8601C133.059 14.2758 133.345 13.7395 133.78 13.3401C133.872 13.2268 133.919 13.0834 133.912 12.9375C133.904 12.7917 133.843 12.6538 133.74 12.5506C133.636 12.4473 133.499 12.386 133.353 12.3786C133.207 12.3711 133.063 12.4179 132.95 12.5101C131.73 13.5101 129.81 14.8801 131.43 16.2901C131.425 16.4126 131.463 16.5329 131.538 16.6299C131.613 16.7269 131.72 16.7942 131.84 16.8201C133.905 17.2971 136.036 17.4121 138.14 17.1601C138.44 17.1601 138.74 17.2601 139.05 17.3301C139.178 17.3691 139.316 17.3635 139.44 17.314C139.565 17.2645 139.669 17.1742 139.735 17.0579C139.801 16.9416 139.826 16.8061 139.805 16.6739C139.784 16.5416 139.719 16.4204 139.62 16.3301C138.641 15.4442 137.837 14.3825 137.25 13.2001Z" fill="#747474"/>
<path d="M124.86 17.6301L124.37 18.4001C124.173 18.3073 123.991 18.186 123.83 18.0401C123.524 17.7872 123.261 17.4867 123.05 17.1501C122.88 16.6201 122.7 16.1501 122.52 15.5701C122.634 14.964 122.788 14.3661 122.98 13.7801C123.21 13.0501 122.08 12.7801 121.85 13.4601C121.7 13.9501 121.57 14.4601 121.47 14.9301C121.389 14.9989 121.328 15.0879 121.293 15.1881C121.258 15.2882 121.25 15.3958 121.27 15.5001C121.27 15.6201 121.27 15.7301 121.33 15.8501C121.191 16.6334 121.281 17.44 121.587 18.174C121.894 18.908 122.405 19.5384 123.06 19.9901C123.442 20.3024 123.908 20.4948 124.399 20.5428C124.89 20.5909 125.385 20.4925 125.82 20.2601C126.72 19.6401 126.2 18.3401 125.99 17.4801C125.94 17.3601 125.852 17.2599 125.74 17.195C125.627 17.1301 125.496 17.1042 125.368 17.1213C125.239 17.1384 125.119 17.1976 125.027 17.2895C124.936 17.3815 124.877 17.5012 124.86 17.6301Z" fill="#747474"/>
<path d="M122.81 20.4301C122.108 20.056 121.488 19.5431 120.99 18.9226C120.491 18.302 120.124 17.5868 119.91 16.8201C120.14 16.3733 120.325 15.9042 120.46 15.4201C120.482 15.3458 120.489 15.2676 120.479 15.1906C120.469 15.1137 120.443 15.0397 120.402 14.9736C120.362 14.9075 120.307 14.8507 120.243 14.807C120.179 14.7633 120.107 14.7337 120.03 14.7201C119.998 14.6501 119.951 14.5878 119.893 14.5375C119.835 14.4871 119.766 14.4497 119.692 14.428C119.618 14.4062 119.541 14.4005 119.465 14.4112C119.388 14.4219 119.315 14.4488 119.25 14.4901L114.38 17.4901C113.783 17.5973 113.176 17.6342 112.57 17.6001C111.86 17.6001 111.84 18.5301 112.42 18.7501L112.86 19.0201C112.6 19.4101 112.96 20.0901 113.5 19.9101C113.703 19.8543 113.894 19.7592 114.06 19.6301C114.69 19.2801 115.36 18.8801 116.06 18.5201C116.839 18.4 117.599 18.1781 118.32 17.8601C118.319 18.1648 118.387 18.4658 118.52 18.7401C119.26 20.2901 120.82 20.7401 122.29 21.4601C122.9 21.7601 123.49 20.8001 122.81 20.4301Z" fill="#747474"/>
<path d="M112.16 22.7101C111.835 22.437 111.479 22.2022 111.1 22.0101L111.04 21.9601L110.93 21.8701C110.894 21.8423 110.854 21.8219 110.81 21.8101C110.382 21.4859 109.981 21.1281 109.61 20.7401C109.61 20.0301 109.51 19.3301 109.4 18.6301C109.29 17.9301 108.15 18.2001 108.27 18.9401C108.391 19.7413 108.458 20.5498 108.47 21.3601C108.472 21.4626 108.499 21.5631 108.55 21.6522C108.6 21.7414 108.673 21.8163 108.76 21.8701C108.831 21.9021 108.898 21.9424 108.96 21.9901C109.401 22.8262 110.006 23.5643 110.74 24.1601C110.91 24.4113 111.112 24.6398 111.34 24.8401L111.44 24.9801C111.498 25.0674 111.58 25.137 111.675 25.1811C111.77 25.2253 111.876 25.2422 111.98 25.2301C112.068 25.261 112.163 25.2712 112.256 25.2599C112.348 25.2486 112.437 25.2161 112.516 25.1648C112.594 25.1136 112.66 25.045 112.707 24.9644C112.755 24.8839 112.783 24.7934 112.79 24.7001C112.829 24.3872 112.799 24.0696 112.7 23.7701C112.632 23.3702 112.443 23.0005 112.16 22.7101Z" fill="#747474"/>
<path d="M110.2 24.1801C109.422 23.7002 108.743 23.0756 108.2 22.3401C107.79 21.8801 107.2 22.3401 107.2 22.8501L105.99 23.1801C105.302 22.4707 104.741 21.6488 104.33 20.7501C104.09 20.2501 103.42 20.4801 103.25 20.8901C103.02 21.4801 102.57 22.1401 102.78 22.7801C102.99 23.4201 103.9 24.0601 104.38 24.4801C104.584 24.6986 104.843 24.8578 105.13 24.9406C105.417 25.0234 105.721 25.0266 106.01 24.9501C107.255 24.8596 108.506 24.9607 109.72 25.2501C110.36 25.4001 110.82 24.4801 110.2 24.1801Z" fill="#747474"/>
<path d="M103.19 24.0701C103.206 23.9999 103.207 23.9272 103.193 23.8567C103.179 23.7861 103.151 23.7192 103.11 23.6601C102.925 23.2614 102.768 22.8505 102.64 22.4301L101.97 21.0501C101.879 20.9744 101.774 20.9179 101.661 20.8839C101.547 20.8498 101.428 20.8391 101.31 20.8521C101.193 20.8652 101.079 20.9019 100.976 20.9599C100.873 21.018 100.782 21.0963 100.71 21.1901C100.422 21.5738 100.193 21.9985 100.03 22.4501C99.9402 22.9301 100.37 23.1801 100.63 23.5201C100.89 23.8601 101.22 24.4201 101.57 24.8301C101.924 25.155 102.38 25.346 102.86 25.3701C103.31 25.4701 103.86 24.9501 103.52 24.5101L103.19 24.0701Z" fill="#747474"/>
<path d="M46.47 15.9001C45.97 16.4601 46.8 17.3001 47.3 16.7301C47.7643 16.3036 48.3266 15.9983 48.9372 15.8413C49.5477 15.6843 50.1876 15.6804 50.8 15.8301L50.68 16.0401C50.2876 16.3692 49.9137 16.7197 49.56 17.0901C49.4834 17.162 49.4273 17.253 49.3976 17.3538C49.368 17.4546 49.3657 17.5616 49.3912 17.6635C49.4167 17.7655 49.469 17.8588 49.5426 17.9337C49.6162 18.0087 49.7085 18.0627 49.81 18.0901C50.71 18.3901 51.21 17.5401 51.61 16.8001C51.81 16.6401 51.99 16.4701 52.2 16.3201C52.2768 16.2744 52.3422 16.2119 52.3914 16.1373C52.4405 16.0626 52.472 15.9778 52.4836 15.8892C52.4951 15.8006 52.4864 15.7106 52.4581 15.6258C52.4297 15.5411 52.3825 15.4639 52.32 15.4001C50.84 14.0101 47.77 14.4201 46.47 15.9001Z" fill="#747474"/>
<path d="M41.6801 12.7501C41.3201 12.0801 40.3001 12.6801 40.6801 13.3401C40.9101 13.7501 41.1001 14.1701 41.2901 14.6001C40.1202 14.4567 38.9348 14.5039 37.7801 14.7401C37.9831 14.2855 38.2382 13.8559 38.5401 13.4601C39.0001 12.8501 37.9801 12.2701 37.5401 12.8601C36.9887 13.6008 36.5816 14.4387 36.3401 15.3301C36.1593 15.3359 35.9789 15.3526 35.8001 15.3801C35.9501 14.8501 36.1201 14.3201 36.3101 13.8001C36.5701 13.0901 35.4401 12.8001 35.1801 13.4901C34.847 14.4143 34.5633 15.3557 34.3301 16.3101C34.2001 16.8401 34.9101 17.3101 35.3301 16.8801C35.4846 16.7276 35.6729 16.6137 35.8797 16.5477C36.0864 16.4817 36.3058 16.4654 36.5201 16.5001C36.6438 16.5002 36.7639 16.4578 36.8601 16.3801C36.9562 16.3816 37.0504 16.3537 37.1301 16.3001C38.3901 15.4601 40.6701 15.6901 42.1301 15.8501C42.2253 15.8641 42.3226 15.8498 42.4098 15.8089C42.4969 15.768 42.5701 15.7023 42.6201 15.6201C42.7137 15.5554 42.7819 15.4601 42.8129 15.3506C42.8439 15.2411 42.8358 15.1243 42.7901 15.0201C42.4677 14.241 42.097 13.4829 41.6801 12.7501Z" fill="#747474"/>
<path d="M25.57 21.1101L25.3 21.0301C25.3889 21.001 25.4666 20.9449 25.5221 20.8696C25.5777 20.7943 25.6084 20.7036 25.61 20.6101H25.66C25.7937 20.6055 25.9275 20.6122 26.06 20.6301C26.3307 20.6925 26.5952 20.7795 26.85 20.8901C26.9619 20.9549 27.0919 20.9813 27.2202 20.965C27.3485 20.9487 27.4679 20.8908 27.56 20.8001C27.98 20.3301 28.42 19.8701 28.84 19.4001C29.1202 19.1703 29.2996 18.8402 29.34 18.4801C29.34 17.5901 28.34 16.8801 27.66 16.4101C26.98 15.9401 26.47 16.9801 27.07 17.4101C27.357 17.6154 27.6248 17.8463 27.87 18.1001L28.07 18.3501C28.27 18.3501 28.25 18.4201 28.01 18.5601C27.7174 18.974 27.3823 19.3561 27.01 19.7001C26.01 19.3701 24.3 19.0501 24.48 20.4601C24.4981 20.5868 24.5539 20.7053 24.64 20.8001C24.0063 20.6425 23.3437 20.6425 22.71 20.8001C21.99 21.0201 22.29 22.1501 23.02 21.9301C23.7964 21.8305 24.5854 21.9339 25.31 22.2301C25.4434 22.2302 25.573 22.1852 25.6775 22.1023C25.782 22.0193 25.8553 21.9034 25.8855 21.7735C25.9157 21.6435 25.9009 21.5072 25.8436 21.3867C25.7863 21.2662 25.6899 21.1687 25.57 21.1101Z" fill="#747474"/>
<path d="M20.5498 25.9801C20.1162 25.5606 19.6364 25.1916 19.1198 24.8801C19.0267 24.8349 18.9237 24.8139 18.8203 24.8187C18.717 24.8236 18.6164 24.8543 18.528 24.908C18.4395 24.9617 18.3658 25.0367 18.3138 25.1261C18.2617 25.2155 18.2328 25.3166 18.2298 25.4201V25.4901C18.0414 26.2498 18.0903 27.049 18.3698 27.7801C18.4412 28.2414 18.6193 28.6797 18.8898 29.0601C18.5498 29.3301 18.0998 29.2201 17.6698 29.4701C17.3423 29.6927 17.1131 30.0329 17.0298 30.4201C16.7898 31.1401 17.9198 31.4201 18.1598 30.7301C18.2598 30.4301 19.1598 30.3501 19.4198 30.1901C19.7473 29.9755 20.0046 29.6695 20.1598 29.3101C20.2294 29.1742 20.2465 29.0175 20.2077 28.8699C20.169 28.7223 20.0772 28.5942 19.9498 28.5101C19.4771 27.9079 19.239 27.1546 19.2798 26.3901C19.4998 26.5701 19.6998 26.7701 19.9098 26.9401C20.1198 27.1101 20.5898 27.5201 20.9098 27.8201C20.9337 27.888 20.972 27.95 21.022 28.0018C21.0721 28.0535 21.1327 28.0939 21.1998 28.1201L21.3598 28.1901C21.9198 28.4401 22.6098 27.7401 22.0698 27.2701C21.5298 26.8001 21.0598 26.4001 20.5498 25.9801Z" fill="#747474"/>
<path d="M16.92 39.3801C17.0629 39.3646 17.2071 39.3646 17.35 39.3801H17.49C17.4773 39.5222 17.5165 39.6642 17.6005 39.7796C17.6844 39.8951 17.8073 39.9762 17.9465 40.0079C18.0856 40.0396 18.2316 40.0199 18.3573 39.9522C18.4829 39.8846 18.5798 39.7737 18.63 39.6401C18.699 39.3888 18.6765 39.1212 18.5666 38.885C18.4568 38.6488 18.2666 38.4592 18.03 38.3501C17.6452 38.1878 17.2245 38.1292 16.81 38.1801C16.81 37.8501 16.97 37.1801 17.43 37.0701C17.5323 37.044 17.6256 36.991 17.7004 36.9165C17.7752 36.8421 17.8287 36.749 17.8552 36.6468C17.8818 36.5447 17.8805 36.4373 17.8514 36.3359C17.8223 36.2344 17.7666 36.1426 17.69 36.0701C17.2585 35.7246 16.7761 35.448 16.26 35.2501C15.56 34.9701 15.26 36.1001 15.95 36.3801C16.0394 36.414 16.1262 36.4541 16.21 36.5001C16.0797 36.6521 15.9595 36.8124 15.85 36.9801C15.7267 37.1709 15.6449 37.3856 15.61 37.6101C15.61 37.8001 15.82 38.8101 15.49 38.8701C14.75 39.0401 15.07 40.1401 15.81 40.0001C15.9936 39.9514 16.1809 39.9179 16.37 39.9001C16.5056 39.8847 16.6326 39.8257 16.7318 39.7319C16.831 39.6381 16.897 39.5146 16.92 39.3801Z" fill="#747474"/>
<path d="M19.8299 48.6301C19.87 48.1041 19.87 47.576 19.8299 47.0501C19.8139 46.9167 19.7582 46.7913 19.6699 46.6901C19.9099 46.2701 19.6099 45.6101 19.0499 45.8201C18.5316 46.0134 18.0434 46.2794 17.5999 46.6101C17.2662 46.8484 16.9697 47.1348 16.7199 47.4601C16.6501 47.4884 16.588 47.5327 16.5385 47.5895C16.489 47.6463 16.4536 47.7139 16.4351 47.787C16.4166 47.86 16.4156 47.9363 16.432 48.0098C16.4485 48.0833 16.4821 48.1519 16.5299 48.2101C17.0304 48.8787 17.5785 49.5103 18.1699 50.1001C18.873 50.6459 19.461 51.3257 19.8999 52.1001C20.1499 52.7701 21.1999 52.5201 21.0499 51.8701C21.0532 51.8468 21.0532 51.8233 21.0499 51.8001C21.4899 50.9301 21.8099 49.8001 21.0499 49.0301C20.8918 48.8729 20.6992 48.7549 20.4874 48.6854C20.2755 48.616 20.0504 48.597 19.8299 48.6301ZM17.8399 47.9801L17.9399 47.8701C18.0762 47.7387 18.2197 47.6151 18.3699 47.5001L18.6799 47.3001C18.725 47.8291 18.725 48.361 18.6799 48.8901C18.3825 48.5857 18.1021 48.2653 17.8399 47.9301V47.9801ZM19.6599 49.9801C19.7271 49.9274 19.8082 49.8955 19.8932 49.8881C19.9783 49.8807 20.0636 49.8983 20.1389 49.9385C20.2141 49.9788 20.276 50.0401 20.3171 50.1149C20.3581 50.1898 20.3765 50.275 20.3699 50.3601C20.3896 50.4692 20.3896 50.5809 20.3699 50.6901C20.1199 50.3401 19.8899 50.1101 19.6599 49.8801V49.9801Z" fill="#747474"/>
<path d="M30.5602 59.8201C29.9102 59.5401 29.2202 59.2801 28.5602 58.9701C28.7177 58.7793 28.931 58.6429 29.1702 58.5801C29.3067 58.5266 29.4184 58.4243 29.4836 58.293C29.5488 58.1618 29.5628 58.0109 29.5228 57.8699C29.4829 57.7289 29.3919 57.6078 29.2676 57.5301C29.1432 57.4525 28.9944 57.424 28.8502 57.4501C28.3174 57.6013 27.8519 57.9292 27.5302 58.3801C27.1449 58.0453 26.8083 57.6582 26.5302 57.2301L26.7202 57.0701C26.8202 56.9801 26.9502 56.8301 27.0902 56.8501C27.6902 56.9201 27.8502 56.0301 27.3802 55.7501C26.9102 55.4701 26.3802 55.0001 25.8702 55.1401C25.7479 55.0981 25.6149 55.099 25.4932 55.1426C25.3714 55.1863 25.2681 55.27 25.2002 55.3801L24.6502 56.1901C24.5866 56.303 24.5619 56.4337 24.58 56.562C24.5981 56.6903 24.6579 56.8091 24.7502 56.9001C24.953 57.091 25.1434 57.2948 25.3202 57.5101C25.3506 57.579 25.391 57.643 25.4402 57.7001L25.5002 57.7501C25.8706 58.334 26.3294 58.8569 26.8602 59.3001C27.8563 59.9181 28.9156 60.4276 30.0202 60.8201C30.6602 61.1201 31.2502 60.1101 30.5602 59.8201Z" fill="#747474"/>
<path d="M38.7901 60.6801C38.4313 60.3732 38.097 60.0388 37.7901 59.6801C37.3101 59.0901 36.4801 59.9301 36.9601 60.5001C37.2622 60.8816 37.5968 61.2362 37.9601 61.5601L38.4301 61.9401H37.9901C37.6054 61.8834 37.2292 61.7793 36.8701 61.6301C36.8297 61.4164 36.7482 61.2127 36.6301 61.0301C36.6705 60.933 36.6756 60.8248 36.6445 60.7243C36.6135 60.6239 36.5482 60.5374 36.4601 60.4801C36.3453 60.3739 36.2071 60.2961 36.0568 60.2529C35.9065 60.2098 35.7481 60.2025 35.5944 60.2317C35.4408 60.2609 35.2961 60.3257 35.172 60.4209C35.048 60.5162 34.948 60.6392 34.8801 60.7801C34.6201 61.4701 35.1001 61.8301 35.6101 62.1101C36.2701 63.1101 38.4901 63.1101 39.3701 63.1101C39.4519 63.1146 39.5337 63.1004 39.6092 63.0685C39.6847 63.0367 39.752 62.9881 39.806 62.9265C39.8599 62.8648 39.8991 62.7917 39.9207 62.7126C39.9422 62.6335 39.9454 62.5506 39.9301 62.4701C39.9864 62.4177 40.0313 62.3542 40.0621 62.2837C40.0928 62.2131 40.1086 62.137 40.1086 62.0601C40.1086 61.9831 40.0928 61.907 40.0621 61.8365C40.0313 61.7659 39.9864 61.7025 39.9301 61.6501C39.5901 61.2801 39.1601 61.0101 38.7901 60.6801Z" fill="#747474"/>
<path d="M50.2503 59.9601C49.6432 59.7377 49.0859 59.3979 48.6103 58.9601C48.1403 58.5601 47.2803 59.1001 47.6903 59.6701C47.7178 59.7118 47.7479 59.7519 47.7803 59.7901C47.9475 60.0108 48.1424 60.2091 48.3603 60.3801C48.502 60.498 48.6524 60.6049 48.8103 60.7001L48.6703 60.7901C48.2432 61.1154 47.7802 61.3906 47.2903 61.6101C47.2158 61.6326 47.1375 61.6395 47.0603 61.6301C47.0115 61.3344 46.9026 61.0519 46.7403 60.8001C46.7776 60.6971 46.7869 60.586 46.7674 60.4782C46.7478 60.3704 46.7 60.2697 46.6289 60.1864C46.5577 60.1031 46.4658 60.0401 46.3624 60.0038C46.259 59.9676 46.1478 59.9594 46.0403 59.9801C44.6203 60.2801 44.3803 61.4001 45.5603 62.2101C45.6912 62.3007 45.8366 62.3683 45.9903 62.4101C46.0982 62.588 46.259 62.7279 46.4503 62.8101C47.2303 63.1601 48.0303 62.5901 48.6703 62.2101C49.0903 61.9601 49.9503 61.6301 50.2203 61.1001C50.337 61.0592 50.4386 60.9838 50.5115 60.8838C50.5843 60.7838 50.6251 60.6641 50.6284 60.5404C50.6316 60.4168 50.5972 60.295 50.5297 60.1914C50.4621 60.0877 50.3647 60.0071 50.2503 59.9601Z" fill="#747474"/>
</svg>
