<svg width="281" height="90" viewBox="0 0 281 90" fill="none" xmlns="http://www.w3.org/2000/svg">
<path d="M0 49.04L34.04 66.46L35.67 63.29L1.87 46.02L0 49.04Z" fill="#747474"/>
<path d="M2.69043 44.8L36.2404 62.15V56.24L8.31043 41.71L2.69043 44.8Z" fill="#747474"/>
<path d="M36.2401 54.49L33.5601 52.95L44.0601 32.26L45.9301 35.44L36.2401 54.49Z" fill="#747474"/>
<path d="M23.0904 21.37L18.4904 21.81L8.92041 40.71L12.0904 41.95L22.5604 22.16L12.9504 42.37L32.4604 52.67L43.4104 31.67L23.0904 21.37ZM31.5204 49.44L16.2204 41.71L24.6904 24.93L40.2204 32.71L31.5204 49.44Z" fill="#747474"/>
<path d="M25.1802 26.21L17.6802 41.23L31.1902 48.14L38.8902 33.24L25.1802 26.21Z" fill="#747474"/>
<path d="M26.8804 12.39L48.4204 23.46L41.2904 11.69L26.8804 12.39Z" fill="#747474"/>
<path d="M14.94 26.21L13.94 24.93C12.0162 26.4389 10.4304 28.3346 9.28491 30.4946C8.13944 32.6546 7.45985 35.0309 7.29004 37.47H9.22004L14.94 26.21Z" fill="#747474"/>
<path d="M39.8903 54.15C39.5585 53.97 39.3113 53.6661 39.2026 53.3045C39.0939 52.9429 39.1327 52.5531 39.3103 52.22L45.0403 41.37C45.222 41.0398 45.5267 40.7948 45.8881 40.688C46.2495 40.5813 46.6384 40.6215 46.9703 40.8C47.3022 40.98 47.5494 41.2839 47.6581 41.6454C47.7667 42.007 47.728 42.3969 47.5503 42.73L41.8203 53.57C41.6404 53.9018 41.3364 54.1491 40.9749 54.2577C40.6133 54.3664 40.2235 54.3276 39.8903 54.15Z" fill="#747474"/>
<path d="M47.9703 44.07L43.8203 52.37L50.0903 55.31C50.0903 55.31 53.4303 49.24 55.0103 48.51L47.9703 44.07Z" fill="#747474"/>
<path d="M59.2202 50.58L54.2202 57.3L58.9402 59.75L60.0902 51.93C60.0902 51.93 60.4302 49.69 59.2202 50.58Z" fill="#747474"/>
<path d="M62.3 55.06L61.73 61.25L64.95 62.76L66.13 57.14C66.13 57.14 63.04 55.37 62.3 55.06Z" fill="#747474"/>
<path d="M71.9101 62.31L69.3501 65L71.5101 65.85C72.0401 66.06 77.3301 62.31 77.3301 62.31H71.9101Z" fill="#747474"/>
<path d="M80.4702 62.31L76.4702 69.48L78.4702 71.72L83.5202 62.31H80.4702Z" fill="#747474"/>
<path d="M84.0104 63.37L78.6304 74.43L79.2004 74.12L81.3204 71.19L87.6704 70.13C87.6704 70.13 84.8204 62.76 84.0104 63.37Z" fill="#747474"/>
<path d="M46.7101 34.25L44.8301 31.04L48.4201 24.37L50.2201 27.29L50.0201 27.66C49.5369 27.676 49.0637 27.8013 48.6359 28.0265C48.2081 28.2517 47.8368 28.5708 47.5501 28.96C47.2027 29.4775 47.0172 30.0867 47.0172 30.71C47.0172 31.3333 47.2027 31.9425 47.5501 32.46L46.7101 34.25Z" fill="#747474"/>
<path d="M22.5602 13.37C22.4302 13.27 26.3902 13.13 26.3902 13.13L23.6202 20.13H19.2202L20.0002 18.26C20.0002 18.26 22.3302 18.77 23.2602 17.02C23.6509 16.443 23.7966 15.7345 23.6653 15.0502C23.5341 14.3658 23.1366 13.7616 22.5602 13.37Z" fill="#747474"/>
<path d="M27.2201 13.57L23.6201 20.08L44.1001 30.55L47.7201 24.03L27.2201 13.57ZM31.6001 22.37C31.1052 22.3799 30.6186 22.2421 30.2023 21.9742C29.7861 21.7063 29.4592 21.3203 29.2633 20.8657C29.0675 20.4111 29.0116 19.9085 29.1027 19.4219C29.1939 18.9354 29.428 18.487 29.7752 18.1342C30.1223 17.7813 30.5668 17.54 31.0518 17.4409C31.5368 17.3418 32.0403 17.3896 32.4981 17.578C32.9558 17.7664 33.347 18.087 33.6216 18.4989C33.8963 18.9107 34.042 19.395 34.0401 19.89C34.0428 20.5417 33.7879 21.168 33.3308 21.6325C32.8738 22.097 32.2517 22.3621 31.6001 22.37ZM40.4601 26.88C39.9682 26.9338 39.4714 26.8398 39.0331 26.61C38.5948 26.3802 38.235 26.025 37.9994 25.5898C37.7639 25.1545 37.6635 24.659 37.7108 24.1664C37.7582 23.6738 37.9513 23.2065 38.2654 22.8241C38.5796 22.4417 39.0005 22.1616 39.4746 22.0196C39.9486 21.8775 40.4542 21.8799 40.9269 22.0265C41.3996 22.1731 41.8178 22.4572 42.1283 22.8425C42.4388 23.2279 42.6274 23.697 42.6701 24.19C42.7203 24.8317 42.5171 25.4675 42.1039 25.9611C41.6908 26.4546 41.1006 26.7666 40.4601 26.83V26.88Z" fill="#747474"/>
<path d="M20.4403 19.26C19.9217 18.6578 19.6114 17.9042 19.5555 17.1114C19.4997 16.3186 19.7013 15.529 20.1303 14.86C21.1303 13.47 23.7003 13.86 23.9903 13.86L23.8203 14.86C23.2103 14.76 21.5003 14.67 20.9203 15.45C20.6327 15.9223 20.4958 16.4711 20.5279 17.0231C20.5601 17.5752 20.7598 18.1043 21.1003 18.54L20.4403 19.26Z" fill="#747474"/>
<path d="M48.1003 32.72C47.4956 32.7281 46.8959 32.6088 46.3403 32.37L46.7503 31.49C46.9703 31.59 48.9403 32.49 49.7503 30.75C49.9937 30.2416 50.0308 29.6587 49.8536 29.1235C49.6765 28.5884 49.299 28.1427 48.8003 27.88L49.2903 27.03C50.0008 27.4151 50.5362 28.0585 50.7856 28.8272C51.035 29.5959 50.9794 30.4311 50.6303 31.16C50.4939 31.4881 50.2911 31.7845 50.0347 32.0306C49.7783 32.2766 49.4738 32.4671 49.1403 32.59C48.8037 32.6926 48.4519 32.7366 48.1003 32.72Z" fill="#747474"/>
<path d="M280.44 49.04L246.4 66.46L244.77 63.29L278.57 46.02L280.44 49.04Z" fill="#747474"/>
<path d="M277.75 44.8L244.2 62.15V56.24L272.13 41.71L277.75 44.8Z" fill="#747474"/>
<path d="M244.2 54.49L246.89 52.95L236.38 32.26L234.51 35.44L244.2 54.49Z" fill="#747474"/>
<path d="M237.03 31.61L247.98 52.66L267.49 42.37L257.88 22.17L268.35 41.96L271.52 40.72L261.95 21.8L257.35 21.36L237.03 31.61ZM240.21 32.71L255.76 24.93L264.22 41.71L248.92 49.44L240.21 32.71Z" fill="#747474"/>
<path d="M255.26 26.21L262.76 41.23L249.25 48.14L241.55 33.24L255.26 26.21Z" fill="#747474"/>
<path d="M253.56 12.39L232.02 23.46L239.15 11.69L253.56 12.39Z" fill="#747474"/>
<path d="M265.5 26.21L266.5 24.93C268.422 26.4398 270.006 28.336 271.15 30.4959C272.293 32.6559 272.971 35.0317 273.14 37.47H271.22L265.5 26.21Z" fill="#747474"/>
<path d="M240.55 54.15C240.882 53.97 241.13 53.6661 241.238 53.3045C241.347 52.9429 241.308 52.5531 241.13 52.22L235.4 41.37C235.219 41.0398 234.914 40.7948 234.553 40.688C234.191 40.5813 233.802 40.6215 233.47 40.8C233.139 40.98 232.891 41.2839 232.783 41.6454C232.674 42.007 232.713 42.3969 232.89 42.73L238.62 53.57C238.8 53.9018 239.104 54.1491 239.466 54.2577C239.827 54.3664 240.217 54.3276 240.55 54.15Z" fill="#747474"/>
<path d="M232.47 44.07L236.62 52.37L230.35 55.31C230.35 55.31 227.01 49.24 225.43 48.51L232.47 44.07Z" fill="#747474"/>
<path d="M221.27 50.58L226.22 57.3L221.5 59.75L220.35 51.93C220.35 51.93 220.01 49.69 221.27 50.58Z" fill="#747474"/>
<path d="M218.14 55.06L218.71 61.25L215.49 62.76L214.31 57.14C214.31 57.14 217.4 55.37 218.14 55.06Z" fill="#747474"/>
<path d="M208.53 62.31L211.09 65L208.93 65.85C208.4 66.06 203.11 62.31 203.11 62.31H208.53Z" fill="#747474"/>
<path d="M199.97 62.31L203.97 69.48L201.97 71.72L196.92 62.31H199.97Z" fill="#747474"/>
<path d="M196.43 63.37L201.81 74.43L201.24 74.12L199.12 71.19L192.77 70.13C192.77 70.13 195.62 62.76 196.43 63.37Z" fill="#747474"/>
<path d="M233.73 34.25L235.61 31.04L232.02 24.37L230.27 27.3L230.47 27.67C230.953 27.686 231.426 27.8113 231.854 28.0365C232.282 28.2617 232.653 28.5808 232.94 28.97C233.287 29.4875 233.473 30.0967 233.473 30.72C233.473 31.3433 233.287 31.9525 232.94 32.47L233.73 34.25Z" fill="#747474"/>
<path d="M257.88 13.37C258.01 13.27 254.05 13.13 254.05 13.13L256.82 20.13H261.22L260.44 18.26C260.44 18.26 258.11 18.77 257.18 17.02C256.79 16.443 256.644 15.7345 256.775 15.0502C256.906 14.3658 257.304 13.7616 257.88 13.37Z" fill="#747474"/>
<path d="M232.72 24.03L236.34 30.55L256.82 20.08L253.22 13.57L232.72 24.03ZM246.4 19.84C246.416 19.3587 246.573 18.8928 246.852 18.5003C247.131 18.1079 247.52 17.8064 247.969 17.6334C248.418 17.4605 248.909 17.4239 249.379 17.5281C249.849 17.6322 250.278 17.8727 250.612 18.2193C250.947 18.5659 251.171 19.0033 251.258 19.4769C251.346 19.9504 251.291 20.4392 251.102 20.882C250.913 21.3249 250.598 21.7022 250.195 21.9669C249.793 22.2315 249.322 22.3717 248.84 22.37C248.513 22.3661 248.19 22.2974 247.89 22.1678C247.59 22.0381 247.319 21.8502 247.092 21.6148C246.865 21.3795 246.687 21.1014 246.568 20.7967C246.449 20.4921 246.392 20.1669 246.4 19.84ZM237.77 24.14C237.82 23.659 238.01 23.2033 238.318 22.8305C238.626 22.4576 239.038 22.1842 239.501 22.0447C239.964 21.9052 240.458 21.9059 240.92 22.0465C241.383 22.1872 241.793 22.4617 242.1 22.8353C242.407 23.2089 242.597 23.6651 242.645 24.1462C242.693 24.6274 242.598 25.112 242.371 25.5392C242.145 25.9663 241.797 26.3168 241.371 26.5465C240.946 26.7762 240.462 26.8748 239.98 26.83C239.658 26.7987 239.346 26.7043 239.061 26.5521C238.775 26.3999 238.523 26.193 238.318 25.9432C238.112 25.6933 237.958 25.4055 237.864 25.0961C237.77 24.7867 237.738 24.4618 237.77 24.14Z" fill="#747474"/>
<path d="M260 19.26C260.519 18.6578 260.829 17.9042 260.885 17.1114C260.941 16.3186 260.739 15.529 260.31 14.86C259.31 13.47 256.74 13.86 256.45 13.86L256.62 14.86C257.23 14.76 258.94 14.67 259.52 15.45C259.808 15.9223 259.945 16.4711 259.913 17.0231C259.88 17.5752 259.681 18.1043 259.34 18.54L260 19.26Z" fill="#747474"/>
<path d="M232.34 32.72C232.948 32.7155 233.547 32.5826 234.1 32.33L233.69 31.45C233.47 31.55 231.5 32.45 230.69 30.71C230.447 30.2016 230.41 29.6187 230.587 29.0836C230.764 28.5485 231.141 28.1028 231.64 27.84L231.15 26.99C230.439 27.3751 229.904 28.0185 229.655 28.7872C229.405 29.5559 229.461 30.3911 229.81 31.12C229.946 31.4481 230.149 31.7445 230.406 31.9906C230.662 32.2367 230.967 32.4271 231.3 32.55C231.634 32.6662 231.986 32.7237 232.34 32.72Z" fill="#747474"/>
<path d="M99.0902 24.93L88.2202 16.58L107.93 21.37C108.909 21.3498 109.876 21.1462 110.78 20.77C111.422 20.4147 112.091 20.1105 112.78 19.86C112.78 19.86 113.43 15.13 112.3 14.61L117.43 16.97C118.025 17.3437 118.737 17.486 119.43 17.37C120.04 17.2658 120.603 16.9753 121.042 16.5385C121.481 16.1016 121.773 15.5398 121.88 14.93C122.04 13.55 122.61 8.09 122.61 8.09C122.61 8.09 123.34 7.68 124.4 8.9C125.46 10.12 129.29 14.44 129.29 14.44C130.152 14.9574 131.135 15.2401 132.14 15.26C133.52 15.18 136.37 14.69 137.51 14.77C137.51 14.77 138.98 12 139.22 11.27C139.46 10.54 139.39 9.64 139.96 10.04C141.158 11.4683 142.273 12.964 143.3 14.52C143.3 14.52 154.21 15.34 155.51 15.42C156.81 15.5 163.22 8 163.22 8C163.22 8 163.95 8.07 163.95 8.64C163.95 9.21 163.3 15.24 163.3 15.24C163.331 15.619 163.451 15.9854 163.649 16.3101C163.847 16.6348 164.118 16.9087 164.44 17.11C165.5 17.68 166.96 18.25 166.96 18.25C168.316 18.1892 169.659 17.9642 170.96 17.58C171.86 17.11 176.67 15.07 176.67 15.07V20.69C176.806 21.2139 177.086 21.6888 177.48 22.06C177.915 22.4235 178.432 22.6748 178.987 22.7916C179.541 22.9084 180.116 22.8873 180.66 22.73C182.29 22.37 192.22 18.49 192.22 18.49L187.82 24.93H171.62C171.62 24.93 166.12 19.31 142.81 18.33C142.81 18.33 119.98 19.47 113.55 24.93H99.0902Z" fill="#747474"/>
<path d="M142.81 19.63C126.81 19.63 117.81 24.93 117.81 24.93H168.96C168.96 24.93 158.53 19.65 142.81 19.63ZM142.81 21.35C148.773 21.4803 154.699 22.3263 160.46 23.87H125.93C125.93 23.87 135.5 21.37 142.81 21.37V21.35Z" fill="#747474"/>
<path d="M210.91 61.54H69.53L69.38 60.74C69.38 60.54 68.38 55.92 64.2 54.65L63.5 54.45V33.93L64.2 33.72C68.46 32.45 69.37 27.72 69.38 27.64L69.53 26.84H210.91L211.06 27.64C211.06 27.84 212.01 32.45 216.24 33.72L216.94 33.93V54.45L216.24 54.65C211.98 55.93 211.07 60.65 211.06 60.73L210.91 61.54ZM71.1 59.54H209.34C209.729 58.094 210.438 56.7539 211.414 55.6185C212.39 54.4831 213.609 53.5814 214.98 52.98V35.37C213.609 34.7685 212.39 33.8668 211.414 32.7314C210.438 31.596 209.729 30.2559 209.34 28.81H71.1C70.711 30.2559 70.0023 31.596 69.0261 32.7314C68.0499 33.8668 66.8312 34.7685 65.46 35.37V53.02C66.8312 53.6214 68.0499 54.5231 69.0261 55.6585C70.0023 56.7939 70.711 58.134 71.1 59.58V59.54Z" fill="#747474"/>
<path d="M208.22 57.79H72.22L72.12 57.44C71.714 56.2948 71.0802 55.2436 70.257 54.3499C69.4338 53.4562 68.4381 52.7385 67.33 52.24L67.02 52.12V36.26L67.33 36.14C68.4381 35.6414 69.4338 34.9237 70.257 34.03C71.0802 33.1363 71.714 32.0852 72.12 30.94L72.22 30.59H208.22L208.32 30.94C208.726 32.0852 209.36 33.1363 210.183 34.03C211.006 34.9237 212.002 35.6414 213.11 36.14L213.42 36.26V52.12L213.11 52.24C212 52.735 211.002 53.4516 210.178 54.3457C209.355 55.2399 208.722 56.2928 208.32 57.44L208.22 57.79ZM72.89 56.79H207.53C208.425 54.4417 210.191 52.5289 212.46 51.45V36.91C210.191 35.831 208.425 33.9183 207.53 31.57H72.91C72.0154 33.9183 70.2495 35.831 67.98 36.91V51.47C70.2495 52.5489 72.0154 54.4617 72.91 56.81L72.89 56.79Z" fill="#747474"/>
</svg>
