<svg width="295" height="90" viewBox="0 0 295 90" fill="none" xmlns="http://www.w3.org/2000/svg">
<path d="M28.83 30.6523C28.83 30.6523 21.99 31.8723 20.15 33.1023C18.31 34.3323 0.64 49.9523 0 56.1823C0.886655 55.5713 1.82722 55.0424 2.81 54.6023C4.43 53.8623 5.17 56.4723 12.17 52.4023C12.17 52.4023 13.47 52.1523 13.07 53.0523C12.67 53.9523 11.85 55.4923 11.85 55.4923C11.85 55.4923 16.85 50.4923 17.55 50.2823C18.25 50.0723 17.06 52.2823 17.06 52.2823C17.06 52.2823 15.06 57.9023 17.3 58.2823C17.3 58.2823 18.44 55.9223 19.99 55.5923C22.946 54.6539 25.7898 53.393 28.47 51.8323C31.47 50.1223 35.23 46.8323 35.64 46.1323C35.64 46.1323 31.89 52.8923 31.97 55.1323C32.05 57.3723 32.3 58.6323 32.87 58.3023C33.44 57.9723 33.28 56.0223 35.15 55.3723C37.02 54.7223 40.47 53.5423 42.39 51.7523C44.31 49.9623 45.97 48.1623 45.97 48.1623C46.192 48.3079 46.355 48.5275 46.4301 48.7821C46.5052 49.0367 46.4874 49.3096 46.38 49.5523C46.38 49.5523 49.64 46.4223 51.67 44.5523C51.67 44.5523 52.4 43.7923 51.67 46.1623C51.2291 47.6396 51.063 49.1852 51.18 50.7223C53.2536 49.3874 55.2563 47.9455 57.18 46.4023L58.81 44.5523C58.81 44.5523 58.89 48.2723 58.81 48.9323C58.73 49.5923 60.36 47.5823 61.25 47.0723C62.921 45.8004 64.3503 44.239 65.47 42.4623C66.2506 42.2873 67.063 42.3148 67.83 42.5423L68.72 42.9523V39.8523H64.05C64.05 39.8523 63.4 36.7623 63.97 36.0323C63.97 36.0323 55.74 40.2623 48.17 40.0323C48.17 40.0323 47.76 37.0323 48.74 36.2023C48.74 36.2023 43.45 38.5623 42.14 38.5623C42.14 38.5623 41.74 35.7923 42.31 34.8223C38.4775 36.7387 34.2066 37.6081 29.93 37.3423C28.9968 37.4009 28.0702 37.5381 27.16 37.7523C26.8395 35.2616 27.4328 32.7391 28.83 30.6523Z" fill="#747474"/>
<path d="M43.4701 19.8323C43.4701 19.8323 35.0601 21.6823 31.7301 23.1523C28.4001 24.6223 21.9501 29.4123 19.3101 29.6023C19.3101 29.6023 19.4101 31.3623 21.0701 31.1723C22.7301 30.9823 28.9001 28.2323 33.3001 28.6323C33.3001 28.6323 27.7201 32.2423 28.0201 36.0623C28.0201 36.0623 30.1701 35.9623 32.3201 36.0623C34.4701 36.1623 41.8301 34.8723 45.1901 32.3623C45.1901 32.3623 42.9301 35.1123 43.6601 36.8223C43.6601 36.8223 50.2601 34.6823 51.3501 33.8923C51.3501 33.8923 49.5801 36.7023 49.4601 38.1623C49.4601 38.1623 57.1601 39.0823 65.8901 33.5223C65.4727 34.9367 65.2079 36.3916 65.1001 37.8623L68.4601 38.2223L68.7401 31.8123C68.7401 31.8123 72.9801 31.2623 73.4701 29.6723C73.4701 29.6723 70.1301 29.6123 68.7401 28.1523C67.3501 26.6923 66.7401 25.7023 67.5401 24.8523C64.5236 25.3523 61.4423 25.3117 58.4401 24.7323C52.6401 23.8123 51.2901 22.0423 52.5201 20.9423C52.4701 20.9423 45.7901 20.9723 43.4701 19.8323Z" fill="#747474"/>
<path d="M42.4703 15.6723C42.4703 15.6723 41.4703 15.9923 42.4703 17.0523C43.4703 18.1123 46.9903 19.4123 48.6203 19.4523C50.2503 19.4923 54.4803 19.4523 55.4603 19.4523C54.9013 20.189 54.2606 20.86 53.5503 21.4523C53.1403 21.5723 55.5503 22.8323 57.5503 23.1223C59.5503 23.4123 66.7903 23.6923 71.4303 22.4323L68.7003 25.2823C68.7003 25.2823 67.8903 26.1323 69.0303 26.9023C70.1703 27.6723 73.1803 28.6623 74.1603 28.2923C74.8782 27.1901 75.2475 25.8973 75.2203 24.5823H87.7203C87.7203 24.5823 86.5003 21.9823 86.6203 21.2423H83.6203C83.6203 21.2423 83.0103 18.3523 83.6203 17.8223C83.6203 17.8223 72.9903 17.5823 71.0303 13.9123C71.0303 13.9123 58.2103 14.0823 53.0303 14.6123C47.8503 15.1423 43.6103 16.3623 42.4703 15.6723Z" fill="#747474"/>
<path d="M71.6404 11.8023C71.6401 12.1889 71.7179 12.5714 71.8692 12.9271C72.0204 13.2829 72.2419 13.6043 72.5204 13.8723C73.5204 14.6723 78.6704 16.8723 84.4104 16.6423C84.6061 17.5653 84.6734 18.5109 84.6104 19.4523C85.5111 19.7771 86.4378 20.0246 87.3804 20.1923C87.3804 20.1923 88.3804 24.4623 89.9904 24.7123C91.1185 23.8723 92.1277 22.8833 92.9904 21.7723C93.6504 20.6323 93.6004 20.2023 95.3104 19.8323C97.0204 19.4623 99.1004 18.8323 98.5704 16.9723C98.0404 15.1123 94.9904 13.9723 89.8204 13.0623C86.4398 12.5113 83.0248 12.1972 79.6004 12.1223C77.4004 11.9623 74.2404 12.0523 72.8804 11.3523C71.5204 10.6523 71.6404 11.8023 71.6404 11.8023Z" fill="#747474"/>
<path d="M266.11 30.6523C266.11 30.6523 272.95 31.8723 274.79 33.1023C276.63 34.3323 294.3 49.9523 294.94 56.1823C294.054 55.5713 293.113 55.0424 292.13 54.6023C290.51 53.8623 289.77 56.4723 282.77 52.4023C282.77 52.4023 281.47 52.1523 281.87 53.0523C282.27 53.9523 283.09 55.4923 283.09 55.4923C283.09 55.4923 278.09 50.4923 277.39 50.2823C276.69 50.0723 277.88 52.2823 277.88 52.2823C277.88 52.2823 279.88 57.9023 277.64 58.2823C277.64 58.2823 276.5 55.9223 274.95 55.5923C271.994 54.6539 269.15 53.393 266.47 51.8323C263.47 50.1223 259.71 46.8323 259.3 46.1323C259.3 46.1323 263.05 52.8923 262.97 55.1323C262.89 57.3723 262.64 58.6323 262.07 58.3023C261.5 57.9723 261.66 56.0223 259.79 55.3723C257.92 54.7223 254.47 53.5423 252.55 51.7523C250.63 49.9623 248.97 48.1623 248.97 48.1623C248.748 48.3079 248.585 48.5275 248.51 48.7821C248.435 49.0367 248.453 49.3096 248.56 49.5523C248.56 49.5523 245.3 46.4223 243.27 44.5523C243.27 44.5523 242.54 43.7923 243.27 46.1623C243.711 47.6396 243.877 49.1852 243.76 50.7223C241.687 49.3874 239.684 47.9455 237.76 46.4023L236.13 44.5523C236.13 44.5523 236.05 48.2723 236.13 48.9323C236.21 49.5923 234.58 47.5823 233.69 47.0723C232.019 45.8004 230.59 44.239 229.47 42.4623C228.69 42.2873 227.877 42.3148 227.11 42.5423L226.22 42.9523V39.8523H230.86C230.86 39.8523 231.51 36.7623 230.94 36.0323C230.94 36.0323 239.17 40.2623 246.74 40.0323C246.74 40.0323 247.15 37.0323 246.17 36.2023C246.17 36.2023 251.46 38.5623 252.77 38.5623C252.77 38.5623 253.17 35.7923 252.6 34.8223C256.433 36.7387 260.704 37.6081 264.98 37.3423C265.913 37.4009 266.84 37.5381 267.75 37.7523C268.08 35.2653 267.497 32.7431 266.11 30.6523Z" fill="#747474"/>
<path d="M251.52 19.8323C251.52 19.8323 259.93 21.6823 263.26 23.1523C266.59 24.6223 273.04 29.4123 275.68 29.6023C275.68 29.6023 275.58 31.3623 273.92 31.1723C272.26 30.9823 266.09 28.2323 261.69 28.6323C261.69 28.6323 267.27 32.2423 266.97 36.0623C266.97 36.0623 264.82 35.9623 262.67 36.0623C260.52 36.1623 253.16 34.8723 249.8 32.3623C249.8 32.3623 252.06 35.1123 251.33 36.8223C251.33 36.8223 244.73 34.6823 243.64 33.8923C243.64 33.8923 245.41 36.7023 245.53 38.1623C245.53 38.1623 237.83 39.0823 229.1 33.5223C229.517 34.9367 229.782 36.3916 229.89 37.8623L226.53 38.2223L226.25 31.8123C226.25 31.8123 222.01 31.2623 221.52 29.6723C221.52 29.6723 224.86 29.6123 226.25 28.1523C227.64 26.6923 228.3 25.7023 227.45 24.8523C230.466 25.3523 233.548 25.3117 236.55 24.7323C242.35 23.8123 243.7 22.0423 242.47 20.9423C242.47 20.9423 249.15 20.9723 251.52 19.8323Z" fill="#747474"/>
<path d="M252.47 15.6723C252.47 15.6723 253.47 15.9923 252.47 17.0523C251.47 18.1123 247.95 19.4123 246.32 19.4523C244.69 19.4923 240.46 19.4523 239.48 19.4523C240.039 20.189 240.68 20.86 241.39 21.4523C241.8 21.5723 239.39 22.8323 237.44 23.1223C235.49 23.4123 228.2 23.6923 223.56 22.4323L226.29 25.2823C226.29 25.2823 227.1 26.1323 225.96 26.9023C224.82 27.6723 221.81 28.6623 220.83 28.2923C220.112 27.1901 219.743 25.8973 219.77 24.5823H207.27C207.27 24.5823 208.49 21.9823 208.37 21.2423H211.37C211.37 21.2423 211.98 18.3523 211.37 17.8223C211.37 17.8223 222 17.5823 223.96 13.9123C223.96 13.9123 236.78 14.0823 241.96 14.6123C247.14 15.1423 251.33 16.3623 252.47 15.6723Z" fill="#747474"/>
<path d="M223.3 11.8023C223.307 12.1853 223.237 12.5658 223.094 12.9213C222.952 13.2768 222.74 13.6002 222.47 13.8723C221.47 14.6723 216.32 16.8723 210.58 16.6423C210.384 17.5653 210.317 18.5109 210.38 19.4523C209.479 19.7771 208.553 20.0246 207.61 20.1923C207.61 20.1923 206.61 24.4623 205 24.7123C203.872 23.8723 202.863 22.8833 202 21.7723C201.34 20.6323 201.39 20.2023 199.68 19.8323C197.97 19.4623 195.89 18.8323 196.42 16.9723C196.95 15.1123 200 13.9723 205.17 13.0623C208.551 12.5113 211.966 12.1972 215.39 12.1223C217.59 11.9623 220.75 12.0523 222.11 11.3523C223.47 10.6523 223.3 11.8023 223.3 11.8023Z" fill="#747474"/>
<path d="M184.66 22.0023C184.705 21.961 184.736 21.907 184.749 21.8477C184.762 21.7883 184.757 21.7263 184.734 21.6699C184.712 21.6135 184.672 21.5653 184.621 21.5318C184.571 21.4983 184.511 21.4811 184.45 21.4823C183.667 21.5196 182.9 21.7099 182.19 22.0423C179.99 22.9623 179.19 23.5723 176.33 23.8123C173.47 24.0523 168.14 23.8123 168.14 23.8123C168.14 23.8123 166.19 24.1223 166.86 22.3423C167.53 20.5623 172.42 15.4423 172.42 15.4423C172.42 15.4423 172.42 15.0123 171.81 15.4423C171.2 15.8723 164.3 21.5523 162.4 22.0423C160.5 22.5323 158.92 22.9123 155.4 21.1023C152.15 19.4123 149.17 14.1023 147.71 10.1923C147.688 10.1357 147.65 10.087 147.6 10.0527C147.55 10.0184 147.491 10 147.43 10C147.369 10 147.31 10.0184 147.26 10.0527C147.21 10.087 147.172 10.1357 147.15 10.1923C145.69 14.0823 142.71 19.4123 139.46 21.1023C135.98 22.9123 134.39 22.5323 132.46 22.0423C130.53 21.5523 123.66 15.8723 123.05 15.4423C122.44 15.0123 122.44 15.4423 122.44 15.4423C122.44 15.4423 127.33 20.5723 128 22.3423C128.67 24.1123 126.72 23.8123 126.72 23.8123C126.72 23.8123 121.4 24.0523 118.53 23.8123C115.66 23.5723 114.87 22.9623 112.67 22.0423C111.961 21.7099 111.193 21.5196 110.41 21.4823C110.349 21.4811 110.29 21.4983 110.239 21.5318C110.188 21.5653 110.149 21.6135 110.126 21.6699C110.103 21.7263 110.098 21.7883 110.111 21.8477C110.124 21.907 110.155 21.961 110.2 22.0023C110.545 22.2881 110.815 22.6527 110.99 23.0652C111.164 23.4777 111.236 23.926 111.2 24.3723C111.196 24.4155 111.201 24.459 111.215 24.5002C111.228 24.5413 111.25 24.5791 111.28 24.6112C111.309 24.6432 111.344 24.6688 111.384 24.6862C111.424 24.7036 111.467 24.7125 111.51 24.7123H183.25C183.293 24.7125 183.336 24.7036 183.376 24.6862C183.416 24.6688 183.451 24.6432 183.481 24.6112C183.51 24.5791 183.532 24.5413 183.546 24.5002C183.559 24.459 183.564 24.4155 183.56 24.3723C183.536 23.9175 183.624 23.4637 183.816 23.0506C184.007 22.6374 184.297 22.2775 184.66 22.0023Z" fill="#747474"/>
<path d="M147.47 62.4123H129.47C129.47 62.4123 129.53 63.1523 131.12 63.2123C132.71 63.2723 134.79 63.2723 134.79 64.4323C134.79 65.5923 133.14 66.4323 133.14 66.4323C133.14 66.4323 132.14 67.7523 133.52 67.2623C134.9 66.7723 137.26 65.2623 138.47 65.3123C139.68 65.3623 141.02 66.5723 140.85 67.5423L140.69 68.5423C140.69 68.5423 140.41 69.5423 141.63 68.5423C142.85 67.5423 143.71 67.4423 144.4 68.4223C145.09 69.4023 147.46 75.1823 147.46 86.4223C147.46 75.1623 149.83 69.4223 150.52 68.4223C151.21 67.4223 152.07 67.5623 153.29 68.5423C154.51 69.5223 154.23 68.5423 154.23 68.5423L154.07 67.5423C153.9 66.5423 155.25 65.3923 156.45 65.3123C157.65 65.2323 160.05 66.7723 161.4 67.2623C162.75 67.7523 161.78 66.4323 161.78 66.4323C161.78 66.4323 160.13 65.6323 160.13 64.4323C160.13 63.2323 162.21 63.2723 163.8 63.2123C165.39 63.1523 165.45 62.4123 165.45 62.4123H147.47Z" fill="#747474"/>
<path d="M218.16 60.9123H76.78L76.63 60.1123C76.63 59.9123 75.63 55.3023 71.45 54.0323L70.75 53.8223V33.3023L71.45 33.1023C75.71 31.8223 76.62 27.1023 76.63 27.0223L76.78 26.2123H218.16L218.31 27.0223C218.31 27.2123 219.26 31.8223 223.49 33.1023L224.19 33.3023V53.8223L223.49 54.0323C219.23 55.3023 218.32 60.0323 218.31 60.1123L218.16 60.9123ZM78.35 58.9123H216.59C216.979 57.4664 217.688 56.1263 218.664 54.9909C219.64 53.8555 220.859 52.9538 222.23 52.3523V34.7523C220.859 34.1509 219.64 33.2492 218.664 32.1138C217.688 30.9784 216.979 29.6383 216.59 28.1923H78.35C77.961 29.6383 77.2523 30.9784 76.2761 32.1138C75.2999 33.2492 74.0812 34.1509 72.71 34.7523V52.3923C74.0812 52.9938 75.2999 53.8955 76.2761 55.0309C77.2523 56.1663 77.961 57.5064 78.35 58.9523V58.9123Z" fill="#747474"/>
<path d="M215.47 57.1623H79.47L79.37 56.8123C78.964 55.6671 78.3302 54.616 77.507 53.7223C76.6838 52.8286 75.6881 52.1109 74.58 51.6123L74.27 51.4923V35.6323L74.58 35.5123C75.6881 35.0138 76.6838 34.2961 77.507 33.4024C78.3302 32.5087 78.964 31.4576 79.37 30.3123L79.47 29.9623H215.47L215.57 30.3123C215.976 31.4576 216.61 32.5087 217.433 33.4024C218.256 34.2961 219.252 35.0138 220.36 35.5123L220.67 35.6323V51.4923L220.36 51.6123C219.252 52.1109 218.256 52.8286 217.433 53.7223C216.61 54.616 215.976 55.6671 215.57 56.8123L215.47 57.1623ZM80.14 56.1623H214.78C215.675 53.814 217.441 51.9013 219.71 50.8223V36.2823C217.441 35.2034 215.675 33.2906 214.78 30.9423H80.16C79.2654 33.2906 77.4995 35.2034 75.23 36.2823V50.8423C77.4995 51.9213 79.2654 53.834 80.16 56.1823L80.14 56.1623Z" fill="#747474"/>
</svg>
