<svg width="285" height="90" viewBox="0 0 285 90" fill="none" xmlns="http://www.w3.org/2000/svg">
<path d="M62.9611 54.28L59.3711 56.72L69.2311 63.64C69.2311 63.64 69.5611 59.08 67.7611 57.94C66.54 57.0891 65.0986 56.6098 63.6111 56.56L62.9611 54.28Z" fill="#747474"/>
<path d="M65.241 65.52L56.441 57.83C56.441 57.83 50.661 58.02 49.081 56.83C49.081 56.83 50.791 60.09 42.731 61.19C38.1493 61.9168 33.455 61.2696 29.241 59.33C29.241 59.33 28.511 60.88 31.521 63.64C34.531 66.4 40.641 69.51 54.731 71.46L56.121 72.36C56.121 72.36 55.471 70.16 56.041 69.75C56.611 69.34 57.751 71.75 57.751 71.75L62.311 71.5C62.311 71.5 61.491 68.5 63.371 67.02L65.241 65.52Z" fill="#747474"/>
<path d="M63.2809 37.91V50.04L59.3809 50.78L62.1409 37.91H63.2809Z" fill="#747474"/>
<path d="M53.4312 37.91L55.3012 39.7C55.3012 39.7 55.7112 44.42 54.3712 46.87C54.3712 46.87 52.4512 46.46 52.1312 45.32C51.8112 44.18 47.2012 37.42 47.2012 37.42C47.2012 37.42 25.8212 36.77 19.2012 35.14C12.5812 33.51 1.92115 30.01 0.801154 25.94C0.801154 25.94 -1.19885 28.54 1.12115 35.63C3.44115 42.72 13.9312 49.88 13.9312 49.88L16.8612 48.17C16.8612 48.17 17.5912 49.8 16.9412 50.78C16.9412 50.78 25.9412 53.87 31.4412 53.38L32.0812 50.45C32.8697 50.7384 33.6324 51.093 34.3612 51.51C35.6612 52.24 37.4612 52.65 41.6112 52.41C43.4853 52.3417 45.3529 52.1479 47.2012 51.83L49.2812 43.83L51.9612 47.66C51.9612 47.66 52.2912 50.59 51.6412 51.49L54.8112 51.16L58.1512 37.89L53.4312 37.91Z" fill="#747474"/>
<path d="M65.241 21.21L63.241 31.15L49.681 28.71C49.681 28.71 45.861 28.05 47.201 30.42L48.541 32.83C48.541 32.83 40.481 31.15 38.081 27L39.711 24.31C38.6943 24.4957 37.7252 24.8833 36.861 25.45C36.861 25.45 31.771 17.63 36.081 9C37.5248 11.3435 39.7002 13.1463 42.271 14.13C46.261 15.43 56.081 19.58 65.241 21.21Z" fill="#747474"/>
<path d="M67.271 21.29C67.441 21.54 66.271 31.52 66.271 31.52C66.271 31.52 69.041 31.6 69.851 26.4C70.3726 26.1039 70.9612 25.9456 71.561 25.94L72.211 22.43L67.271 21.29Z" fill="#747474"/>
<path d="M76.8812 22.92C76.8812 22.92 75.7412 26.26 76.0712 25.92C76.4012 25.58 90.0012 25.92 90.0012 25.92L76.8812 22.92Z" fill="#747474"/>
<path d="M221.201 54.28L224.791 56.72L214.931 63.64C214.931 63.64 214.601 59.08 216.401 57.94C217.622 57.0891 219.063 56.6098 220.551 56.56L221.201 54.28Z" fill="#747474"/>
<path d="M218.921 65.52L227.721 57.86C227.721 57.86 233.501 58.02 235.131 56.8C235.131 56.8 233.421 60.06 241.481 61.16C246.043 61.8861 250.719 61.2495 254.921 59.33C254.921 59.33 255.651 60.88 252.641 63.64C249.631 66.4 243.521 69.51 229.431 71.46L228.041 72.36C228.041 72.36 228.691 70.16 228.121 69.75C227.551 69.34 226.411 71.75 226.411 71.75L221.851 71.5C221.851 71.5 222.671 68.5 220.791 67.02L218.921 65.52Z" fill="#747474"/>
<path d="M220.881 37.91V50.04L224.791 50.78L222.021 37.91H220.881Z" fill="#747474"/>
<path d="M230.731 37.91L228.861 39.7C228.861 39.7 228.451 44.42 229.791 46.87C229.791 46.87 231.711 46.46 232.031 45.32C232.351 44.18 236.961 37.42 236.961 37.42C236.961 37.42 258.341 36.77 264.961 35.14C271.581 33.51 282.241 30.01 283.361 25.94C283.361 25.94 285.361 28.54 283.041 35.63C280.721 42.72 270.251 49.88 270.251 49.88L267.321 48.17C267.321 48.17 266.591 49.8 267.241 50.78C267.241 50.78 258.241 53.87 252.741 53.38L252.081 50.45C251.293 50.7384 250.53 51.093 249.801 51.51C248.501 52.24 246.701 52.65 242.551 52.41C240.681 52.3446 238.817 52.1541 236.971 51.84L234.891 43.84L232.211 47.67C232.211 47.67 231.881 50.6 232.531 51.5L229.361 51.17L226.021 37.9L230.731 37.91Z" fill="#747474"/>
<path d="M218.921 21.21L220.921 31.15L234.521 28.71C234.521 28.71 238.341 28.05 237.001 30.42L235.621 32.83C235.621 32.83 243.681 31.2 246.041 27.05L244.411 24.36C245.428 24.5457 246.397 24.9333 247.261 25.5C247.261 25.5 252.391 17.68 248.081 9.04999C246.637 11.3935 244.462 13.1963 241.891 14.18C237.901 15.43 228.081 19.58 218.921 21.21Z" fill="#747474"/>
<path d="M216.891 21.29C216.721 21.54 217.941 31.52 217.941 31.52C217.941 31.52 215.171 31.6 214.361 26.4C213.839 26.1039 213.251 25.9456 212.651 25.94L212.001 22.43L216.891 21.29Z" fill="#747474"/>
<path d="M207.281 22.92C207.281 22.92 208.421 26.26 208.091 25.92C207.761 25.58 194.161 25.92 194.161 25.92L207.281 22.92Z" fill="#747474"/>
<path d="M142.551 63.24H128.811C129.233 63.5971 129.514 64.0938 129.601 64.64C129.661 65.13 129.971 68.64 129.971 68.64L134.081 70.83C134.081 70.83 135.081 66.37 135.671 65.83V71.83C135.671 71.83 141.231 73.83 141.531 74.21L142.531 65.54L143.531 74.21C143.831 73.79 149.391 71.83 149.391 71.83V65.83C149.941 66.32 150.981 70.83 150.981 70.83L155.071 68.57C155.071 68.57 155.381 65.09 155.441 64.57C155.528 64.0238 155.809 63.5271 156.231 63.17L142.551 63.24Z" fill="#747474"/>
<path d="M116.161 25.96C116.161 25.96 115.311 25.24 116.161 23.59C117.011 21.94 124.011 12.8 139.401 9.59003C143.021 8.89291 146.769 9.39128 150.081 11.01C153.981 12.9 152.591 15.53 152.591 15.53L148.011 19.53C148.011 19.53 157.011 17.03 157.171 16.84C157.344 16.2323 157.568 15.6402 157.841 15.07C158.211 14.52 159.491 15.56 159.921 15.81C160.351 16.06 167.061 21.98 167.981 23.81C168.901 25.64 168.101 25.73 167.491 25.99L116.161 25.96Z" fill="#747474"/>
<path d="M212.771 62.02H71.3908L71.2408 61.22C71.2408 61.01 70.2408 56.4 66.0608 55.13L65.3608 54.92V34.41L66.0608 34.2C70.3208 32.92 71.2308 28.2 71.2408 28.12L71.3908 27.32H212.771L212.921 28.12C212.921 28.32 213.871 32.93 218.101 34.2L218.801 34.41V54.92L218.101 55.13C213.841 56.41 212.931 61.13 212.921 61.21L212.771 62.02ZM72.9608 60.02H211.201C211.59 58.5741 212.299 57.2339 213.275 56.0985C214.251 54.9631 215.47 54.0614 216.841 53.46V35.83C215.47 35.2286 214.251 34.3269 213.275 33.1915C212.299 32.0561 211.59 30.7159 211.201 29.27H72.9608C72.5718 30.7159 71.8631 32.0561 70.8869 33.1915C69.9108 34.3269 68.6921 35.2286 67.3208 35.83V53.5C68.6921 54.1014 69.9108 55.0031 70.8869 56.1385C71.8631 57.2739 72.5718 58.6141 72.9608 60.06V60.02Z" fill="#747474"/>
<path d="M210.081 58.27H74.0809L73.9809 57.92C73.5748 56.7748 72.9411 55.7237 72.1178 54.83C71.2946 53.9363 70.2989 53.2185 69.1909 52.72L68.8809 52.59V36.74L69.1909 36.62C70.2989 36.1215 71.2946 35.4037 72.1178 34.51C72.9411 33.6164 73.5748 32.5652 73.9809 31.42L74.0809 31.07H210.081L210.181 31.42C210.587 32.5652 211.221 33.6164 212.044 34.51C212.867 35.4037 213.863 36.1215 214.971 36.62L215.281 36.74V52.59L214.971 52.72C213.861 53.2151 212.863 53.9316 212.039 54.8258C211.216 55.7199 210.583 56.7729 210.181 57.92L210.081 58.27ZM74.7509 57.27H209.391C210.285 54.9217 212.051 53.009 214.321 51.93V37.39C212.05 36.3078 210.284 34.3915 209.391 32.04H74.7709C73.8775 34.3915 72.1116 36.3078 69.8409 37.39V51.95C72.1104 53.029 73.8763 54.9417 74.7709 57.29L74.7509 57.27Z" fill="#747474"/>
</svg>
