<svg width="278" height="90" viewBox="0 0 278 90" fill="none" xmlns="http://www.w3.org/2000/svg">
<path d="M209.21 62.0084H67.8298L67.6798 61.2084C67.6798 61.0084 66.6798 56.3984 62.4998 55.1284L61.7998 54.9184V34.3984L62.4998 34.1984C66.7598 32.9184 67.6698 28.1984 67.6798 28.1184L67.8298 27.3084H209.21L209.36 28.1184C209.36 28.3084 210.31 32.9184 214.54 34.1984L215.24 34.3984V54.9184L214.54 55.1284C210.28 56.3984 209.37 61.1284 209.36 61.1984L209.21 62.0084ZM69.3998 60.0084H207.64C208.029 58.5625 208.738 57.2223 209.714 56.0869C210.69 54.9515 211.909 54.0498 213.28 53.4484V35.8084C211.909 35.207 210.69 34.3053 209.714 33.1699C208.738 32.0345 208.029 30.6943 207.64 29.2484H69.3998C69.0108 30.6943 68.3021 32.0345 67.3259 33.1699C66.3497 34.3053 65.1311 35.207 63.7598 35.8084V53.4884C65.1311 54.0898 66.3497 54.9915 67.3259 56.1269C68.3021 57.2623 69.0108 58.6025 69.3998 60.0484V60.0084Z" fill="#747474"/>
<path d="M206.18 58.2584H70.5203L70.4203 57.9084C70.0143 56.7632 69.3805 55.7121 68.5573 54.8184C67.7341 53.9247 66.7384 53.2069 65.6303 52.7084L65.3203 52.5884V36.7284L65.6303 36.6084C66.7406 36.1133 67.7382 35.3968 68.5618 34.5026C69.3855 33.6085 70.0179 32.5556 70.4203 31.4084L70.5203 31.0584H206.52L206.62 31.4084C207.026 32.5536 207.66 33.6048 208.483 34.4984C209.307 35.3921 210.302 36.1099 211.41 36.6084L211.72 36.7284V52.5884L211.41 52.7084C210.302 53.2069 209.307 53.9247 208.483 54.8184C207.66 55.7121 207.026 56.7632 206.62 57.9084L206.52 58.2584H206.18ZM71.1803 57.2584H205.83C206.725 54.9101 208.491 52.9974 210.76 51.9184V37.3784C208.491 36.2995 206.725 34.3867 205.83 32.0384H71.2103C70.3157 34.3867 68.5498 36.2995 66.2803 37.3784V51.9384C68.5498 53.0174 70.3157 54.9301 71.2103 57.2784L71.1803 57.2584Z" fill="#747474"/>
<path d="M220.581 40.5784L222.381 51.0184C222.381 51.0184 217.701 48.0184 217.381 47.3284C217.061 46.6384 217.381 41.5084 217.381 41.5084L220.581 40.5784Z" fill="#747474"/>
<path d="M217.1 33.7084C217.1 33.7084 223.04 31.8284 222.72 26.9484C222.72 26.9484 222.98 23.6884 219.92 23.4384V19.6184C220.047 19.3201 220.254 19.063 220.519 18.8758C220.784 18.6886 221.096 18.5787 221.42 18.5584H275.82C275.82 18.5584 276.88 18.8784 277.04 19.5584V24.1984H228.91C228.91 24.1984 228.09 33.3184 217.1 37.3484V33.7084Z" fill="#747474"/>
<path d="M217.1 38.3484V39.8984C220.387 39.1625 223.412 37.5477 225.853 35.2264C228.295 32.9051 230.059 29.9645 230.96 26.7184H273.66L275.74 25.3784H229.74C228.961 28.4618 227.382 31.2849 225.163 33.5623C222.943 35.8398 220.162 37.4908 217.1 38.3484Z" fill="#747474"/>
<path d="M231.96 28.2884H266.36C264.832 33.5461 262.092 38.3721 258.36 42.3784L230.95 30.9384C231.38 30.0933 231.718 29.205 231.96 28.2884Z" fill="#747474"/>
<path d="M230.281 32.3384L256.791 43.6484C256.791 43.6484 249.021 51.7484 241.331 54.2984L227.811 35.2984C228.785 34.4486 229.619 33.4495 230.281 32.3384Z" fill="#747474"/>
<path d="M226.74 36.4884L239.05 54.6984C239.05 54.6984 231.29 55.8284 224.46 52.4184L221.65 39.8984C223.541 39.0827 225.267 37.9269 226.74 36.4884Z" fill="#747474"/>
<path d="M217.311 48.9384C217.311 48.9384 222.991 54.9384 229.311 56.0984C235.631 57.2584 257.861 56.9584 268.121 28.2884H273.121L275.121 32.3384C275.121 32.3384 272.001 40.9184 268.581 43.3384C265.161 45.7584 262.351 44.8784 262.351 44.8784L262.961 50.0084C262.961 50.0084 252.161 59.2984 248.581 60.0084C245.001 60.7184 242.301 57.8084 242.301 57.8084L240.301 61.7584C240.301 61.7584 230.411 62.2484 226.861 60.2984L224.421 56.2984L222.421 57.1484C222.421 57.1484 218.541 55.4884 217.351 54.3684L217.311 48.9384Z" fill="#747474"/>
<path d="M56.4602 40.5784L54.6602 51.0184C54.6602 51.0184 59.3402 48.0184 59.6602 47.3284C59.9802 46.6384 59.6602 41.5084 59.6602 41.5084L56.4602 40.5784Z" fill="#747474"/>
<path d="M59.94 33.7084C59.94 33.7084 54 31.8084 54.32 26.9484C54.32 26.9484 54.06 23.6884 57.12 23.4384V19.6184C56.9928 19.3201 56.7851 19.063 56.5202 18.8758C56.2554 18.6886 55.9437 18.5787 55.62 18.5584H1.22C1.22 18.5584 0.16 18.8784 0 19.5584V24.1984H48.13C48.13 24.1984 48.95 33.3184 59.94 37.3484V33.7084Z" fill="#747474"/>
<path d="M59.9398 38.3484V39.8984C56.6526 39.1625 53.627 37.5477 51.1859 35.2264C48.7449 32.9051 46.98 29.9645 46.0798 26.7184H3.3798L1.2998 25.3784H47.2998C48.0782 28.4618 49.657 31.2849 51.8765 33.5623C54.096 35.8398 56.8775 37.4908 59.9398 38.3484Z" fill="#747474"/>
<path d="M45.0797 28.2884H10.6797C12.2076 33.5461 14.9476 38.3721 18.6797 42.3784L46.0897 30.9384C45.6602 30.0933 45.3216 29.205 45.0797 28.2884Z" fill="#747474"/>
<path d="M46.76 32.3384L20.25 43.6484C20.25 43.6484 28.02 51.7484 35.71 54.2984L49.23 35.2984C48.2554 34.4486 47.4217 33.4495 46.76 32.3384Z" fill="#747474"/>
<path d="M50.3002 36.4884L37.9902 54.6984C37.9902 54.6984 45.7502 55.8084 52.5802 52.4184L55.3902 39.8984C53.4992 39.0827 51.774 37.9269 50.3002 36.4884Z" fill="#747474"/>
<path d="M59.7299 48.9384C59.7299 48.9384 54.0499 54.9384 47.7299 56.0984C41.4099 57.2584 19.1799 56.9584 8.91992 28.2884H3.91992L1.91992 32.3384C1.91992 32.3384 5.03992 40.9184 8.45992 43.3384C11.8799 45.7584 14.6899 44.8784 14.6899 44.8784L14.0799 50.0084C14.0799 50.0084 24.8799 59.2984 28.4599 60.0084C32.0399 60.7184 34.7399 57.8084 34.7399 57.8084L36.7399 61.7584C36.7399 61.7584 46.6299 62.2484 50.1799 60.2984L52.6199 56.2984L54.6199 57.1484C54.6199 57.1484 58.4999 55.4884 59.6899 54.3684L59.7299 48.9384Z" fill="#747474"/>
<path d="M162.4 62.9384H114.64C114.64 62.9384 113.11 62.8784 113.42 63.7984C113.73 64.7184 114.51 69.1684 114.64 70.0284C114.77 70.8884 115.92 71.1884 117.08 70.9484C118.24 70.7084 134.31 69.4184 138.52 69.5984C142.73 69.4184 158.8 70.6984 159.96 70.9484C161.12 71.1984 162.28 70.8884 162.4 70.0284C162.52 69.1684 163.32 64.7184 163.62 63.7984C163.92 62.8784 162.4 62.9384 162.4 62.9384ZM122.4 68.5584C122.005 68.5584 121.618 68.4411 121.289 68.2214C120.96 68.0016 120.704 67.6892 120.553 67.3238C120.401 66.9583 120.362 66.5562 120.439 66.1682C120.516 65.7803 120.706 65.4239 120.986 65.1442C121.266 64.8645 121.622 64.674 122.01 64.5968C122.398 64.5197 122.8 64.5593 123.166 64.7107C123.531 64.862 123.844 65.1184 124.063 65.4473C124.283 65.7762 124.4 66.1629 124.4 66.5584C124.4 66.8245 124.347 67.0878 124.244 67.3331C124.141 67.5784 123.99 67.8007 123.801 67.987C123.611 68.1732 123.385 68.3197 123.138 68.4178C122.891 68.5159 122.626 68.5637 122.36 68.5584H122.4ZM138.52 68.0384C138.158 68.0384 137.805 67.9311 137.504 67.73C137.203 67.5289 136.968 67.2431 136.83 66.9087C136.691 66.5743 136.655 66.2064 136.726 65.8514C136.796 65.4964 136.97 65.1703 137.226 64.9144C137.482 64.6585 137.808 64.4842 138.163 64.4136C138.518 64.343 138.886 64.3792 139.221 64.5177C139.555 64.6562 139.841 64.8908 140.042 65.1917C140.243 65.4927 140.35 65.8465 140.35 66.2084C140.35 66.6938 140.158 67.1592 139.814 67.5024C139.471 67.8456 139.006 68.0384 138.52 68.0384ZM154.71 68.5584C154.315 68.5584 153.928 68.4411 153.599 68.2214C153.27 68.0016 153.014 67.6892 152.863 67.3238C152.711 66.9583 152.672 66.5562 152.749 66.1682C152.826 65.7803 153.016 65.4239 153.296 65.1442C153.576 64.8645 153.932 64.674 154.32 64.5968C154.708 64.5197 155.11 64.5593 155.476 64.7107C155.841 64.862 156.154 65.1184 156.373 65.4473C156.593 65.7762 156.71 66.1629 156.71 66.5584C156.71 66.8236 156.658 67.0862 156.555 67.3308C156.453 67.5754 156.303 67.7972 156.114 67.9833C155.925 68.1695 155.701 68.3161 155.455 68.4149C155.209 68.5136 154.946 68.5624 154.68 68.5584H154.71Z" fill="#747474"/>
<path d="M185.39 8.8684C184.82 8.2384 182.54 7.4784 182.39 8.8684C182.24 10.2584 183.27 14.5984 182.54 17.1284C181.81 19.6584 178.54 23.7284 175.26 24.7684H167.26C168.094 23.7154 168.825 22.5833 169.44 21.3884C169.5 21.0157 169.486 20.6347 169.399 20.2674C169.311 19.9001 169.152 19.5538 168.93 19.2484C168.68 18.8791 168.334 18.5851 167.93 18.3984C167.947 18.0603 168.001 17.7251 168.09 17.3984C168.16 17.3016 168.206 17.1891 168.223 17.0707C168.241 16.9523 168.229 16.8314 168.19 16.7184C167.96 15.9984 166.19 14.8784 165.01 14.6384C164.895 14.6036 164.774 14.6036 164.66 14.6384C164.257 14.7988 163.871 14.9998 163.51 15.2384C162.538 14.3335 161.257 13.8359 159.93 13.8484C159.194 13.7291 158.445 13.7291 157.71 13.8484C157.594 13.8873 157.49 13.9563 157.41 14.0484L154.41 17.8184C154.334 17.087 154.334 16.3498 154.41 15.6184C154.479 15.4006 154.492 15.1686 154.446 14.9446C154.401 14.7205 154.298 14.5119 154.15 14.3384C153.918 14.0057 153.621 13.7235 153.278 13.5086C152.934 13.2938 152.55 13.1508 152.15 13.0884H151.53C139.18 12.5084 131.63 12.9484 127.47 13.4184C127.382 13.4297 127.297 13.4568 127.22 13.4984C126.688 13.8033 126.222 14.2113 125.85 14.6984C125.797 14.7921 125.75 14.889 125.71 14.9884C125.631 15.1865 125.523 15.3719 125.39 15.5384C125.39 15.5384 125.26 15.5384 124.98 15.2484L124.65 14.9084C123.58 13.7984 123.07 13.4484 120.45 13.9784C117.83 14.5084 117.17 14.8984 117.03 14.9784C116.906 15.0703 116.824 15.2066 116.8 15.3584C116.731 15.7763 116.617 16.1855 116.46 16.5784C116.15 16.4884 115.63 16.2884 115.26 16.1584C114.89 16.0284 114.42 15.8484 114.19 15.7884C113.26 15.5584 108.87 17.8584 107.63 19.4184C107.579 19.4252 107.533 19.4501 107.5 19.4884C107.32 19.6984 107.35 19.8284 107.56 20.0084C107.59 20.1119 107.653 20.203 107.74 20.2684C107.828 20.3326 107.931 20.3739 108.04 20.3884C108.18 20.5259 108.276 20.7017 108.317 20.8938C108.358 21.0858 108.341 21.2857 108.27 21.4684C108.273 21.5892 108.23 21.7068 108.15 21.7976C108.071 21.8884 107.96 21.9459 107.84 21.9584C107.41 22.0484 107.72 22.3584 107.72 22.3584C107.72 22.3584 108.72 23.5484 109 23.8184C109.203 24.0931 109.349 24.406 109.43 24.7384H101.95C98.6195 23.7884 95.2295 19.5784 94.4895 17.0384C93.7495 14.4984 94.7995 10.1584 94.6395 8.7784C94.4795 7.3984 92.1895 8.1484 91.6395 8.7784C85.3795 15.6684 87.6395 25.7784 87.6395 25.7784H89.7395C89.0759 23.8138 88.8874 21.7199 89.1895 19.6684C89.0695 21.5984 90.8395 25.8784 90.8395 25.8784H91.8395C91.8395 25.8184 91.5495 24.3884 91.3695 23.5684C91.7647 24.3735 92.2124 25.1519 92.7095 25.8984H94.9895C93.1195 23.8284 92.3195 19.9684 92.0695 18.4584C92.6895 21.0984 96.1895 25.8984 96.1895 25.8984H98.7195C97.7755 24.8754 96.981 23.724 96.3595 22.4784C96.7595 23.3684 99.8795 25.8384 99.8795 25.8384C99.8795 25.8384 111.59 25.8984 112.32 25.8384C113.05 25.7784 113.03 25.6284 113.03 25.6284C113.2 25.3884 112.75 23.8784 112.75 23.8784C112.138 22.6586 111.172 21.6515 109.98 20.9884C109.53 20.8684 109.38 19.8884 109.38 19.8884L108.97 19.7284C110.44 18.5258 112.113 17.5946 113.91 16.9784L114.79 17.2884C115.335 17.5204 115.901 17.7012 116.48 17.8284C116.73 17.8284 117.48 17.9584 117.89 15.8284C118.788 15.5099 119.711 15.2657 120.65 15.0984C122.74 14.6684 122.89 14.8184 123.73 15.6784L124.06 16.0284C124.237 16.2487 124.465 16.4222 124.725 16.5338C124.985 16.6454 125.268 16.6916 125.55 16.6684C126.26 16.5384 126.55 15.8384 126.77 15.4184C126.794 15.3524 126.824 15.2888 126.86 15.2284C127.097 14.9554 127.378 14.7225 127.69 14.5384C131.91 14.2084 139.36 13.8084 151.52 14.3584H152.19C152.645 14.5194 153.031 14.8341 153.28 15.2484C153.119 16.6739 153.119 18.1129 153.28 19.5384C153.29 19.6609 153.336 19.7776 153.412 19.8738C153.489 19.9699 153.592 20.0411 153.71 20.0784C153.827 20.1128 153.952 20.1122 154.069 20.0767C154.187 20.0412 154.291 19.9723 154.37 19.8784L158.27 15.0384C158.8 14.996 159.333 15.0127 159.86 15.0884H159.96C160.528 15.0806 161.091 15.1974 161.609 15.4307C162.128 15.6639 162.588 16.0079 162.96 16.4384C163.014 16.5054 163.082 16.5604 163.159 16.6C163.236 16.6396 163.32 16.6629 163.406 16.6686C163.493 16.6742 163.579 16.662 163.661 16.6327C163.742 16.6034 163.817 16.5577 163.88 16.4984C164.203 16.2312 164.563 16.0122 164.95 15.8484C165.687 16.0777 166.369 16.4592 166.95 16.9684C166.787 17.5614 166.703 18.1734 166.7 18.7884C166.696 18.9416 166.749 19.0907 166.849 19.207C166.948 19.3234 167.088 19.3987 167.24 19.4184C167.38 19.4473 167.512 19.5061 167.628 19.5906C167.743 19.6751 167.839 19.7835 167.91 19.9084C168.147 20.2324 168.266 20.6273 168.25 21.0284C167.436 22.4191 166.524 23.7492 165.52 25.0084C165.444 25.0989 165.397 25.2092 165.383 25.3261C165.369 25.443 165.389 25.5615 165.44 25.6672C165.492 25.7729 165.574 25.8614 165.675 25.9219C165.776 25.9825 165.892 26.0125 166.01 26.0084H176.52C176.663 26.0059 176.801 25.9528 176.91 25.8584L177.04 25.9284C177.04 25.9284 180.16 23.4584 180.56 22.5684C179.938 23.814 179.144 24.9654 178.2 25.9884H180.73C180.73 25.9884 184.23 21.1884 184.85 18.5484C184.6 20.0584 183.8 23.9184 181.93 25.9884H184.21C184.707 25.2419 185.154 24.4635 185.55 23.6584C185.37 24.4784 185.1 25.9084 185.08 25.9684H186.08C186.08 25.9684 187.85 21.6884 187.73 19.7584C188.032 21.8099 187.843 23.9038 187.18 25.8684H189.28C189.28 25.8684 191.65 15.8084 185.39 8.8684Z" fill="#747474"/>
<path d="M114.52 25.9884H118.67C118.67 25.9884 117.27 19.9884 116.29 19.2684C115.641 18.9226 114.916 18.7418 114.18 18.7418C113.444 18.7418 112.72 18.9226 112.07 19.2684C110.73 19.9384 111.77 20.2684 112.07 20.7384C112.37 21.2084 114.37 24.0284 114.52 25.9884Z" fill="#747474"/>
<path d="M119.69 25.9884H128C128 25.9884 126.1 19.1284 125.74 18.5584C125.38 17.9884 123.48 16.3984 122.59 16.3984C121.7 16.3984 117.92 17.3984 117.59 18.0484C117.326 19.1116 117.48 20.2354 118.02 21.1884C118.59 22.1384 119.81 25.0084 119.69 25.9884Z" fill="#747474"/>
<path d="M129.58 25.9884C129.58 25.9884 127.02 18.8984 127.08 17.5584C127.112 17.2526 127.112 16.9442 127.08 16.6384C127.077 16.4749 127.108 16.3124 127.17 16.1611C127.232 16.0098 127.325 15.8729 127.442 15.7586C127.559 15.6443 127.698 15.5552 127.851 15.4967C128.004 15.4382 128.167 15.4116 128.33 15.4184C129.33 15.4184 130.74 15.4784 131.11 15.9684C131.48 16.4584 131.29 17.0684 131.78 17.0384C132.27 17.0084 132.15 15.6084 133.13 15.4184C134.907 15.0919 136.721 15.0111 138.52 15.1784C139.6 15.4784 139.05 17.9884 138.75 18.2884C138.45 18.5884 135.57 22.0184 135.75 25.9884H129.58Z" fill="#747474"/>
<path d="M136.891 25.9884H139.161V20.1284C139.161 20.1284 136.991 20.4284 136.891 25.9884Z" fill="#747474"/>
<path d="M140.52 25.9884H142.82C142.82 25.9884 143.55 17.6784 144.29 16.7684C145.03 15.8584 143.37 15.1284 142.15 15.0584C141.834 15.0116 141.512 15.0575 141.223 15.1907C140.933 15.3239 140.689 15.5386 140.52 15.8084V25.9884Z" fill="#747474"/>
<path d="M144.52 25.9884H150.52C150.52 25.9884 152.59 17.1284 152.16 16.0884C151.73 15.0484 149.66 15.0884 148.34 15.3584C147.02 15.6284 145.02 16.8084 144.71 18.7384C144.524 21.1503 144.46 23.5701 144.52 25.9884Z" fill="#747474"/>
<path d="M152.52 25.9884C152.52 26.2484 158.26 25.9884 158.26 25.9884L161.52 19.4484C161.52 19.4484 162.52 17.0084 161.83 16.3984C161.14 15.7884 157.67 16.1584 156.88 17.8684C156.09 19.5784 155.66 21.2284 154.88 21.7684C154.1 22.3084 152.37 24.8084 152.52 25.9884Z" fill="#747474"/>
<path d="M160.13 25.9884H163.89L166.66 21.8984C166.723 21.6583 166.724 21.4063 166.665 21.1653C166.606 20.9243 166.487 20.7019 166.32 20.5184C165.75 19.8184 165.68 17.5184 165.68 17.5184C165.68 17.5184 165.56 16.5984 164.58 16.9984C163.6 17.3984 160.19 22.8084 160.13 25.9884Z" fill="#747474"/>
</svg>
