<svg width="278" height="90" viewBox="0 0 278 90" fill="none" xmlns="http://www.w3.org/2000/svg">
<path d="M209.365 60.8926H67.9851L67.8351 60.0926C67.8351 59.8926 66.8351 55.2826 62.6551 54.0126L61.9551 53.8026V33.2926L62.6551 33.0826C66.9151 31.8026 67.8251 27.0826 67.8351 27.0026L67.9851 26.2026H209.365L209.515 27.0026C209.515 27.1926 210.465 31.8126 214.695 33.0826L215.395 33.2926V53.7826L214.695 53.9926C210.435 55.2726 209.525 59.9926 209.515 60.0726L209.365 60.8926ZM69.5551 58.8926H207.795C208.184 57.4466 208.893 56.1065 209.869 54.9711C210.845 53.8357 212.064 52.934 213.435 52.3326V34.7126C212.064 34.1111 210.845 33.2094 209.869 32.074C208.893 30.9386 208.184 29.5985 207.795 28.1526H69.5551C69.1661 29.5985 68.4574 30.9386 67.4812 32.074C66.505 33.2094 65.2863 34.1111 63.9151 34.7126V52.3826C65.2863 52.984 66.505 53.8857 67.4812 55.0211C68.4574 56.1565 69.1661 57.4966 69.5551 58.9426V58.8926Z" fill="#747474"/>
<path d="M206.335 57.1526H70.6746L70.5746 56.8026C70.1686 55.6574 69.5348 54.6062 68.7116 53.7125C67.8884 52.8188 66.8927 52.1011 65.7846 51.6026L65.4746 51.4726V35.6226L65.7846 35.4926C66.8927 34.994 67.8884 34.2763 68.7116 33.3826C69.5348 32.4889 70.1686 31.4378 70.5746 30.2926L70.6746 29.9526H206.675L206.775 30.3026C207.181 31.4478 207.814 32.4989 208.638 33.3926C209.461 34.2863 210.457 35.004 211.565 35.5026L211.875 35.6326V51.4726L211.565 51.6026C210.457 52.1011 209.461 52.8188 208.638 53.7125C207.814 54.6062 207.181 55.6574 206.775 56.8026L206.675 57.1526H206.335ZM71.3346 56.1526H205.985C206.874 53.7936 208.64 51.8695 210.915 50.7826V36.2726C208.644 35.1904 206.878 33.2741 205.985 30.9226H71.3646C70.4713 33.2741 68.7054 35.1904 66.4346 36.2726V50.7826C68.713 51.8742 70.48 53.8061 71.3646 56.1726L71.3346 56.1526Z" fill="#747474"/>
<path d="M60.2954 34.0226V54.0226C60.2954 54.0226 59.8054 55.5726 58.0954 54.5926C56.3854 53.6126 53.6754 52.3426 51.9054 53.5626C50.1354 54.7826 49.1354 55.1126 47.9054 53.9726C46.6754 52.8326 44.4054 46.4826 43.9954 44.4826C43.5854 42.4826 42.1254 35.4826 45.5454 33.1226C46.1115 32.9145 46.7203 32.8504 47.3173 32.936C47.9142 33.0215 48.4806 33.254 48.9654 33.6126C50.9654 34.8326 54.9654 32.9026 54.9654 32.9026C54.9654 32.9026 59.6754 29.7826 60.2954 34.0226Z" fill="#747474"/>
<path d="M41.4842 38.1726C41.4842 38.1726 40.4842 45.3426 46.0442 54.3826C46.0442 54.3826 48.1742 57.4726 43.7342 57.3826C43.7342 57.3826 41.4042 56.8126 40.0942 58.1126C38.7842 59.4126 37.9842 60.7826 35.6742 59.4326C33.3642 58.0826 27.8842 47.5426 27.6742 44.9326C27.4642 42.3226 27.5942 40.6126 29.8742 40.4526C32.1542 40.2926 33.6242 41.1826 34.5142 39.8826C35.4042 38.5826 37.5142 35.7326 39.2442 35.8826C40.9742 36.0326 41.9742 37.0326 41.4842 38.1726Z" fill="#747474"/>
<path d="M25.8447 44.2826C25.8447 44.2826 27.8847 54.7826 33.6747 59.9226C33.6747 59.9226 35.6747 61.9226 32.7747 62.8526C32.7747 62.8526 30.4147 61.3826 29.2747 61.8526C27.1566 62.5999 24.8668 62.7145 22.6847 62.1826C20.5647 61.4426 19.7447 62.4226 19.7447 62.4226C19.7447 62.4226 17.7847 63.6026 16.6747 59.9726C15.5647 56.3426 14.9647 50.3926 15.4547 48.4326C15.9447 46.4726 17.1647 42.8926 18.1347 42.6526C18.5205 42.5664 18.9239 42.6075 19.2845 42.7698C19.645 42.932 19.9433 43.2066 20.1347 43.5526C20.2481 43.7289 20.3966 43.8801 20.5709 43.9967C20.7451 44.1133 20.9415 44.1928 21.1478 44.2303C21.3541 44.2678 21.5659 44.2625 21.7701 44.2147C21.9743 44.1669 22.1665 44.0777 22.3347 43.9526C23.1547 43.3026 25.2747 41.9426 25.8447 44.2826Z" fill="#747474"/>
<path d="M16.4855 42.5926C16.4855 42.5926 12.4855 46.4026 14.6055 57.0726C14.6055 57.0726 15.1755 59.5926 13.3855 59.2626C11.5955 58.9326 6.95547 54.5126 5.67547 50.9426C4.39547 47.3726 4.04547 44.9426 2.50547 44.4426C2.50547 44.4426 1.60547 42.5726 2.50547 41.3526C3.40547 40.1326 7.55547 35.7326 10.0755 34.9926C12.5955 34.2526 12.7655 36.2226 12.7655 36.2226C12.7655 36.2226 13.2555 39.2226 14.1455 40.1226C15.0355 41.0226 17.4355 41.2226 16.4855 42.5926Z" fill="#747474"/>
<path d="M1.54469 23.9726C1.61992 24.3275 1.80542 24.6495 2.07469 24.8926C2.55469 25.3826 1.61469 26.1626 1.41469 26.6526C0.887787 28.5193 0.63845 30.4533 0.674691 32.3926C0.910719 33.5399 0.991441 34.7138 0.914691 35.8826C0.734691 36.8826 -0.365309 38.1926 0.124691 38.8026C0.614691 39.4126 1.58469 40.1526 3.35469 37.9526C5.12469 35.7526 7.56469 34.0426 9.67469 33.7826C11.7847 33.5226 11.2047 32.2926 11.2047 31.7826C11.2047 31.2726 9.92469 30.1826 10.4147 27.4326C10.9047 24.6826 11.0247 24.5626 11.5747 24.0126C12.1247 23.4626 11.6347 21.6326 10.7747 21.2026C9.91469 20.7726 1.54469 20.8426 1.54469 23.9726Z" fill="#747474"/>
<path d="M4.8148 19.9926C4.8148 19.9926 5.0548 19.6826 4.3848 19.3826C3.7148 19.0826 4.8548 17.2426 4.8548 17.2426C4.8548 17.2426 10.4348 11.2426 14.8548 11.0126C19.2748 10.7826 16.3548 13.7826 16.3548 13.7826C16.3548 13.7826 12.5148 16.7826 12.4448 17.7826C12.3748 18.7826 12.8148 20.6526 11.4448 20.4126C10.0748 20.1726 9.2748 18.6426 4.8148 19.9926Z" fill="#747474"/>
<path d="M217.055 34.0226V54.0226C217.055 54.0226 217.545 55.5726 219.255 54.5926C220.965 53.6126 223.645 52.3126 225.445 53.5326C227.245 54.7526 228.215 55.0826 229.445 53.9426C230.675 52.8026 232.945 46.4526 233.355 44.4526C233.765 42.4526 235.225 35.4526 231.805 33.0926C231.239 32.8846 230.63 32.8204 230.033 32.906C229.436 32.9915 228.87 33.224 228.385 33.5826C226.385 34.8026 222.435 32.8726 222.435 32.8726C222.435 32.8726 217.675 29.7826 217.055 34.0226Z" fill="#747474"/>
<path d="M235.865 38.1726C235.865 38.1726 236.865 45.3426 231.305 54.3826C231.305 54.3826 229.175 57.4726 233.615 57.3826C233.615 57.3826 235.945 56.8126 237.255 58.1126C238.565 59.4126 239.365 60.7826 241.675 59.4326C243.985 58.0826 249.495 47.5426 249.745 44.9326C249.995 42.3226 249.825 40.6126 247.545 40.4526C245.265 40.2926 243.795 41.1826 242.905 39.8826C242.015 38.5826 239.905 35.7326 238.175 35.8826C236.445 36.0326 235.375 37.0326 235.865 38.1726Z" fill="#747474"/>
<path d="M251.505 44.2826C251.505 44.2826 249.505 54.7826 243.685 59.9226C243.685 59.9226 241.685 61.9226 244.585 62.8526C244.585 62.8526 246.945 61.3826 248.085 61.8526C250.203 62.5999 252.493 62.7146 254.675 62.1826C256.795 61.4426 257.615 62.4226 257.615 62.4226C257.615 62.4226 259.565 63.5826 260.705 59.9526C261.845 56.3226 262.415 50.3726 261.925 48.4126C261.435 46.4526 260.215 42.8726 259.245 42.6326C258.859 42.5465 258.456 42.5876 258.095 42.7498C257.735 42.912 257.436 43.1867 257.245 43.5326C257.131 43.709 256.983 43.8601 256.809 43.9767C256.634 44.0933 256.438 44.1728 256.232 44.2103C256.025 44.2478 255.814 44.2425 255.609 44.1948C255.405 44.147 255.213 44.0578 255.045 43.9326C254.195 43.3026 252.075 41.9426 251.505 44.2826Z" fill="#747474"/>
<path d="M260.865 42.5926C260.865 42.5926 264.865 46.4026 262.745 57.0726C262.745 57.0726 262.175 59.5926 263.965 59.2626C265.755 58.9326 270.395 54.5126 271.705 50.9426C273.015 47.3726 273.335 44.9426 274.875 44.4426C274.875 44.4426 275.775 42.5726 274.875 41.3526C273.975 40.1326 269.825 35.7326 267.305 34.9926C264.785 34.2526 264.615 36.2226 264.615 36.2226C264.615 36.2226 264.125 39.2226 263.235 40.1226C262.345 41.0226 259.915 41.2226 260.865 42.5926Z" fill="#747474"/>
<path d="M275.805 23.9726C275.73 24.3275 275.545 24.6495 275.275 24.8926C274.795 25.3826 275.735 26.1626 275.935 26.6526C276.466 28.5188 276.718 30.4529 276.685 32.3926C276.449 33.5399 276.369 34.7138 276.445 35.8826C276.625 36.8826 277.725 38.1926 277.235 38.8026C276.745 39.4126 275.775 40.1526 274.005 37.9526C272.235 35.7526 269.785 34.0426 267.675 33.7826C265.565 33.5226 266.145 32.2926 266.145 31.7826C266.145 31.2726 267.425 30.1826 266.935 27.4326C266.445 24.6826 266.325 24.5626 265.775 24.0126C265.225 23.4626 265.715 21.6326 266.575 21.2026C267.435 20.7726 275.805 20.8426 275.805 23.9726Z" fill="#747474"/>
<path d="M272.535 19.9926C272.535 19.9926 272.295 19.6826 272.965 19.3826C273.635 19.0826 272.495 17.2426 272.495 17.2426C272.495 17.2426 266.915 11.2426 262.495 11.0126C258.075 10.7826 260.995 13.7826 260.995 13.7826C260.995 13.7826 264.835 16.7826 264.905 17.7826C264.975 18.7826 264.535 20.6526 265.905 20.4126C267.275 20.1726 268.075 18.6426 272.535 19.9926Z" fill="#747474"/>
<path d="M206.264 62.2626H71.0843C71.0843 62.2626 70.9043 64.8826 72.4943 65.7826C72.7986 65.2735 73.1325 64.7826 73.4943 64.3126C74.0443 63.6426 74.7143 63.3126 75.1343 63.7626C75.5543 64.2126 77.4643 67.1826 78.8643 67.3726C79.1716 67.1625 79.4058 66.8619 79.5343 66.5126C79.6302 66.2831 79.7761 66.078 79.9614 65.9122C80.1466 65.7464 80.3666 65.624 80.6053 65.5541C80.8439 65.4841 81.0951 65.4683 81.3406 65.5078C81.5861 65.5474 81.8197 65.6412 82.0243 65.7826C83.1243 66.5726 87.1543 69.7826 89.8343 69.7826C89.8343 69.7826 91.4243 69.9026 91.6743 69.1126C91.9243 68.3226 91.7943 66.8526 93.5043 66.0326C95.2143 65.2126 98.0843 63.7926 104.254 63.9826C110.424 64.1726 112.014 64.8926 112.804 65.5726C113.594 66.2526 113.964 65.9926 114.574 65.6926C115.184 65.3926 117.144 63.6126 117.384 63.4926C117.624 63.3726 124.044 63.4926 124.044 63.4926C124.044 63.4926 125.694 71.0626 130.394 72.4926C130.394 72.4926 131.004 72.3726 130.764 71.6326C130.524 70.8926 128.934 64.6326 132.234 63.4526C132.234 63.4526 132.904 63.6326 132.844 64.1826C132.784 64.7326 132.994 69.3426 136.844 70.7826C136.844 70.7826 137.204 70.8726 137.054 70.2026C136.904 69.5326 136.354 63.9126 138.674 63.4526C140.994 63.9126 140.444 69.5326 140.294 70.2026C140.144 70.8726 140.504 70.7826 140.504 70.7826C144.354 69.3426 144.564 64.7826 144.504 64.1826C144.444 63.5826 145.114 63.4526 145.114 63.4526C148.414 64.6726 146.824 70.9026 146.584 71.6326C146.344 72.3626 146.954 72.4926 146.954 72.4926C151.654 71.0826 153.304 63.4926 153.304 63.4926C153.304 63.4926 159.714 63.3726 159.964 63.4926C160.214 63.6126 162.164 65.3826 162.774 65.6926C163.384 66.0026 163.774 66.2426 164.544 65.5726C165.314 64.9026 166.924 64.1626 173.094 63.9826C179.264 63.8026 182.094 65.2026 183.844 66.0326C185.594 66.8626 185.434 68.3126 185.674 69.1126C185.914 69.9126 187.514 69.7826 187.514 69.7826C190.194 69.7826 194.224 66.6026 195.324 65.7826C195.524 65.6468 195.751 65.556 195.989 65.5163C196.227 65.4767 196.471 65.4891 196.704 65.5528C196.937 65.6165 197.153 65.7299 197.338 65.8852C197.523 66.0406 197.671 66.2341 197.774 66.4526C197.903 66.8019 198.137 67.1025 198.444 67.3126C199.844 67.1226 201.744 64.1926 202.174 63.7026C202.604 63.2126 203.264 63.5826 203.814 64.2526C204.176 64.7226 204.51 65.2135 204.814 65.7226C206.444 64.8826 206.264 62.2626 206.264 62.2626Z" fill="#747474"/>
<path d="M183.605 18.0926C181.935 17.8526 177.085 20.8226 174.885 23.3126H170.615C170.615 23.3126 171.715 21.0326 172.115 20.9026C172.515 20.7726 172.405 19.5226 170.695 19.9026C168.985 20.2826 166.005 23.3226 166.005 23.3226H155.675C155.675 23.3226 151.805 16.8026 148.025 15.2526C148.025 15.2526 145.615 14.4426 146.355 15.9526C147.43 17.7756 147.753 19.9456 147.255 22.0026C147.044 22.5445 146.739 23.0454 146.355 23.4826H130.965C130.581 23.0454 130.277 22.5445 130.065 22.0026C129.567 19.9456 129.89 17.7756 130.965 15.9526C131.705 14.4426 129.295 15.2526 129.295 15.2526C125.515 16.8026 121.645 23.3226 121.645 23.3226H111.345C111.345 23.3226 108.345 20.3226 106.655 19.9026C104.965 19.4826 104.825 20.7526 105.235 20.9026C105.645 21.0526 106.735 23.3126 106.735 23.3126H102.465C100.265 20.8226 95.4151 17.8526 93.7451 18.0926C92.0751 18.3326 94.2751 20.0926 94.2751 20.0926C94.2751 20.0926 96.5951 23.0226 95.5451 23.3926C94.4951 23.7626 95.2951 24.8526 95.2951 24.8526H182.055C182.055 24.8526 182.865 23.7626 181.805 23.3926C180.745 23.0226 183.075 20.0926 183.075 20.0926C183.075 20.0926 185.275 18.3426 183.605 18.0926Z" fill="#747474"/>
</svg>
