<svg width="280" height="90" viewBox="0 0 280 90" fill="none" xmlns="http://www.w3.org/2000/svg">
<path d="M210.449 61.64H69.0593L68.9093 60.84C68.9093 60.64 67.9093 56.03 63.7293 54.76L63.0293 54.55V34.04L63.7293 33.83C67.9893 32.55 68.8993 27.83 68.9093 27.75L69.0593 26.95H210.449L210.589 27.75C210.589 27.94 211.539 32.56 215.769 33.83L216.469 34.04V54.55L215.769 54.76C211.509 56.04 210.599 60.76 210.589 60.84L210.449 61.64ZM70.6293 59.69H208.869C209.259 58.2431 209.97 56.9023 210.948 55.7669C211.926 54.6314 213.146 53.7302 214.519 53.13V35.49C213.146 34.8898 211.926 33.9886 210.948 32.8532C209.97 31.7177 209.259 30.3769 208.869 28.93H70.6293C70.2403 30.376 69.5316 31.7161 68.5554 32.8515C67.5792 33.9869 66.3606 34.8886 64.9893 35.49V53.13C66.3606 53.7314 67.5792 54.6331 68.5554 55.7685C69.5316 56.9039 70.2403 58.2441 70.6293 59.69Z" fill="#747474"/>
<path d="M207.41 57.9H71.7596L71.6596 57.55C71.2535 56.4048 70.6198 55.3537 69.7966 54.46C68.9733 53.5663 67.9777 52.8485 66.8696 52.35L66.5596 52.22V36.37L66.8696 36.24C67.9818 35.748 68.981 35.0324 69.805 34.1379C70.6291 33.2433 71.2603 32.1888 71.6596 31.04L71.7596 30.69H207.76L207.87 31.04C208.271 32.1877 208.903 33.2411 209.727 34.1354C210.551 35.0297 211.549 35.7459 212.66 36.24L212.96 36.37V52.22L212.66 52.35C211.549 52.8441 210.551 53.5603 209.727 54.4546C208.903 55.3489 208.271 56.4023 207.87 57.55L207.76 57.89L207.41 57.9ZM72.4096 56.9H207.06C207.956 54.5507 209.721 52.6355 211.99 51.55V37.02C209.721 35.9345 207.956 34.0193 207.06 31.67H72.4396C71.5462 34.0215 69.7804 35.9378 67.5096 37.02V51.57C69.7804 52.6522 71.5462 54.5685 72.4396 56.92L72.4096 56.9Z" fill="#747474"/>
<path d="M213.05 30.12C213.05 30.12 216.47 32.57 218.43 33.06V50.59C218.43 50.59 229.36 47.78 232.72 49.59C232.72 49.59 231.19 44.46 233.02 43.66C234.85 42.86 236.63 42.07 236.93 42.56C237.23 43.05 237.79 44.09 237.85 48.3C237.917 51.3761 237.608 54.4488 236.93 57.45C236.68 58.45 235.73 60.29 237.85 60.03C240.42 59.73 239.93 58.38 240.17 56.55C240.41 54.72 241.09 42.26 238.22 33.22C235.35 24.18 229.97 14.34 228.81 12.94C227.65 11.54 225.21 12.63 225.21 12.63C225.21 12.63 224.11 13.43 225.39 14.53C228.838 18.2981 231.497 22.7183 233.21 27.53C232.761 28.0369 232.162 28.3872 231.5 28.53C230.5 28.72 226.92 30.53 226 24.01C226 23.89 223.92 27.19 213.05 30.12Z" fill="#747474"/>
<path d="M230.15 11.92L233.27 11C233.27 11 238.65 20.23 240.42 25.24H243.23C243.23 25.24 245.42 27.37 246.4 32.14C247.38 36.91 247.56 38.31 247.01 40.63L244.76 41.85C244.76 41.85 245.5 50.77 245.31 56.85C244.28 57.357 243.222 57.8044 242.14 58.19C242.14 58.19 242.14 40.29 239.81 32.84C237.48 25.39 231.76 13.57 230.15 11.92Z" fill="#747474"/>
<path d="M245.06 25.91C246.972 29.7833 248.094 33.9986 248.36 38.31L250.86 37.03C250.86 37.03 249.94 29.09 247.62 25.91H245.06Z" fill="#747474"/>
<path d="M253.76 24.96L249.76 25.66C249.27 25.76 252.42 29.73 252.76 36.6C252.76 36.6 258.32 34.55 259.7 34.6L255.85 29.29L256.76 27.49C256.76 27.49 261.4 32.71 261.46 32.89C261.52 33.07 260.7 26.02 258.07 23.36C257.04 24.4601 256.196 25.7197 255.57 27.09C254.98 28.77 253.46 34.36 253.46 34.36C252.828 32.5683 252.64 30.6504 252.91 28.77C253.52 26.37 253.76 24.96 253.76 24.96Z" fill="#747474"/>
<path d="M260.27 23.07C260.27 23.07 263.11 26.49 263.87 33.73L265.09 34.28C265.29 31.9139 265.114 29.5311 264.57 27.22C263.9 25.2446 262.921 23.3881 261.67 21.72L260.27 23.07Z" fill="#747474"/>
<path d="M262.529 21.14C262.529 21.14 265.529 24.9 265.979 27.47C266.334 29.786 266.497 32.1272 266.469 34.47C266.409 34.75 269.729 34.62 269.729 34.62C269.735 32.0299 269.585 29.4419 269.279 26.87C268.582 24.0778 267.459 21.4098 265.949 18.96L262.529 21.14Z" fill="#747474"/>
<path d="M267.76 19.71C270.176 23.654 271.466 28.1846 271.49 32.81C273.131 32.0619 274.563 30.9218 275.66 29.49C277.041 27.7694 278.266 25.9288 279.32 23.99C279.32 23.99 272.91 18.27 267.76 19.71Z" fill="#747474"/>
<path d="M66.2698 30.12C66.2698 30.12 62.8498 32.57 60.8898 33.06V50.59C60.8898 50.59 49.9598 47.78 46.5998 49.59C46.5998 49.59 48.1298 44.46 46.2998 43.66C44.4698 42.86 42.6898 42.07 42.3898 42.56C42.0898 43.05 41.5298 44.09 41.4698 48.3C41.4027 51.3761 41.7117 54.4488 42.3898 57.45C42.6398 58.45 43.5898 60.29 41.4698 60.03C38.8998 59.73 39.3898 58.38 39.1498 56.55C38.9098 54.72 38.2298 42.26 41.1498 33.22C44.0698 24.18 49.3498 14.3 50.5098 12.9C51.6698 11.5 54.1098 12.59 54.1098 12.59C54.1098 12.59 55.2098 13.39 53.9298 14.49C50.4818 18.258 47.8229 22.6782 46.1098 27.49C46.5588 27.9969 47.1579 28.3472 47.8198 28.49C48.8198 28.68 52.3998 30.49 53.3198 23.97C53.3198 23.89 55.3998 27.19 66.2698 30.12Z" fill="#747474"/>
<path d="M49.1691 11.92L46.0491 11C46.0491 11 40.6691 20.23 38.8991 25.24H36.0991C36.0991 25.24 33.8991 27.37 32.9191 32.14C31.9391 36.91 31.7591 38.31 32.3091 40.63L34.5691 41.85C34.5691 41.85 33.8291 50.77 34.0191 56.85C35.0492 57.357 36.1077 57.8044 37.1891 58.19C37.1891 58.19 37.1891 40.29 39.5191 32.84C41.8491 25.39 47.5791 13.57 49.1691 11.92Z" fill="#747474"/>
<path d="M34.26 25.91C32.3478 29.7833 31.226 33.9986 30.96 38.31L28.46 37.03C28.46 37.03 29.38 29.09 31.7 25.91H34.26Z" fill="#747474"/>
<path d="M25.5899 24.96L29.5899 25.66C30.0799 25.76 26.9299 29.73 26.5899 36.6C26.5899 36.6 21.0299 34.55 19.6499 34.6L23.4999 29.29L22.4999 27.52C22.4999 27.52 17.8599 32.74 17.7999 32.92C17.7399 33.1 18.5599 26.05 21.1899 23.39C22.2451 24.4879 23.1133 25.7513 23.7599 27.13C24.3499 28.81 25.8699 34.4 25.8699 34.4C26.5013 32.6083 26.69 30.6904 26.4199 28.81C25.7599 26.37 25.5899 24.96 25.5899 24.96Z" fill="#747474"/>
<path d="M19.05 23.07C19.05 23.07 16.21 26.49 15.45 33.73L14.23 34.28C14.0328 31.9134 14.2117 29.5306 14.76 27.22C15.4293 25.2446 16.4081 23.3881 17.66 21.72L19.05 23.07Z" fill="#747474"/>
<path d="M16.76 21.14C16.76 21.14 13.76 24.9 13.34 27.49C12.9858 29.806 12.8219 32.1472 12.85 34.49C12.91 34.77 9.58999 34.64 9.58999 34.64C9.58447 32.05 9.73474 29.462 10.04 26.89C10.7369 24.0979 11.8601 21.4299 13.37 18.98L16.76 21.14Z" fill="#747474"/>
<path d="M11.6 19.71C9.18345 23.654 7.89344 28.1846 7.87 32.81C6.21432 32.0675 4.76802 30.9269 3.66 29.49C2.27844 27.7694 1.05356 25.9288 0 23.99C0 23.99 6.41 18.27 11.6 19.71Z" fill="#747474"/>
<path d="M111.59 62.86L105 69.77C105 69.77 107.93 71.54 117.33 71.17C126.73 70.8 131.44 69.49 131.44 69.49C131.44 69.49 125.09 64.49 124.73 62.89L111.59 62.86Z" fill="#747474"/>
<path d="M167.91 62.86L174.51 69.77C174.51 69.77 171.58 71.54 162.17 71.17C152.76 70.8 148.06 69.49 148.06 69.49C148.06 69.49 154.41 64.49 154.78 62.89L167.91 62.86Z" fill="#747474"/>
<path d="M148.55 62.86C145.98 66.22 139.75 69.28 139.75 69.28C139.75 69.28 133.52 66.22 130.96 62.86H125.82C125.82 62.86 133.95 70.99 139.75 73.06C145.55 70.99 153.68 62.86 153.68 62.86H148.55Z" fill="#747474"/>
<path d="M131.99 62.86C131.99 62.86 136.58 67.08 139.75 68.3C142.93 67.08 147.51 62.86 147.51 62.86H131.99Z" fill="#747474"/>
<path d="M119.289 23.4V25.05H160.209V23.4C152.089 23.34 139.759 17.49 139.759 17.49C139.759 17.49 127.409 23.34 119.289 23.4Z" fill="#747474"/>
<path d="M164.609 19.92C155.765 19.6478 147.166 16.9419 139.759 12.1C132.35 16.9437 123.748 19.6496 114.899 19.92L114.109 25.05H118.199L118.439 22.73C134.009 20.49 139.759 16.49 139.759 16.49C139.759 16.49 145.499 20.49 161.079 22.78L161.319 25.1H165.419L164.609 19.92Z" fill="#747474"/>
</svg>
